M48
;GenerationSoftware,Autodesk,EAGLE,9.6.2*%
;CreationDate,2022-10-09T13:29:35Z*%
FMAT,2
ICI,OFF
METRIC,TZ,000.000
T4C0.350
T3C0.600
T2C0.650
T1C3.000
%
G90
M71
T1
X-40020Y2704
X20500Y25500
T2
X2509Y5966
X-3271Y5966
T3
X3939Y6466
X-4701Y2286
X3939Y2286
X-4701Y6466
T4
X-254Y35179
X-25426Y10197
X-19255Y20883
X-22878Y23681
X-21797Y23674
X-20729Y23676
X-19646Y23681
X-18521Y23683
X-17332Y23692
X-16077Y23688
X-14786Y23681
X-13583Y23683
X-12260Y23683
X-10977Y23690
X-9727Y23681
X-4000Y27619
X-3994Y28641
X-3984Y29677
X-4001Y30751
X-4044Y33145
X-4055Y34116
X-32463Y14468
X-32475Y13391
X-32491Y12315
X-33216Y11295
X-33970Y10335
X-34676Y9249
X-37154Y1436
X-36014Y1447
X-34834Y1458
X-33604Y1461
X-27450Y17515
X-21706Y20887
X-20515Y20894
X9837Y1424
X8419Y1477
X7071Y1442
X5793Y1477
X28769Y1493
X30173Y1500
X31492Y1484
X32854Y1472
X34260Y1463
X35682Y1468
X31782Y15049
X32518Y14020
X33211Y13053
X33947Y12148
X34704Y11160
X35522Y10047
X36194Y8911
X37035Y7923
X20601Y20899
X21724Y20878
X22819Y20851
X24026Y20832
X25244Y20832
X5672Y15620
X6712Y15629
X7731Y15636
X6899Y34320
X8067Y33860
X9229Y33373
X5080Y21971
X-2567Y19694
X-25019Y2921
X-1016Y11557
X-4913Y12666
X-7239Y18415
X-8128Y20272
X8890Y24892
X1016Y29972
X-13462Y22098
X-8255Y22860
X2413Y29972
X-2286Y11557
X391Y26797
X-3556Y11557
X1548Y26783
X762Y8382
X-1143Y8763
X-8382Y10287
X-26797Y2159
X-6096Y11430
X1778Y17526
X-13478Y20997
X-5330Y21000
X-22225Y3175
X4445Y20828
X27432Y6858
X20447Y10033
X23241Y10541
X21844Y16637
X27686Y12700
X27559Y8382
X20574Y5842
X14605Y20701
X-6096Y9525
X18415Y16256
X-2159Y17018
X-6293Y20313
X-24003Y4699
X-21082Y10033
X-14649Y10797
X-19177Y6350
X-32407Y1466
X-24358Y1395
X-2159Y8763
X15288Y9017
X7620Y12065
X-13462Y14859
X-508Y31623
X18161Y20701
M30