G04 EAGLE Gerber RS-274X export*
G75*
%MOMM*%
%FSLAX34Y34*%
%LPD*%
%INBottom Copper*%
%IPPOS*%
%AMOC8*
5,1,8,0,0,1.08239X$1,22.5*%
G01*
%ADD10C,0.152400*%
%ADD11R,1.100000X1.000000*%
%ADD12R,1.000000X1.100000*%
%ADD13R,0.550000X1.200000*%
%ADD14C,1.108000*%
%ADD15R,0.800000X0.800000*%
%ADD16R,2.500000X2.500000*%
%ADD17R,2.540000X1.270000*%
%ADD18C,0.100000*%
%ADD19R,1.400000X1.000000*%
%ADD20R,1.320800X0.558800*%
%ADD21R,1.320800X0.508000*%
%ADD22C,0.150000*%
%ADD23R,3.302000X2.413000*%
%ADD24C,0.406400*%
%ADD25C,0.756400*%
%ADD26C,0.304800*%
%ADD27C,0.254000*%

G36*
X-54357Y9706D02*
X-54357Y9706D01*
X-54232Y9712D01*
X-54184Y9726D01*
X-54135Y9732D01*
X-54017Y9774D01*
X-53897Y9808D01*
X-53854Y9832D01*
X-53807Y9849D01*
X-53702Y9917D01*
X-53592Y9978D01*
X-53556Y10011D01*
X-53514Y10038D01*
X-53427Y10128D01*
X-53334Y10213D01*
X-53306Y10253D01*
X-53272Y10289D01*
X-53208Y10396D01*
X-53137Y10500D01*
X-53118Y10546D01*
X-53093Y10588D01*
X-53055Y10707D01*
X-53009Y10824D01*
X-53002Y10873D01*
X-52987Y10920D01*
X-52977Y11045D01*
X-52959Y11169D01*
X-52963Y11218D01*
X-52959Y11267D01*
X-52978Y11391D01*
X-52988Y11516D01*
X-53003Y11563D01*
X-53011Y11612D01*
X-53057Y11728D01*
X-53096Y11848D01*
X-53126Y11902D01*
X-53139Y11936D01*
X-53167Y11975D01*
X-53215Y12061D01*
X-54171Y13492D01*
X-54780Y14963D01*
X-55091Y16524D01*
X-55091Y21337D01*
X-47010Y21337D01*
X-38929Y21337D01*
X-38929Y16524D01*
X-39018Y16080D01*
X-39240Y14963D01*
X-39849Y13492D01*
X-40805Y12061D01*
X-40862Y11950D01*
X-40927Y11842D01*
X-40942Y11795D01*
X-40964Y11751D01*
X-40995Y11630D01*
X-41033Y11510D01*
X-41037Y11461D01*
X-41049Y11413D01*
X-41051Y11287D01*
X-41061Y11163D01*
X-41054Y11114D01*
X-41054Y11065D01*
X-41028Y10942D01*
X-41009Y10818D01*
X-40991Y10772D01*
X-40981Y10724D01*
X-40927Y10611D01*
X-40881Y10494D01*
X-40852Y10454D01*
X-40831Y10409D01*
X-40753Y10311D01*
X-40682Y10208D01*
X-40645Y10175D01*
X-40614Y10136D01*
X-40516Y10059D01*
X-40423Y9975D01*
X-40380Y9951D01*
X-40341Y9920D01*
X-40228Y9867D01*
X-40118Y9806D01*
X-40070Y9793D01*
X-40026Y9772D01*
X-39903Y9745D01*
X-39782Y9711D01*
X-39721Y9706D01*
X-39685Y9699D01*
X-39637Y9700D01*
X-39539Y9692D01*
X-4906Y9692D01*
X-4903Y9692D01*
X-4900Y9692D01*
X-4727Y9712D01*
X-4560Y9732D01*
X-4557Y9733D01*
X-4553Y9733D01*
X-4321Y9809D01*
X-1484Y10990D01*
X31016Y11047D01*
X31139Y11061D01*
X31263Y11067D01*
X31312Y11081D01*
X31362Y11087D01*
X31479Y11129D01*
X31598Y11164D01*
X31642Y11188D01*
X31690Y11205D01*
X31794Y11273D01*
X31902Y11333D01*
X31940Y11367D01*
X31982Y11395D01*
X32068Y11484D01*
X32160Y11568D01*
X32189Y11610D01*
X32224Y11646D01*
X32288Y11753D01*
X32358Y11855D01*
X32376Y11902D01*
X32402Y11945D01*
X32440Y12064D01*
X32485Y12179D01*
X32493Y12229D01*
X32508Y12278D01*
X32518Y12401D01*
X32536Y12524D01*
X32531Y12575D01*
X32535Y12625D01*
X32517Y12747D01*
X32506Y12871D01*
X32491Y12920D01*
X32483Y12970D01*
X32437Y13085D01*
X32399Y13203D01*
X32368Y13259D01*
X32354Y13293D01*
X32327Y13332D01*
X32280Y13416D01*
X32229Y13492D01*
X31620Y14963D01*
X31309Y16524D01*
X31309Y21337D01*
X39390Y21337D01*
X47471Y21337D01*
X47471Y16524D01*
X47382Y16080D01*
X47160Y14963D01*
X46551Y13492D01*
X46520Y13446D01*
X46462Y13333D01*
X46397Y13224D01*
X46383Y13179D01*
X46361Y13136D01*
X46330Y13013D01*
X46292Y12892D01*
X46288Y12844D01*
X46276Y12798D01*
X46274Y12671D01*
X46264Y12545D01*
X46271Y12497D01*
X46271Y12449D01*
X46298Y12325D01*
X46317Y12200D01*
X46334Y12156D01*
X46345Y12109D01*
X46399Y11994D01*
X46446Y11876D01*
X46473Y11837D01*
X46494Y11794D01*
X46573Y11695D01*
X46645Y11591D01*
X46681Y11559D01*
X46711Y11521D01*
X46810Y11442D01*
X46905Y11358D01*
X46947Y11335D01*
X46984Y11305D01*
X47099Y11251D01*
X47210Y11190D01*
X47256Y11177D01*
X47299Y11156D01*
X47424Y11130D01*
X47545Y11096D01*
X47605Y11091D01*
X47640Y11083D01*
X47689Y11084D01*
X47789Y11076D01*
X50449Y11081D01*
X50570Y11095D01*
X50691Y11101D01*
X50742Y11115D01*
X50795Y11121D01*
X50910Y11163D01*
X51027Y11196D01*
X51073Y11222D01*
X51123Y11240D01*
X51225Y11306D01*
X51332Y11364D01*
X51371Y11400D01*
X51416Y11429D01*
X51500Y11517D01*
X51590Y11598D01*
X51621Y11642D01*
X51658Y11680D01*
X51720Y11785D01*
X51789Y11884D01*
X51809Y11934D01*
X51836Y11980D01*
X51873Y12095D01*
X51917Y12208D01*
X51925Y12261D01*
X51941Y12312D01*
X51951Y12433D01*
X51969Y12553D01*
X51966Y12621D01*
X51969Y12659D01*
X51962Y12705D01*
X51958Y12797D01*
X50619Y23274D01*
X50600Y23353D01*
X50590Y23433D01*
X50548Y23565D01*
X50536Y23612D01*
X50526Y23632D01*
X50515Y23666D01*
X50400Y23941D01*
X50376Y23984D01*
X50360Y24030D01*
X50292Y24136D01*
X50230Y24246D01*
X50197Y24282D01*
X50171Y24323D01*
X50080Y24410D01*
X49996Y24503D01*
X49956Y24531D01*
X49920Y24565D01*
X49812Y24630D01*
X49709Y24701D01*
X49663Y24719D01*
X49621Y24744D01*
X49501Y24782D01*
X49384Y24828D01*
X49336Y24835D01*
X49289Y24850D01*
X49164Y24860D01*
X49040Y24879D01*
X48991Y24874D01*
X48942Y24878D01*
X48817Y24860D01*
X48692Y24849D01*
X48646Y24834D01*
X48597Y24827D01*
X48480Y24780D01*
X48361Y24741D01*
X48319Y24716D01*
X48273Y24698D01*
X48170Y24626D01*
X48063Y24561D01*
X48027Y24527D01*
X47987Y24499D01*
X47903Y24406D01*
X47880Y24383D01*
X40913Y24383D01*
X40913Y36336D01*
X41747Y36170D01*
X43218Y35561D01*
X44541Y34677D01*
X45667Y33551D01*
X46551Y32228D01*
X47160Y30757D01*
X47473Y29184D01*
X47477Y29153D01*
X47474Y29101D01*
X47497Y28980D01*
X47511Y28858D01*
X47528Y28809D01*
X47537Y28759D01*
X47587Y28646D01*
X47628Y28530D01*
X47656Y28486D01*
X47677Y28439D01*
X47750Y28341D01*
X47817Y28237D01*
X47854Y28201D01*
X47885Y28160D01*
X47979Y28081D01*
X48068Y27995D01*
X48112Y27969D01*
X48152Y27935D01*
X48261Y27879D01*
X48367Y27816D01*
X48416Y27800D01*
X48462Y27777D01*
X48582Y27747D01*
X48699Y27710D01*
X48750Y27706D01*
X48801Y27693D01*
X48924Y27692D01*
X49046Y27682D01*
X49097Y27690D01*
X49149Y27689D01*
X49269Y27715D01*
X49391Y27734D01*
X49439Y27753D01*
X49489Y27764D01*
X49601Y27817D01*
X49715Y27862D01*
X49757Y27892D01*
X49804Y27914D01*
X49900Y27991D01*
X50001Y28061D01*
X50035Y28100D01*
X50076Y28132D01*
X50152Y28229D01*
X50234Y28320D01*
X50259Y28365D01*
X50291Y28406D01*
X50402Y28624D01*
X50843Y29693D01*
X50856Y29740D01*
X50905Y29874D01*
X51266Y31202D01*
X51567Y31591D01*
X51609Y31661D01*
X51659Y31725D01*
X51721Y31847D01*
X51747Y31889D01*
X51752Y31905D01*
X51757Y31913D01*
X51760Y31924D01*
X51770Y31943D01*
X51957Y32397D01*
X52929Y33372D01*
X52959Y33410D01*
X53055Y33515D01*
X53182Y33679D01*
X53198Y33706D01*
X53219Y33729D01*
X53288Y33855D01*
X53362Y33977D01*
X53372Y34007D01*
X53387Y34034D01*
X53425Y34172D01*
X53470Y34309D01*
X53472Y34340D01*
X53481Y34370D01*
X53500Y34614D01*
X53236Y185105D01*
X53224Y185203D01*
X53222Y185302D01*
X53204Y185375D01*
X53195Y185451D01*
X53162Y185544D01*
X53137Y185640D01*
X53103Y185707D01*
X53077Y185779D01*
X53023Y185862D01*
X52978Y185950D01*
X52929Y186008D01*
X52888Y186071D01*
X52816Y186140D01*
X52752Y186215D01*
X52691Y186260D01*
X52636Y186313D01*
X52551Y186364D01*
X52472Y186422D01*
X52402Y186452D01*
X52337Y186491D01*
X52242Y186521D01*
X52152Y186560D01*
X52077Y186574D01*
X52005Y186597D01*
X51906Y186605D01*
X51809Y186622D01*
X51733Y186618D01*
X51658Y186624D01*
X51560Y186609D01*
X51461Y186604D01*
X51388Y186583D01*
X51313Y186572D01*
X51221Y186535D01*
X51126Y186508D01*
X51060Y186471D01*
X50989Y186443D01*
X50908Y186386D01*
X50822Y186337D01*
X50743Y186271D01*
X50703Y186243D01*
X50680Y186217D01*
X50635Y186179D01*
X50472Y186015D01*
X39208Y186015D01*
X38315Y186908D01*
X38315Y199172D01*
X39208Y200065D01*
X40268Y200065D01*
X40294Y200068D01*
X40320Y200066D01*
X40467Y200088D01*
X40614Y200105D01*
X40639Y200113D01*
X40665Y200117D01*
X40803Y200172D01*
X40942Y200222D01*
X40964Y200236D01*
X40989Y200246D01*
X41110Y200331D01*
X41235Y200411D01*
X41253Y200430D01*
X41275Y200445D01*
X41374Y200555D01*
X41477Y200662D01*
X41491Y200684D01*
X41508Y200704D01*
X41580Y200834D01*
X41656Y200961D01*
X41664Y200986D01*
X41677Y201009D01*
X41717Y201152D01*
X41762Y201293D01*
X41764Y201319D01*
X41772Y201344D01*
X41791Y201588D01*
X41791Y202803D01*
X41777Y202929D01*
X41770Y203055D01*
X41757Y203101D01*
X41751Y203149D01*
X41709Y203268D01*
X41674Y203390D01*
X41650Y203432D01*
X41634Y203477D01*
X41565Y203583D01*
X41504Y203694D01*
X41464Y203740D01*
X41445Y203770D01*
X41410Y203804D01*
X41345Y203880D01*
X39951Y205274D01*
X39143Y207224D01*
X39143Y209336D01*
X39951Y211286D01*
X41444Y212779D01*
X43394Y213587D01*
X45506Y213587D01*
X47456Y212779D01*
X48949Y211286D01*
X49757Y209336D01*
X49757Y207224D01*
X48949Y205274D01*
X48335Y204660D01*
X48256Y204561D01*
X48172Y204467D01*
X48148Y204425D01*
X48118Y204387D01*
X48064Y204273D01*
X48003Y204162D01*
X47990Y204116D01*
X47969Y204072D01*
X47943Y203949D01*
X47908Y203827D01*
X47903Y203766D01*
X47896Y203731D01*
X47897Y203683D01*
X47889Y203583D01*
X47889Y201588D01*
X47890Y201576D01*
X47890Y201569D01*
X47891Y201557D01*
X47890Y201536D01*
X47912Y201389D01*
X47929Y201242D01*
X47937Y201217D01*
X47941Y201191D01*
X47996Y201053D01*
X48046Y200914D01*
X48060Y200892D01*
X48070Y200867D01*
X48155Y200746D01*
X48235Y200621D01*
X48254Y200603D01*
X48269Y200581D01*
X48379Y200482D01*
X48486Y200379D01*
X48508Y200365D01*
X48528Y200348D01*
X48658Y200276D01*
X48785Y200200D01*
X48810Y200192D01*
X48833Y200179D01*
X48976Y200139D01*
X49117Y200094D01*
X49143Y200092D01*
X49168Y200084D01*
X49412Y200065D01*
X50472Y200065D01*
X50607Y199929D01*
X50687Y199866D01*
X50760Y199795D01*
X50823Y199758D01*
X50880Y199712D01*
X50972Y199669D01*
X51060Y199617D01*
X51129Y199595D01*
X51195Y199563D01*
X51295Y199542D01*
X51392Y199511D01*
X51465Y199505D01*
X51536Y199490D01*
X51638Y199492D01*
X51739Y199484D01*
X51812Y199495D01*
X51885Y199496D01*
X51983Y199521D01*
X52084Y199536D01*
X52152Y199563D01*
X52223Y199581D01*
X52313Y199628D01*
X52408Y199665D01*
X52467Y199707D01*
X52532Y199741D01*
X52610Y199807D01*
X52693Y199865D01*
X52742Y199919D01*
X52798Y199966D01*
X52858Y200048D01*
X52926Y200124D01*
X52962Y200188D01*
X53005Y200247D01*
X53045Y200340D01*
X53094Y200429D01*
X53114Y200500D01*
X53143Y200567D01*
X53161Y200667D01*
X53188Y200765D01*
X53196Y200863D01*
X53205Y200910D01*
X53203Y200946D01*
X53208Y201009D01*
X53165Y225045D01*
X53163Y225069D01*
X53165Y225094D01*
X53142Y225242D01*
X53125Y225391D01*
X53117Y225414D01*
X53113Y225439D01*
X53058Y225578D01*
X53007Y225719D01*
X52993Y225740D01*
X52984Y225763D01*
X52899Y225885D01*
X52817Y226011D01*
X52799Y226029D01*
X52785Y226049D01*
X52674Y226149D01*
X52566Y226253D01*
X52545Y226266D01*
X52526Y226282D01*
X52396Y226355D01*
X52267Y226431D01*
X52243Y226439D01*
X52221Y226451D01*
X52078Y226491D01*
X51935Y226537D01*
X51910Y226539D01*
X51886Y226546D01*
X51642Y226565D01*
X35688Y226565D01*
X34795Y227458D01*
X34795Y253722D01*
X35688Y254615D01*
X51588Y254615D01*
X51615Y254618D01*
X51642Y254616D01*
X51788Y254638D01*
X51934Y254655D01*
X51960Y254664D01*
X51987Y254668D01*
X52123Y254723D01*
X52262Y254772D01*
X52285Y254787D01*
X52311Y254797D01*
X52431Y254882D01*
X52555Y254961D01*
X52574Y254981D01*
X52596Y254997D01*
X52695Y255106D01*
X52797Y255212D01*
X52811Y255235D01*
X52829Y255256D01*
X52900Y255385D01*
X52976Y255511D01*
X52984Y255537D01*
X52997Y255561D01*
X53037Y255703D01*
X53082Y255843D01*
X53084Y255870D01*
X53092Y255897D01*
X53111Y256141D01*
X53042Y295045D01*
X53040Y295069D01*
X53042Y295094D01*
X53019Y295242D01*
X53002Y295391D01*
X52994Y295414D01*
X52990Y295439D01*
X52935Y295578D01*
X52884Y295719D01*
X52870Y295740D01*
X52861Y295763D01*
X52776Y295885D01*
X52694Y296011D01*
X52676Y296029D01*
X52662Y296049D01*
X52552Y296149D01*
X52443Y296253D01*
X52422Y296266D01*
X52403Y296282D01*
X52273Y296355D01*
X52144Y296431D01*
X52120Y296439D01*
X52098Y296451D01*
X51955Y296491D01*
X51812Y296537D01*
X51787Y296539D01*
X51763Y296546D01*
X51519Y296565D01*
X35688Y296565D01*
X34795Y297458D01*
X34795Y323722D01*
X35688Y324615D01*
X51465Y324615D01*
X51492Y324618D01*
X51519Y324616D01*
X51665Y324638D01*
X51811Y324655D01*
X51837Y324664D01*
X51864Y324668D01*
X52000Y324723D01*
X52139Y324772D01*
X52162Y324787D01*
X52188Y324797D01*
X52308Y324882D01*
X52432Y324961D01*
X52451Y324981D01*
X52474Y324997D01*
X52572Y325106D01*
X52674Y325212D01*
X52688Y325235D01*
X52706Y325256D01*
X52777Y325385D01*
X52853Y325511D01*
X52861Y325537D01*
X52874Y325561D01*
X52914Y325703D01*
X52959Y325843D01*
X52961Y325870D01*
X52969Y325897D01*
X52988Y326141D01*
X52971Y335829D01*
X52967Y335860D01*
X52969Y335891D01*
X52947Y336033D01*
X52930Y336175D01*
X52920Y336205D01*
X52915Y336235D01*
X52861Y336368D01*
X52812Y336503D01*
X52795Y336529D01*
X52784Y336558D01*
X52649Y336762D01*
X52522Y336926D01*
X52488Y336960D01*
X52396Y337069D01*
X51420Y338040D01*
X51232Y338494D01*
X51192Y338565D01*
X51161Y338640D01*
X51086Y338756D01*
X51062Y338798D01*
X51046Y338815D01*
X51027Y338845D01*
X50725Y339232D01*
X50359Y340560D01*
X50341Y340605D01*
X50297Y340740D01*
X49768Y342011D01*
X49767Y342502D01*
X49757Y342583D01*
X49758Y342664D01*
X49732Y342799D01*
X49726Y342848D01*
X49718Y342870D01*
X49712Y342905D01*
X49581Y343378D01*
X49751Y344745D01*
X49751Y344794D01*
X49762Y344935D01*
X49760Y346312D01*
X49947Y346766D01*
X49969Y346844D01*
X50001Y346919D01*
X50029Y347054D01*
X50042Y347101D01*
X50043Y347124D01*
X50051Y347159D01*
X50752Y352806D01*
X50752Y352908D01*
X50763Y353009D01*
X50754Y353081D01*
X50755Y353154D01*
X50732Y353254D01*
X50720Y353355D01*
X50694Y353423D01*
X50678Y353494D01*
X50634Y353586D01*
X50599Y353682D01*
X50559Y353743D01*
X50527Y353808D01*
X50463Y353888D01*
X50407Y353973D01*
X50354Y354023D01*
X50308Y354079D01*
X50228Y354142D01*
X50153Y354212D01*
X50091Y354249D01*
X50033Y354294D01*
X49941Y354337D01*
X49852Y354388D01*
X49760Y354420D01*
X49717Y354440D01*
X49681Y354447D01*
X49621Y354468D01*
X47932Y354905D01*
X47884Y354912D01*
X47785Y354935D01*
X23946Y358656D01*
X23897Y358658D01*
X23790Y358672D01*
X11985Y359282D01*
X11955Y359280D01*
X11904Y359284D01*
X-2095Y359260D01*
X-2910Y359595D01*
X-2950Y359606D01*
X-2987Y359624D01*
X-3117Y359654D01*
X-3245Y359690D01*
X-3286Y359692D01*
X-3326Y359701D01*
X-3571Y359708D01*
X-23720Y358641D01*
X-23769Y358633D01*
X-23875Y358625D01*
X-45267Y355284D01*
X-45346Y355262D01*
X-45429Y355250D01*
X-45514Y355216D01*
X-45603Y355191D01*
X-45675Y355152D01*
X-45752Y355121D01*
X-45828Y355069D01*
X-45909Y355025D01*
X-45971Y354969D01*
X-46039Y354922D01*
X-46100Y354854D01*
X-46169Y354793D01*
X-46217Y354725D01*
X-46272Y354663D01*
X-46317Y354583D01*
X-46369Y354508D01*
X-46400Y354431D01*
X-46441Y354358D01*
X-46466Y354270D01*
X-46500Y354184D01*
X-46513Y354103D01*
X-46535Y354023D01*
X-46546Y353889D01*
X-46554Y353840D01*
X-46552Y353816D01*
X-46555Y353779D01*
X-46555Y243573D01*
X-239306Y243573D01*
X-239401Y243562D01*
X-239496Y243561D01*
X-239574Y243542D01*
X-239653Y243533D01*
X-239742Y243501D01*
X-239835Y243478D01*
X-239906Y243442D01*
X-239981Y243415D01*
X-240061Y243364D01*
X-240146Y243321D01*
X-240232Y243253D01*
X-240273Y243226D01*
X-240296Y243203D01*
X-240338Y243170D01*
X-254864Y229792D01*
X-254881Y229773D01*
X-254913Y229745D01*
X-282326Y202133D01*
X-282341Y202114D01*
X-282368Y202089D01*
X-289714Y194069D01*
X-289753Y194015D01*
X-289800Y193966D01*
X-289855Y193874D01*
X-289918Y193787D01*
X-289944Y193725D01*
X-289979Y193667D01*
X-290012Y193565D01*
X-290053Y193465D01*
X-290065Y193399D01*
X-290085Y193335D01*
X-290094Y193228D01*
X-290112Y193122D01*
X-290108Y193055D01*
X-290113Y192988D01*
X-290097Y192881D01*
X-290091Y192774D01*
X-290071Y192710D01*
X-290061Y192643D01*
X-290022Y192543D01*
X-289991Y192440D01*
X-289957Y192382D01*
X-289933Y192319D01*
X-289871Y192231D01*
X-289818Y192137D01*
X-289772Y192088D01*
X-289734Y192033D01*
X-289654Y191961D01*
X-289580Y191882D01*
X-289525Y191845D01*
X-289475Y191800D01*
X-289381Y191748D01*
X-289291Y191687D01*
X-289229Y191664D01*
X-289170Y191631D01*
X-289066Y191602D01*
X-288966Y191564D01*
X-288899Y191555D01*
X-288834Y191536D01*
X-288659Y191522D01*
X-288620Y191517D01*
X-288608Y191518D01*
X-288591Y191517D01*
X-267767Y191517D01*
X-265237Y188987D01*
X-262697Y186447D01*
X-262619Y186385D01*
X-262546Y186315D01*
X-262482Y186277D01*
X-262424Y186230D01*
X-262333Y186188D01*
X-262247Y186136D01*
X-262176Y186113D01*
X-262109Y186082D01*
X-262011Y186060D01*
X-261915Y186030D01*
X-261841Y186024D01*
X-261768Y186008D01*
X-261668Y186010D01*
X-261568Y186002D01*
X-261494Y186013D01*
X-261420Y186014D01*
X-261323Y186039D01*
X-261223Y186053D01*
X-261154Y186081D01*
X-261082Y186099D01*
X-260993Y186145D01*
X-260899Y186182D01*
X-260838Y186225D01*
X-260772Y186259D01*
X-260696Y186324D01*
X-260613Y186381D01*
X-260563Y186436D01*
X-260507Y186485D01*
X-260447Y186565D01*
X-260380Y186640D01*
X-260344Y186705D01*
X-260299Y186765D01*
X-260260Y186857D01*
X-260211Y186945D01*
X-260191Y187017D01*
X-260161Y187085D01*
X-260144Y187184D01*
X-260116Y187280D01*
X-260108Y187380D01*
X-260100Y187428D01*
X-260102Y187464D01*
X-260097Y187524D01*
X-260097Y188163D01*
X-252933Y195327D01*
X-208077Y195327D01*
X-201743Y188993D01*
X-201733Y188908D01*
X-201725Y188883D01*
X-201721Y188857D01*
X-201666Y188719D01*
X-201616Y188580D01*
X-201602Y188558D01*
X-201592Y188533D01*
X-201507Y188412D01*
X-201427Y188287D01*
X-201408Y188269D01*
X-201393Y188247D01*
X-201283Y188148D01*
X-201176Y188045D01*
X-201154Y188031D01*
X-201134Y188014D01*
X-201004Y187942D01*
X-200877Y187866D01*
X-200852Y187858D01*
X-200829Y187845D01*
X-200686Y187805D01*
X-200545Y187760D01*
X-200519Y187758D01*
X-200494Y187750D01*
X-200353Y187739D01*
X-200353Y177390D01*
X-200353Y167049D01*
X-200730Y167049D01*
X-201504Y167256D01*
X-202233Y167678D01*
X-202258Y167698D01*
X-202352Y167782D01*
X-202395Y167806D01*
X-202432Y167836D01*
X-202547Y167890D01*
X-202657Y167951D01*
X-202704Y167964D01*
X-202747Y167985D01*
X-202871Y168011D01*
X-202993Y168046D01*
X-203053Y168051D01*
X-203088Y168058D01*
X-203136Y168057D01*
X-203236Y168065D01*
X-207669Y168065D01*
X-208855Y169251D01*
X-208855Y175254D01*
X-208869Y175379D01*
X-208876Y175506D01*
X-208887Y175544D01*
X-208887Y185446D01*
X-208901Y185571D01*
X-208908Y185698D01*
X-208921Y185744D01*
X-208927Y185792D01*
X-208969Y185911D01*
X-209004Y186032D01*
X-209028Y186075D01*
X-209044Y186120D01*
X-209113Y186226D01*
X-209174Y186337D01*
X-209214Y186383D01*
X-209233Y186413D01*
X-209268Y186446D01*
X-209333Y186523D01*
X-210577Y187767D01*
X-210676Y187846D01*
X-210770Y187930D01*
X-210812Y187954D01*
X-210850Y187984D01*
X-210964Y188038D01*
X-211075Y188099D01*
X-211122Y188112D01*
X-211165Y188133D01*
X-211289Y188159D01*
X-211410Y188194D01*
X-211471Y188199D01*
X-211506Y188206D01*
X-211554Y188205D01*
X-211654Y188213D01*
X-249356Y188213D01*
X-249481Y188199D01*
X-249608Y188192D01*
X-249654Y188179D01*
X-249702Y188173D01*
X-249821Y188131D01*
X-249942Y188096D01*
X-249985Y188072D01*
X-250030Y188056D01*
X-250136Y187987D01*
X-250247Y187926D01*
X-250293Y187886D01*
X-250323Y187867D01*
X-250356Y187832D01*
X-250433Y187767D01*
X-252537Y185663D01*
X-252616Y185564D01*
X-252700Y185470D01*
X-252724Y185428D01*
X-252754Y185390D01*
X-252808Y185276D01*
X-252869Y185165D01*
X-252882Y185118D01*
X-252903Y185075D01*
X-252929Y184951D01*
X-252964Y184830D01*
X-252969Y184769D01*
X-252976Y184734D01*
X-252975Y184686D01*
X-252983Y184586D01*
X-252983Y183330D01*
X-252981Y183309D01*
X-252982Y183290D01*
X-252972Y183218D01*
X-252970Y183130D01*
X-252952Y183058D01*
X-252943Y182984D01*
X-252932Y182951D01*
X-252931Y182945D01*
X-252919Y182915D01*
X-252910Y182890D01*
X-252885Y182792D01*
X-252851Y182726D01*
X-252826Y182656D01*
X-252771Y182572D01*
X-252725Y182482D01*
X-252677Y182426D01*
X-252637Y182363D01*
X-252565Y182294D01*
X-252500Y182217D01*
X-252440Y182173D01*
X-252386Y182121D01*
X-252300Y182070D01*
X-252219Y182010D01*
X-252151Y181980D01*
X-252087Y181942D01*
X-251992Y181912D01*
X-251899Y181872D01*
X-251826Y181859D01*
X-251755Y181836D01*
X-251655Y181828D01*
X-251556Y181810D01*
X-251482Y181814D01*
X-251408Y181808D01*
X-251309Y181823D01*
X-251208Y181828D01*
X-251137Y181849D01*
X-251063Y181860D01*
X-250970Y181897D01*
X-250873Y181925D01*
X-250808Y181961D01*
X-250739Y181989D01*
X-250657Y182046D01*
X-250569Y182095D01*
X-250503Y182152D01*
X-250481Y182165D01*
X-250473Y182173D01*
X-250453Y182187D01*
X-250429Y182214D01*
X-250383Y182253D01*
X-250352Y182285D01*
X-239088Y182285D01*
X-238147Y181343D01*
X-238105Y181226D01*
X-238059Y181083D01*
X-238046Y181062D01*
X-238038Y181039D01*
X-237957Y180913D01*
X-237880Y180784D01*
X-237862Y180767D01*
X-237849Y180746D01*
X-237741Y180642D01*
X-237637Y180534D01*
X-237616Y180521D01*
X-237598Y180504D01*
X-237470Y180427D01*
X-237344Y180346D01*
X-237320Y180337D01*
X-237299Y180325D01*
X-237156Y180279D01*
X-237016Y180229D01*
X-236991Y180226D01*
X-236967Y180218D01*
X-236818Y180206D01*
X-236669Y180190D01*
X-236644Y180192D01*
X-236620Y180190D01*
X-236472Y180213D01*
X-236323Y180230D01*
X-236300Y180238D01*
X-236275Y180242D01*
X-236136Y180297D01*
X-235995Y180348D01*
X-235974Y180362D01*
X-235951Y180371D01*
X-235828Y180456D01*
X-235703Y180538D01*
X-235685Y180556D01*
X-235665Y180570D01*
X-235565Y180681D01*
X-235461Y180789D01*
X-235448Y180810D01*
X-235432Y180829D01*
X-235359Y180960D01*
X-235283Y181088D01*
X-235273Y181116D01*
X-235263Y181134D01*
X-235250Y181179D01*
X-235201Y181319D01*
X-235088Y181741D01*
X-234753Y182320D01*
X-234280Y182793D01*
X-233701Y183128D01*
X-233055Y183301D01*
X-230219Y183301D01*
X-230219Y176236D01*
X-230216Y176210D01*
X-230218Y176184D01*
X-230196Y176037D01*
X-230179Y175890D01*
X-230171Y175865D01*
X-230167Y175839D01*
X-230112Y175702D01*
X-230062Y175562D01*
X-230048Y175540D01*
X-230038Y175515D01*
X-229953Y175394D01*
X-229873Y175269D01*
X-229860Y175257D01*
X-229905Y175210D01*
X-229919Y175187D01*
X-229936Y175168D01*
X-230008Y175038D01*
X-230084Y174911D01*
X-230092Y174886D01*
X-230105Y174863D01*
X-230145Y174720D01*
X-230190Y174579D01*
X-230192Y174553D01*
X-230200Y174528D01*
X-230219Y174284D01*
X-230219Y167219D01*
X-231140Y167219D01*
X-231166Y167216D01*
X-231192Y167218D01*
X-231339Y167196D01*
X-231486Y167179D01*
X-231511Y167171D01*
X-231537Y167167D01*
X-231675Y167112D01*
X-231814Y167062D01*
X-231836Y167048D01*
X-231861Y167038D01*
X-231983Y166953D01*
X-232107Y166873D01*
X-232125Y166854D01*
X-232147Y166839D01*
X-232246Y166729D01*
X-232349Y166622D01*
X-232363Y166600D01*
X-232380Y166580D01*
X-232452Y166450D01*
X-232528Y166323D01*
X-232536Y166298D01*
X-232549Y166275D01*
X-232589Y166132D01*
X-232634Y165991D01*
X-232636Y165965D01*
X-232644Y165940D01*
X-232663Y165696D01*
X-232663Y163880D01*
X-232652Y163781D01*
X-232650Y163680D01*
X-232632Y163608D01*
X-232623Y163534D01*
X-232590Y163440D01*
X-232565Y163342D01*
X-232531Y163276D01*
X-232506Y163206D01*
X-232451Y163122D01*
X-232405Y163032D01*
X-232357Y162976D01*
X-232317Y162913D01*
X-232245Y162843D01*
X-232180Y162767D01*
X-232120Y162723D01*
X-232066Y162671D01*
X-231980Y162620D01*
X-231899Y162560D01*
X-231831Y162530D01*
X-231767Y162492D01*
X-231672Y162462D01*
X-231579Y162422D01*
X-231506Y162409D01*
X-231435Y162386D01*
X-231335Y162378D01*
X-231236Y162360D01*
X-231162Y162364D01*
X-231088Y162358D01*
X-230989Y162373D01*
X-230888Y162378D01*
X-230817Y162399D01*
X-230743Y162410D01*
X-230650Y162447D01*
X-230553Y162475D01*
X-230488Y162511D01*
X-230419Y162539D01*
X-230337Y162596D01*
X-230249Y162645D01*
X-230173Y162710D01*
X-230133Y162737D01*
X-230109Y162764D01*
X-230108Y162765D01*
X-223338Y162765D01*
X-222445Y161872D01*
X-222445Y160320D01*
X-222442Y160294D01*
X-222444Y160268D01*
X-222422Y160121D01*
X-222405Y159974D01*
X-222397Y159949D01*
X-222393Y159923D01*
X-222338Y159785D01*
X-222288Y159646D01*
X-222274Y159624D01*
X-222264Y159599D01*
X-222179Y159478D01*
X-222099Y159353D01*
X-222080Y159335D01*
X-222065Y159313D01*
X-221955Y159214D01*
X-221848Y159111D01*
X-221826Y159097D01*
X-221806Y159080D01*
X-221676Y159008D01*
X-221549Y158932D01*
X-221524Y158924D01*
X-221501Y158911D01*
X-221358Y158871D01*
X-221217Y158826D01*
X-221191Y158824D01*
X-221166Y158816D01*
X-221090Y158810D01*
X-201773Y139493D01*
X-201773Y131654D01*
X-201770Y131628D01*
X-201772Y131602D01*
X-201750Y131455D01*
X-201733Y131308D01*
X-201725Y131283D01*
X-201721Y131257D01*
X-201666Y131119D01*
X-201616Y130980D01*
X-201602Y130958D01*
X-201592Y130933D01*
X-201507Y130812D01*
X-201427Y130687D01*
X-201408Y130669D01*
X-201393Y130647D01*
X-201283Y130548D01*
X-201176Y130445D01*
X-201154Y130431D01*
X-201134Y130414D01*
X-201004Y130342D01*
X-200877Y130266D01*
X-200852Y130258D01*
X-200829Y130245D01*
X-200686Y130205D01*
X-200545Y130160D01*
X-200519Y130158D01*
X-200494Y130150D01*
X-200353Y130139D01*
X-200353Y119790D01*
X-200353Y109449D01*
X-200730Y109449D01*
X-201504Y109656D01*
X-202233Y110078D01*
X-202258Y110098D01*
X-202352Y110182D01*
X-202395Y110206D01*
X-202432Y110236D01*
X-202547Y110290D01*
X-202657Y110351D01*
X-202704Y110364D01*
X-202747Y110385D01*
X-202871Y110411D01*
X-202993Y110446D01*
X-203053Y110451D01*
X-203088Y110458D01*
X-203136Y110457D01*
X-203236Y110465D01*
X-207669Y110465D01*
X-208855Y111651D01*
X-208855Y117654D01*
X-208869Y117779D01*
X-208876Y117906D01*
X-208887Y117944D01*
X-208887Y135916D01*
X-208901Y136041D01*
X-208908Y136168D01*
X-208921Y136214D01*
X-208927Y136262D01*
X-208969Y136381D01*
X-209004Y136502D01*
X-209028Y136545D01*
X-209044Y136590D01*
X-209113Y136696D01*
X-209174Y136807D01*
X-209214Y136853D01*
X-209233Y136883D01*
X-209268Y136916D01*
X-209333Y136993D01*
X-220620Y148280D01*
X-220640Y148296D01*
X-220657Y148316D01*
X-220777Y148404D01*
X-220893Y148496D01*
X-220917Y148508D01*
X-220938Y148523D01*
X-221074Y148582D01*
X-221208Y148645D01*
X-221234Y148651D01*
X-221258Y148661D01*
X-221404Y148687D01*
X-221549Y148719D01*
X-221575Y148718D01*
X-221601Y148723D01*
X-221749Y148715D01*
X-221897Y148713D01*
X-221922Y148706D01*
X-221949Y148705D01*
X-222091Y148664D01*
X-222235Y148628D01*
X-222258Y148616D01*
X-222284Y148608D01*
X-222413Y148536D01*
X-222545Y148468D01*
X-222565Y148451D01*
X-222588Y148438D01*
X-222774Y148280D01*
X-223338Y147715D01*
X-230102Y147715D01*
X-230393Y148007D01*
X-230413Y148023D01*
X-230430Y148043D01*
X-230550Y148131D01*
X-230666Y148223D01*
X-230690Y148234D01*
X-230711Y148250D01*
X-230847Y148309D01*
X-230981Y148372D01*
X-231007Y148378D01*
X-231031Y148388D01*
X-231177Y148414D01*
X-231322Y148446D01*
X-231348Y148445D01*
X-231374Y148450D01*
X-231522Y148442D01*
X-231670Y148440D01*
X-231696Y148433D01*
X-231722Y148432D01*
X-231864Y148391D01*
X-232008Y148355D01*
X-232032Y148342D01*
X-232057Y148335D01*
X-232186Y148263D01*
X-232318Y148195D01*
X-232338Y148178D01*
X-232361Y148165D01*
X-232547Y148007D01*
X-232838Y147715D01*
X-239602Y147715D01*
X-239893Y148007D01*
X-239913Y148023D01*
X-239930Y148043D01*
X-240050Y148131D01*
X-240166Y148223D01*
X-240190Y148234D01*
X-240211Y148250D01*
X-240347Y148309D01*
X-240481Y148372D01*
X-240507Y148378D01*
X-240531Y148388D01*
X-240677Y148414D01*
X-240822Y148446D01*
X-240848Y148445D01*
X-240874Y148450D01*
X-241022Y148442D01*
X-241170Y148440D01*
X-241196Y148433D01*
X-241222Y148432D01*
X-241364Y148391D01*
X-241508Y148355D01*
X-241532Y148342D01*
X-241557Y148335D01*
X-241686Y148263D01*
X-241818Y148195D01*
X-241838Y148178D01*
X-241861Y148165D01*
X-242047Y148007D01*
X-242338Y147715D01*
X-249102Y147715D01*
X-249995Y148608D01*
X-249995Y150160D01*
X-249998Y150186D01*
X-249996Y150212D01*
X-250018Y150359D01*
X-250035Y150506D01*
X-250043Y150531D01*
X-250047Y150557D01*
X-250102Y150695D01*
X-250152Y150834D01*
X-250166Y150856D01*
X-250176Y150881D01*
X-250261Y151002D01*
X-250341Y151127D01*
X-250360Y151145D01*
X-250375Y151167D01*
X-250485Y151266D01*
X-250592Y151369D01*
X-250614Y151383D01*
X-250634Y151400D01*
X-250764Y151472D01*
X-250891Y151548D01*
X-250916Y151556D01*
X-250939Y151569D01*
X-251082Y151609D01*
X-251223Y151654D01*
X-251249Y151656D01*
X-251274Y151664D01*
X-251518Y151683D01*
X-253233Y151683D01*
X-257567Y156017D01*
X-258003Y156453D01*
X-258081Y156515D01*
X-258154Y156585D01*
X-258218Y156623D01*
X-258276Y156670D01*
X-258367Y156712D01*
X-258453Y156764D01*
X-258524Y156787D01*
X-258591Y156818D01*
X-258689Y156840D01*
X-258785Y156870D01*
X-258859Y156876D01*
X-258932Y156892D01*
X-259032Y156890D01*
X-259132Y156898D01*
X-259206Y156887D01*
X-259280Y156886D01*
X-259378Y156861D01*
X-259477Y156847D01*
X-259546Y156819D01*
X-259618Y156801D01*
X-259707Y156755D01*
X-259801Y156718D01*
X-259862Y156675D01*
X-259928Y156641D01*
X-260004Y156576D01*
X-260087Y156519D01*
X-260137Y156464D01*
X-260193Y156415D01*
X-260253Y156335D01*
X-260320Y156260D01*
X-260356Y156195D01*
X-260401Y156135D01*
X-260440Y156043D01*
X-260489Y155955D01*
X-260509Y155883D01*
X-260539Y155815D01*
X-260556Y155716D01*
X-260584Y155620D01*
X-260592Y155519D01*
X-260600Y155472D01*
X-260598Y155437D01*
X-260603Y155376D01*
X-260603Y146881D01*
X-260589Y146755D01*
X-260582Y146629D01*
X-260569Y146583D01*
X-260563Y146535D01*
X-260521Y146416D01*
X-260486Y146295D01*
X-260462Y146252D01*
X-260446Y146207D01*
X-260377Y146101D01*
X-260316Y145990D01*
X-260276Y145944D01*
X-260257Y145914D01*
X-260222Y145881D01*
X-260157Y145804D01*
X-259635Y145282D01*
X-259635Y125198D01*
X-260968Y123865D01*
X-263652Y123865D01*
X-263678Y123862D01*
X-263704Y123864D01*
X-263851Y123842D01*
X-263998Y123825D01*
X-264023Y123817D01*
X-264049Y123813D01*
X-264187Y123758D01*
X-264326Y123708D01*
X-264348Y123694D01*
X-264373Y123684D01*
X-264494Y123599D01*
X-264619Y123519D01*
X-264637Y123500D01*
X-264659Y123485D01*
X-264758Y123375D01*
X-264861Y123268D01*
X-264875Y123246D01*
X-264892Y123226D01*
X-264964Y123096D01*
X-265040Y122969D01*
X-265048Y122944D01*
X-265061Y122921D01*
X-265101Y122778D01*
X-265146Y122637D01*
X-265148Y122611D01*
X-265156Y122586D01*
X-265175Y122342D01*
X-265175Y98638D01*
X-265172Y98612D01*
X-265174Y98586D01*
X-265152Y98439D01*
X-265135Y98292D01*
X-265127Y98267D01*
X-265123Y98241D01*
X-265068Y98103D01*
X-265018Y97964D01*
X-265004Y97942D01*
X-264994Y97917D01*
X-264909Y97796D01*
X-264829Y97671D01*
X-264810Y97653D01*
X-264795Y97631D01*
X-264685Y97532D01*
X-264578Y97429D01*
X-264556Y97415D01*
X-264536Y97398D01*
X-264406Y97326D01*
X-264279Y97250D01*
X-264254Y97242D01*
X-264231Y97229D01*
X-264088Y97189D01*
X-263947Y97144D01*
X-263921Y97142D01*
X-263896Y97134D01*
X-263652Y97115D01*
X-260968Y97115D01*
X-259635Y95782D01*
X-259635Y90820D01*
X-259632Y90794D01*
X-259634Y90768D01*
X-259612Y90621D01*
X-259595Y90474D01*
X-259587Y90449D01*
X-259583Y90423D01*
X-259528Y90285D01*
X-259478Y90146D01*
X-259464Y90124D01*
X-259454Y90099D01*
X-259369Y89978D01*
X-259289Y89853D01*
X-259270Y89835D01*
X-259255Y89813D01*
X-259145Y89714D01*
X-259038Y89611D01*
X-259016Y89597D01*
X-258996Y89580D01*
X-258866Y89508D01*
X-258739Y89432D01*
X-258714Y89424D01*
X-258691Y89411D01*
X-258548Y89371D01*
X-258407Y89326D01*
X-258381Y89324D01*
X-258356Y89316D01*
X-258269Y89309D01*
X-251713Y82753D01*
X-251713Y73224D01*
X-251699Y73099D01*
X-251692Y72972D01*
X-251679Y72926D01*
X-251673Y72878D01*
X-251631Y72759D01*
X-251596Y72638D01*
X-251572Y72595D01*
X-251556Y72550D01*
X-251487Y72444D01*
X-251426Y72333D01*
X-251386Y72287D01*
X-251367Y72257D01*
X-251332Y72224D01*
X-251267Y72147D01*
X-250823Y71703D01*
X-250724Y71624D01*
X-250630Y71540D01*
X-250588Y71516D01*
X-250550Y71486D01*
X-250436Y71432D01*
X-250325Y71371D01*
X-250279Y71358D01*
X-250235Y71337D01*
X-250111Y71311D01*
X-249990Y71276D01*
X-249929Y71271D01*
X-249894Y71264D01*
X-249846Y71265D01*
X-249746Y71257D01*
X-248578Y71257D01*
X-248552Y71260D01*
X-248526Y71258D01*
X-248379Y71280D01*
X-248232Y71297D01*
X-248207Y71305D01*
X-248181Y71309D01*
X-248043Y71364D01*
X-247904Y71414D01*
X-247882Y71428D01*
X-247857Y71438D01*
X-247736Y71523D01*
X-247611Y71603D01*
X-247593Y71622D01*
X-247571Y71637D01*
X-247472Y71747D01*
X-247369Y71854D01*
X-247355Y71876D01*
X-247338Y71896D01*
X-247266Y72026D01*
X-247190Y72153D01*
X-247182Y72178D01*
X-247169Y72201D01*
X-247129Y72344D01*
X-247084Y72485D01*
X-247082Y72511D01*
X-247074Y72536D01*
X-247055Y72780D01*
X-247055Y73332D01*
X-246162Y74225D01*
X-233898Y74225D01*
X-233005Y73332D01*
X-233005Y72780D01*
X-233002Y72754D01*
X-233004Y72728D01*
X-232982Y72581D01*
X-232965Y72434D01*
X-232957Y72409D01*
X-232953Y72383D01*
X-232898Y72245D01*
X-232848Y72106D01*
X-232834Y72084D01*
X-232824Y72059D01*
X-232739Y71938D01*
X-232659Y71813D01*
X-232640Y71795D01*
X-232625Y71773D01*
X-232515Y71674D01*
X-232408Y71571D01*
X-232386Y71557D01*
X-232366Y71540D01*
X-232236Y71468D01*
X-232109Y71392D01*
X-232084Y71384D01*
X-232061Y71371D01*
X-231918Y71331D01*
X-231777Y71286D01*
X-231751Y71284D01*
X-231726Y71276D01*
X-231482Y71257D01*
X-226488Y71257D01*
X-226462Y71260D01*
X-226436Y71258D01*
X-226289Y71280D01*
X-226142Y71297D01*
X-226117Y71305D01*
X-226091Y71309D01*
X-225953Y71364D01*
X-225814Y71414D01*
X-225792Y71428D01*
X-225767Y71438D01*
X-225646Y71523D01*
X-225521Y71603D01*
X-225503Y71622D01*
X-225481Y71637D01*
X-225382Y71747D01*
X-225279Y71854D01*
X-225265Y71876D01*
X-225248Y71896D01*
X-225176Y72026D01*
X-225100Y72153D01*
X-225092Y72178D01*
X-225079Y72201D01*
X-225039Y72344D01*
X-224994Y72485D01*
X-224992Y72511D01*
X-224984Y72536D01*
X-224965Y72780D01*
X-224965Y73832D01*
X-224267Y74529D01*
X-224235Y74570D01*
X-224197Y74604D01*
X-224127Y74705D01*
X-224050Y74802D01*
X-224028Y74849D01*
X-223999Y74891D01*
X-223954Y75006D01*
X-223901Y75118D01*
X-223891Y75167D01*
X-223872Y75215D01*
X-223854Y75337D01*
X-223828Y75458D01*
X-223829Y75509D01*
X-223821Y75560D01*
X-223832Y75683D01*
X-223834Y75807D01*
X-223846Y75856D01*
X-223851Y75907D01*
X-223889Y76025D01*
X-223919Y76145D01*
X-223942Y76190D01*
X-223958Y76239D01*
X-224022Y76345D01*
X-224079Y76454D01*
X-224112Y76493D01*
X-224138Y76537D01*
X-224224Y76626D01*
X-224304Y76720D01*
X-224345Y76750D01*
X-224381Y76787D01*
X-224582Y76926D01*
X-225000Y77167D01*
X-225473Y77640D01*
X-225808Y78219D01*
X-225981Y78865D01*
X-225981Y82201D01*
X-219416Y82201D01*
X-219390Y82204D01*
X-219364Y82202D01*
X-219217Y82224D01*
X-219070Y82241D01*
X-219045Y82249D01*
X-219019Y82253D01*
X-218882Y82308D01*
X-218742Y82358D01*
X-218720Y82372D01*
X-218695Y82382D01*
X-218574Y82467D01*
X-218449Y82547D01*
X-218437Y82560D01*
X-218390Y82515D01*
X-218367Y82501D01*
X-218348Y82484D01*
X-218218Y82412D01*
X-218091Y82336D01*
X-218066Y82328D01*
X-218043Y82315D01*
X-217900Y82275D01*
X-217759Y82230D01*
X-217733Y82227D01*
X-217708Y82220D01*
X-217464Y82201D01*
X-210899Y82201D01*
X-210899Y78865D01*
X-211072Y78219D01*
X-211407Y77640D01*
X-211880Y77167D01*
X-212298Y76926D01*
X-212339Y76895D01*
X-212384Y76872D01*
X-212478Y76792D01*
X-212578Y76718D01*
X-212611Y76679D01*
X-212649Y76646D01*
X-212723Y76547D01*
X-212803Y76452D01*
X-212826Y76407D01*
X-212857Y76366D01*
X-212906Y76252D01*
X-212962Y76142D01*
X-212974Y76093D01*
X-212995Y76046D01*
X-213016Y75924D01*
X-213046Y75804D01*
X-213047Y75753D01*
X-213056Y75703D01*
X-213050Y75579D01*
X-213052Y75456D01*
X-213041Y75406D01*
X-213038Y75355D01*
X-213004Y75236D01*
X-212978Y75115D01*
X-212956Y75069D01*
X-212942Y75020D01*
X-212881Y74912D01*
X-212828Y74800D01*
X-212797Y74760D01*
X-212772Y74716D01*
X-212613Y74529D01*
X-211915Y73832D01*
X-211915Y72780D01*
X-211912Y72754D01*
X-211914Y72728D01*
X-211892Y72581D01*
X-211875Y72434D01*
X-211867Y72409D01*
X-211863Y72383D01*
X-211808Y72245D01*
X-211758Y72106D01*
X-211744Y72084D01*
X-211734Y72059D01*
X-211649Y71938D01*
X-211569Y71813D01*
X-211550Y71795D01*
X-211535Y71773D01*
X-211425Y71674D01*
X-211318Y71571D01*
X-211296Y71557D01*
X-211276Y71540D01*
X-211146Y71468D01*
X-211019Y71392D01*
X-210994Y71384D01*
X-210971Y71371D01*
X-210828Y71331D01*
X-210687Y71286D01*
X-210661Y71284D01*
X-210636Y71276D01*
X-210392Y71257D01*
X-206184Y71257D01*
X-206059Y71271D01*
X-205932Y71278D01*
X-205886Y71291D01*
X-205838Y71297D01*
X-205719Y71339D01*
X-205598Y71374D01*
X-205555Y71398D01*
X-205510Y71414D01*
X-205404Y71483D01*
X-205293Y71544D01*
X-205247Y71584D01*
X-205217Y71603D01*
X-205184Y71638D01*
X-205107Y71703D01*
X-197020Y79790D01*
X-196941Y79889D01*
X-196857Y79983D01*
X-196833Y80025D01*
X-196803Y80063D01*
X-196749Y80177D01*
X-196688Y80288D01*
X-196675Y80334D01*
X-196655Y80378D01*
X-196628Y80501D01*
X-196594Y80623D01*
X-196589Y80684D01*
X-196581Y80719D01*
X-196582Y80767D01*
X-196574Y80867D01*
X-196574Y87771D01*
X-196588Y87897D01*
X-196595Y88023D01*
X-196608Y88069D01*
X-196614Y88117D01*
X-196656Y88236D01*
X-196691Y88358D01*
X-196715Y88400D01*
X-196731Y88445D01*
X-196800Y88552D01*
X-196862Y88662D01*
X-196901Y88708D01*
X-196920Y88738D01*
X-196955Y88772D01*
X-197020Y88848D01*
X-198149Y89977D01*
X-198248Y90056D01*
X-198342Y90140D01*
X-198384Y90164D01*
X-198422Y90194D01*
X-198536Y90248D01*
X-198647Y90309D01*
X-198693Y90322D01*
X-198737Y90343D01*
X-198860Y90369D01*
X-198982Y90404D01*
X-199043Y90409D01*
X-199078Y90416D01*
X-199126Y90415D01*
X-199226Y90423D01*
X-205943Y90423D01*
X-208863Y93343D01*
X-208980Y93436D01*
X-209094Y93533D01*
X-209117Y93544D01*
X-209136Y93560D01*
X-209271Y93624D01*
X-209405Y93692D01*
X-209429Y93698D01*
X-209451Y93709D01*
X-209597Y93740D01*
X-209743Y93776D01*
X-209768Y93777D01*
X-209792Y93782D01*
X-209941Y93779D01*
X-210091Y93782D01*
X-210115Y93776D01*
X-210140Y93776D01*
X-210285Y93739D01*
X-210432Y93708D01*
X-210454Y93697D01*
X-210478Y93691D01*
X-210612Y93622D01*
X-210747Y93558D01*
X-210766Y93543D01*
X-210788Y93531D01*
X-210902Y93434D01*
X-211019Y93341D01*
X-211035Y93322D01*
X-211053Y93305D01*
X-211143Y93185D01*
X-211235Y93068D01*
X-211246Y93045D01*
X-211261Y93025D01*
X-211320Y92888D01*
X-211384Y92752D01*
X-211389Y92728D01*
X-211399Y92705D01*
X-211425Y92558D01*
X-211456Y92411D01*
X-211456Y92387D01*
X-211460Y92362D01*
X-211453Y92213D01*
X-211450Y92063D01*
X-211444Y92039D01*
X-211442Y92014D01*
X-211401Y91870D01*
X-211364Y91725D01*
X-211351Y91698D01*
X-211346Y91679D01*
X-211323Y91638D01*
X-211259Y91504D01*
X-211072Y91181D01*
X-210899Y90535D01*
X-210899Y87199D01*
X-215941Y87199D01*
X-215941Y92741D01*
X-214023Y92741D01*
X-213973Y92746D01*
X-213923Y92744D01*
X-213800Y92766D01*
X-213677Y92781D01*
X-213629Y92798D01*
X-213580Y92807D01*
X-213466Y92856D01*
X-213349Y92898D01*
X-213306Y92925D01*
X-213260Y92946D01*
X-213160Y93020D01*
X-213056Y93087D01*
X-213021Y93123D01*
X-212980Y93153D01*
X-212900Y93248D01*
X-212814Y93338D01*
X-212788Y93381D01*
X-212755Y93419D01*
X-212698Y93530D01*
X-212635Y93637D01*
X-212619Y93685D01*
X-212596Y93730D01*
X-212566Y93850D01*
X-212529Y93969D01*
X-212524Y94019D01*
X-212512Y94068D01*
X-212511Y94192D01*
X-212501Y94316D01*
X-212508Y94366D01*
X-212507Y94416D01*
X-212534Y94538D01*
X-212552Y94661D01*
X-212571Y94708D01*
X-212582Y94757D01*
X-212635Y94869D01*
X-212681Y94985D01*
X-212710Y95026D01*
X-212731Y95072D01*
X-212809Y95169D01*
X-212880Y95271D01*
X-212917Y95305D01*
X-212949Y95344D01*
X-213046Y95421D01*
X-213139Y95504D01*
X-213183Y95529D01*
X-213222Y95560D01*
X-213440Y95671D01*
X-213826Y95831D01*
X-215319Y97324D01*
X-216128Y99277D01*
X-216141Y99392D01*
X-216147Y99517D01*
X-216161Y99565D01*
X-216167Y99614D01*
X-216209Y99732D01*
X-216243Y99852D01*
X-216267Y99895D01*
X-216284Y99942D01*
X-216352Y100047D01*
X-216413Y100157D01*
X-216446Y100193D01*
X-216473Y100235D01*
X-216563Y100322D01*
X-216647Y100415D01*
X-216688Y100443D01*
X-216724Y100477D01*
X-216831Y100541D01*
X-216934Y100612D01*
X-216980Y100631D01*
X-217023Y100656D01*
X-217142Y100694D01*
X-217259Y100740D01*
X-217308Y100747D01*
X-217355Y100762D01*
X-217480Y100772D01*
X-217603Y100790D01*
X-217653Y100786D01*
X-217702Y100790D01*
X-217826Y100772D01*
X-217951Y100761D01*
X-217998Y100746D01*
X-218047Y100739D01*
X-218163Y100692D01*
X-218282Y100654D01*
X-218325Y100628D01*
X-218371Y100610D01*
X-218473Y100538D01*
X-218581Y100474D01*
X-218616Y100439D01*
X-218657Y100411D01*
X-218741Y100318D01*
X-218830Y100231D01*
X-218866Y100179D01*
X-218890Y100152D01*
X-218897Y100140D01*
X-219390Y99647D01*
X-219969Y99312D01*
X-220615Y99139D01*
X-223951Y99139D01*
X-223951Y104181D01*
X-218409Y104181D01*
X-218409Y103533D01*
X-218404Y103483D01*
X-218406Y103433D01*
X-218384Y103310D01*
X-218369Y103187D01*
X-218352Y103139D01*
X-218343Y103090D01*
X-218294Y102976D01*
X-218252Y102859D01*
X-218225Y102816D01*
X-218204Y102770D01*
X-218130Y102670D01*
X-218063Y102566D01*
X-218027Y102531D01*
X-217997Y102490D01*
X-217901Y102410D01*
X-217812Y102324D01*
X-217769Y102298D01*
X-217731Y102265D01*
X-217620Y102208D01*
X-217513Y102145D01*
X-217465Y102129D01*
X-217420Y102106D01*
X-217300Y102076D01*
X-217181Y102039D01*
X-217131Y102034D01*
X-217082Y102022D01*
X-216958Y102021D01*
X-216834Y102011D01*
X-216784Y102018D01*
X-216734Y102017D01*
X-216612Y102044D01*
X-216489Y102062D01*
X-216442Y102081D01*
X-216393Y102092D01*
X-216281Y102145D01*
X-216165Y102191D01*
X-216124Y102220D01*
X-216078Y102241D01*
X-215981Y102319D01*
X-215879Y102390D01*
X-215845Y102427D01*
X-215806Y102459D01*
X-215729Y102556D01*
X-215646Y102649D01*
X-215621Y102693D01*
X-215590Y102732D01*
X-215479Y102950D01*
X-215319Y103336D01*
X-213826Y104829D01*
X-211876Y105637D01*
X-209764Y105637D01*
X-207814Y104829D01*
X-206321Y103336D01*
X-205513Y101386D01*
X-205513Y100684D01*
X-205499Y100559D01*
X-205492Y100432D01*
X-205479Y100386D01*
X-205473Y100338D01*
X-205431Y100219D01*
X-205396Y100098D01*
X-205372Y100055D01*
X-205356Y100010D01*
X-205287Y99904D01*
X-205226Y99793D01*
X-205186Y99747D01*
X-205167Y99717D01*
X-205132Y99684D01*
X-205067Y99607D01*
X-203443Y97983D01*
X-203344Y97904D01*
X-203250Y97820D01*
X-203208Y97796D01*
X-203170Y97766D01*
X-203056Y97712D01*
X-202945Y97651D01*
X-202898Y97638D01*
X-202855Y97617D01*
X-202731Y97591D01*
X-202610Y97556D01*
X-202549Y97551D01*
X-202514Y97544D01*
X-202466Y97545D01*
X-202366Y97537D01*
X-161798Y97537D01*
X-161772Y97540D01*
X-161746Y97538D01*
X-161599Y97560D01*
X-161452Y97577D01*
X-161427Y97585D01*
X-161401Y97589D01*
X-161263Y97644D01*
X-161124Y97694D01*
X-161102Y97708D01*
X-161077Y97718D01*
X-160956Y97803D01*
X-160831Y97883D01*
X-160813Y97902D01*
X-160791Y97917D01*
X-160692Y98027D01*
X-160589Y98134D01*
X-160575Y98156D01*
X-160558Y98176D01*
X-160486Y98306D01*
X-160410Y98433D01*
X-160402Y98458D01*
X-160389Y98481D01*
X-160349Y98624D01*
X-160304Y98765D01*
X-160302Y98791D01*
X-160294Y98816D01*
X-160275Y99060D01*
X-160275Y100962D01*
X-159382Y101855D01*
X-151556Y101855D01*
X-151456Y101866D01*
X-151356Y101868D01*
X-151284Y101886D01*
X-151210Y101895D01*
X-151115Y101928D01*
X-151018Y101953D01*
X-150952Y101987D01*
X-150882Y102012D01*
X-150797Y102067D01*
X-150708Y102113D01*
X-150651Y102161D01*
X-150589Y102201D01*
X-150519Y102273D01*
X-150443Y102338D01*
X-150399Y102398D01*
X-150347Y102452D01*
X-150295Y102538D01*
X-150236Y102619D01*
X-150206Y102687D01*
X-150168Y102751D01*
X-150137Y102846D01*
X-150098Y102939D01*
X-150084Y103012D01*
X-150062Y103083D01*
X-150054Y103183D01*
X-150036Y103282D01*
X-150040Y103356D01*
X-150034Y103430D01*
X-150049Y103529D01*
X-150054Y103630D01*
X-150074Y103701D01*
X-150085Y103775D01*
X-150123Y103868D01*
X-150150Y103965D01*
X-150187Y104030D01*
X-150214Y104099D01*
X-150271Y104181D01*
X-150321Y104269D01*
X-150386Y104345D01*
X-150413Y104385D01*
X-150440Y104409D01*
X-150479Y104455D01*
X-150986Y104962D01*
X-151794Y106912D01*
X-151794Y109023D01*
X-151007Y110923D01*
X-150965Y111068D01*
X-150920Y111211D01*
X-150918Y111235D01*
X-150911Y111258D01*
X-150904Y111409D01*
X-150892Y111558D01*
X-150895Y111582D01*
X-150894Y111606D01*
X-150921Y111754D01*
X-150943Y111903D01*
X-150952Y111925D01*
X-150957Y111949D01*
X-151017Y112087D01*
X-151072Y112227D01*
X-151086Y112247D01*
X-151096Y112269D01*
X-151185Y112390D01*
X-151271Y112513D01*
X-151289Y112529D01*
X-151303Y112549D01*
X-151418Y112646D01*
X-151530Y112746D01*
X-151551Y112758D01*
X-151569Y112774D01*
X-151703Y112842D01*
X-151835Y112915D01*
X-151858Y112921D01*
X-151880Y112932D01*
X-152025Y112969D01*
X-152170Y113010D01*
X-152199Y113012D01*
X-152218Y113017D01*
X-152265Y113017D01*
X-152414Y113029D01*
X-159085Y113029D01*
X-159731Y113202D01*
X-160310Y113537D01*
X-160783Y114010D01*
X-161118Y114589D01*
X-161291Y115235D01*
X-161291Y118873D01*
X-147574Y118873D01*
X-147548Y118876D01*
X-147522Y118874D01*
X-147375Y118896D01*
X-147228Y118913D01*
X-147203Y118921D01*
X-147177Y118925D01*
X-147039Y118980D01*
X-146900Y119030D01*
X-146878Y119044D01*
X-146853Y119054D01*
X-146732Y119139D01*
X-146607Y119219D01*
X-146589Y119238D01*
X-146567Y119253D01*
X-146468Y119363D01*
X-146365Y119470D01*
X-146351Y119492D01*
X-146334Y119512D01*
X-146262Y119642D01*
X-146186Y119769D01*
X-146178Y119794D01*
X-146165Y119817D01*
X-146125Y119960D01*
X-146080Y120101D01*
X-146078Y120127D01*
X-146070Y120152D01*
X-146051Y120396D01*
X-146051Y121921D01*
X-146049Y121921D01*
X-146049Y120396D01*
X-146046Y120370D01*
X-146048Y120344D01*
X-146026Y120196D01*
X-146009Y120050D01*
X-146000Y120025D01*
X-145997Y119999D01*
X-145942Y119861D01*
X-145892Y119722D01*
X-145878Y119700D01*
X-145868Y119675D01*
X-145783Y119554D01*
X-145703Y119429D01*
X-145684Y119411D01*
X-145669Y119389D01*
X-145559Y119290D01*
X-145452Y119187D01*
X-145430Y119173D01*
X-145410Y119156D01*
X-145280Y119084D01*
X-145153Y119008D01*
X-145128Y119000D01*
X-145105Y118987D01*
X-144962Y118947D01*
X-144821Y118902D01*
X-144795Y118900D01*
X-144770Y118892D01*
X-144526Y118873D01*
X-130809Y118873D01*
X-130809Y115235D01*
X-130982Y114589D01*
X-131317Y114010D01*
X-131790Y113537D01*
X-132369Y113202D01*
X-133015Y113029D01*
X-140560Y113029D01*
X-140709Y113012D01*
X-140859Y113000D01*
X-140882Y112992D01*
X-140906Y112989D01*
X-141047Y112939D01*
X-141191Y112893D01*
X-141211Y112880D01*
X-141234Y112872D01*
X-141361Y112790D01*
X-141489Y112713D01*
X-141506Y112696D01*
X-141527Y112683D01*
X-141631Y112575D01*
X-141739Y112470D01*
X-141752Y112450D01*
X-141769Y112432D01*
X-141846Y112303D01*
X-141927Y112177D01*
X-141936Y112154D01*
X-141948Y112133D01*
X-141994Y111990D01*
X-142044Y111848D01*
X-142047Y111824D01*
X-142054Y111801D01*
X-142066Y111652D01*
X-142083Y111502D01*
X-142080Y111478D01*
X-142082Y111454D01*
X-142060Y111306D01*
X-142042Y111156D01*
X-142033Y111128D01*
X-142030Y111109D01*
X-142013Y111066D01*
X-141967Y110923D01*
X-141180Y109023D01*
X-141180Y106912D01*
X-141988Y104962D01*
X-142495Y104455D01*
X-142557Y104377D01*
X-142627Y104304D01*
X-142665Y104240D01*
X-142711Y104182D01*
X-142754Y104091D01*
X-142806Y104005D01*
X-142828Y103934D01*
X-142860Y103867D01*
X-142881Y103769D01*
X-142912Y103673D01*
X-142918Y103599D01*
X-142934Y103526D01*
X-142932Y103426D01*
X-142940Y103326D01*
X-142929Y103252D01*
X-142928Y103178D01*
X-142903Y103081D01*
X-142888Y102981D01*
X-142861Y102912D01*
X-142843Y102840D01*
X-142797Y102751D01*
X-142760Y102657D01*
X-142717Y102596D01*
X-142683Y102530D01*
X-142618Y102453D01*
X-142561Y102371D01*
X-142505Y102321D01*
X-142457Y102265D01*
X-142376Y102205D01*
X-142302Y102138D01*
X-142237Y102102D01*
X-142177Y102057D01*
X-142085Y102018D01*
X-141997Y101969D01*
X-141925Y101949D01*
X-141857Y101919D01*
X-141758Y101902D01*
X-141661Y101874D01*
X-141561Y101866D01*
X-141514Y101858D01*
X-141478Y101860D01*
X-141418Y101855D01*
X-132718Y101855D01*
X-131825Y100962D01*
X-131825Y86998D01*
X-132718Y86105D01*
X-159382Y86105D01*
X-160275Y86998D01*
X-160275Y88900D01*
X-160278Y88926D01*
X-160276Y88952D01*
X-160298Y89099D01*
X-160315Y89246D01*
X-160323Y89271D01*
X-160327Y89297D01*
X-160382Y89435D01*
X-160432Y89574D01*
X-160446Y89596D01*
X-160456Y89621D01*
X-160541Y89742D01*
X-160621Y89867D01*
X-160640Y89885D01*
X-160655Y89907D01*
X-160765Y90006D01*
X-160872Y90109D01*
X-160894Y90123D01*
X-160914Y90140D01*
X-161044Y90212D01*
X-161171Y90288D01*
X-161196Y90296D01*
X-161219Y90309D01*
X-161362Y90349D01*
X-161503Y90394D01*
X-161529Y90396D01*
X-161554Y90404D01*
X-161798Y90423D01*
X-175696Y90423D01*
X-175821Y90409D01*
X-175948Y90402D01*
X-175994Y90389D01*
X-176042Y90383D01*
X-176161Y90341D01*
X-176283Y90306D01*
X-176325Y90282D01*
X-176370Y90266D01*
X-176476Y90197D01*
X-176587Y90136D01*
X-176633Y90096D01*
X-176663Y90077D01*
X-176696Y90042D01*
X-176773Y89977D01*
X-181543Y85207D01*
X-191990Y74760D01*
X-196147Y70603D01*
X-196178Y70563D01*
X-196216Y70530D01*
X-196287Y70427D01*
X-196364Y70330D01*
X-196385Y70284D01*
X-196414Y70243D01*
X-196460Y70127D01*
X-196513Y70015D01*
X-196523Y69966D01*
X-196542Y69919D01*
X-196560Y69796D01*
X-196586Y69674D01*
X-196585Y69624D01*
X-196593Y69574D01*
X-196582Y69450D01*
X-196580Y69326D01*
X-196568Y69277D01*
X-196564Y69227D01*
X-196525Y69108D01*
X-196495Y68988D01*
X-196472Y68943D01*
X-196457Y68895D01*
X-196393Y68788D01*
X-196335Y68678D01*
X-196303Y68639D01*
X-196277Y68596D01*
X-196190Y68507D01*
X-196110Y68412D01*
X-196069Y68382D01*
X-196034Y68346D01*
X-195929Y68279D01*
X-195829Y68205D01*
X-195783Y68185D01*
X-195741Y68158D01*
X-195624Y68117D01*
X-195509Y68067D01*
X-195460Y68058D01*
X-195412Y68041D01*
X-195289Y68028D01*
X-195166Y68006D01*
X-195116Y68008D01*
X-195066Y68003D01*
X-194942Y68017D01*
X-194818Y68023D01*
X-194770Y68037D01*
X-194720Y68043D01*
X-194487Y68118D01*
X-194483Y68120D01*
X-192826Y68807D01*
X-190714Y68807D01*
X-188764Y67999D01*
X-188268Y67503D01*
X-188169Y67424D01*
X-188075Y67340D01*
X-188033Y67316D01*
X-187995Y67286D01*
X-187881Y67232D01*
X-187770Y67171D01*
X-187724Y67158D01*
X-187680Y67137D01*
X-187557Y67111D01*
X-187435Y67076D01*
X-187374Y67071D01*
X-187339Y67064D01*
X-187291Y67065D01*
X-187191Y67057D01*
X-175057Y67057D01*
X-167893Y59893D01*
X-167893Y52608D01*
X-167890Y52582D01*
X-167892Y52556D01*
X-167870Y52409D01*
X-167853Y52262D01*
X-167845Y52237D01*
X-167841Y52211D01*
X-167786Y52073D01*
X-167736Y51934D01*
X-167722Y51912D01*
X-167712Y51887D01*
X-167627Y51766D01*
X-167547Y51641D01*
X-167528Y51623D01*
X-167513Y51601D01*
X-167403Y51502D01*
X-167296Y51399D01*
X-167274Y51385D01*
X-167254Y51368D01*
X-167124Y51296D01*
X-166997Y51220D01*
X-166972Y51212D01*
X-166949Y51199D01*
X-166806Y51159D01*
X-166665Y51114D01*
X-166639Y51112D01*
X-166614Y51104D01*
X-166370Y51085D01*
X-165818Y51085D01*
X-164925Y50192D01*
X-164925Y49140D01*
X-164922Y49114D01*
X-164924Y49088D01*
X-164902Y48941D01*
X-164885Y48794D01*
X-164877Y48769D01*
X-164873Y48743D01*
X-164818Y48605D01*
X-164768Y48466D01*
X-164754Y48444D01*
X-164744Y48419D01*
X-164659Y48298D01*
X-164579Y48173D01*
X-164560Y48155D01*
X-164545Y48133D01*
X-164435Y48034D01*
X-164328Y47931D01*
X-164306Y47917D01*
X-164286Y47900D01*
X-164156Y47828D01*
X-164029Y47752D01*
X-164004Y47744D01*
X-163981Y47731D01*
X-163838Y47691D01*
X-163697Y47646D01*
X-163671Y47644D01*
X-163646Y47636D01*
X-163402Y47617D01*
X-153077Y47617D01*
X-147065Y41605D01*
X-147065Y41148D01*
X-147062Y41122D01*
X-147064Y41096D01*
X-147042Y40949D01*
X-147025Y40802D01*
X-147017Y40777D01*
X-147013Y40751D01*
X-146958Y40613D01*
X-146908Y40474D01*
X-146894Y40452D01*
X-146884Y40427D01*
X-146799Y40306D01*
X-146719Y40181D01*
X-146700Y40163D01*
X-146685Y40141D01*
X-146575Y40042D01*
X-146468Y39939D01*
X-146446Y39925D01*
X-146426Y39908D01*
X-146296Y39836D01*
X-146169Y39760D01*
X-146144Y39752D01*
X-146121Y39739D01*
X-145978Y39699D01*
X-145837Y39654D01*
X-145811Y39652D01*
X-145786Y39644D01*
X-145542Y39625D01*
X-143386Y39625D01*
X-142493Y38732D01*
X-142493Y32388D01*
X-143386Y31495D01*
X-157858Y31495D01*
X-158751Y32388D01*
X-158751Y38980D01*
X-158754Y39006D01*
X-158752Y39032D01*
X-158774Y39179D01*
X-158791Y39326D01*
X-158799Y39351D01*
X-158803Y39377D01*
X-158858Y39515D01*
X-158908Y39654D01*
X-158922Y39676D01*
X-158932Y39701D01*
X-159017Y39822D01*
X-159097Y39947D01*
X-159116Y39965D01*
X-159131Y39987D01*
X-159241Y40086D01*
X-159348Y40189D01*
X-159370Y40203D01*
X-159390Y40220D01*
X-159520Y40292D01*
X-159647Y40368D01*
X-159672Y40376D01*
X-159695Y40389D01*
X-159838Y40429D01*
X-159979Y40474D01*
X-160005Y40476D01*
X-160030Y40484D01*
X-160274Y40503D01*
X-163402Y40503D01*
X-163428Y40500D01*
X-163454Y40502D01*
X-163601Y40480D01*
X-163748Y40463D01*
X-163773Y40455D01*
X-163799Y40451D01*
X-163937Y40396D01*
X-164076Y40346D01*
X-164098Y40332D01*
X-164123Y40322D01*
X-164244Y40237D01*
X-164369Y40157D01*
X-164387Y40138D01*
X-164409Y40123D01*
X-164508Y40013D01*
X-164611Y39906D01*
X-164625Y39884D01*
X-164642Y39864D01*
X-164714Y39734D01*
X-164790Y39607D01*
X-164798Y39582D01*
X-164811Y39559D01*
X-164851Y39416D01*
X-164896Y39275D01*
X-164898Y39249D01*
X-164906Y39224D01*
X-164925Y38980D01*
X-164925Y37928D01*
X-165623Y37231D01*
X-165655Y37190D01*
X-165693Y37156D01*
X-165763Y37055D01*
X-165840Y36958D01*
X-165862Y36911D01*
X-165891Y36869D01*
X-165936Y36754D01*
X-165989Y36642D01*
X-165999Y36593D01*
X-166018Y36545D01*
X-166036Y36423D01*
X-166062Y36302D01*
X-166061Y36251D01*
X-166069Y36200D01*
X-166058Y36077D01*
X-166056Y35953D01*
X-166044Y35904D01*
X-166039Y35853D01*
X-166001Y35735D01*
X-165971Y35615D01*
X-165948Y35570D01*
X-165932Y35521D01*
X-165868Y35415D01*
X-165811Y35306D01*
X-165778Y35267D01*
X-165752Y35223D01*
X-165666Y35134D01*
X-165586Y35040D01*
X-165545Y35010D01*
X-165509Y34973D01*
X-165308Y34834D01*
X-164890Y34593D01*
X-164417Y34120D01*
X-164082Y33541D01*
X-163909Y32895D01*
X-163909Y29559D01*
X-170474Y29559D01*
X-170500Y29556D01*
X-170526Y29558D01*
X-170673Y29536D01*
X-170820Y29519D01*
X-170845Y29511D01*
X-170871Y29507D01*
X-171008Y29452D01*
X-171148Y29402D01*
X-171170Y29388D01*
X-171195Y29378D01*
X-171316Y29293D01*
X-171441Y29213D01*
X-171453Y29200D01*
X-171500Y29245D01*
X-171523Y29259D01*
X-171542Y29276D01*
X-171672Y29348D01*
X-171799Y29424D01*
X-171824Y29432D01*
X-171847Y29445D01*
X-171990Y29485D01*
X-172131Y29530D01*
X-172157Y29532D01*
X-172182Y29540D01*
X-172426Y29559D01*
X-178991Y29559D01*
X-178991Y32895D01*
X-178818Y33541D01*
X-178483Y34120D01*
X-178010Y34593D01*
X-177592Y34834D01*
X-177551Y34865D01*
X-177506Y34888D01*
X-177412Y34968D01*
X-177312Y35042D01*
X-177279Y35081D01*
X-177241Y35114D01*
X-177167Y35213D01*
X-177087Y35308D01*
X-177064Y35353D01*
X-177033Y35394D01*
X-176984Y35508D01*
X-176928Y35618D01*
X-176916Y35667D01*
X-176895Y35714D01*
X-176874Y35836D01*
X-176844Y35956D01*
X-176843Y36007D01*
X-176834Y36057D01*
X-176840Y36181D01*
X-176838Y36304D01*
X-176849Y36354D01*
X-176852Y36405D01*
X-176886Y36524D01*
X-176912Y36645D01*
X-176934Y36691D01*
X-176948Y36740D01*
X-177009Y36848D01*
X-177062Y36960D01*
X-177093Y37000D01*
X-177118Y37044D01*
X-177277Y37231D01*
X-177975Y37928D01*
X-177975Y50192D01*
X-177082Y51085D01*
X-176530Y51085D01*
X-176504Y51088D01*
X-176478Y51086D01*
X-176331Y51108D01*
X-176184Y51125D01*
X-176159Y51133D01*
X-176133Y51137D01*
X-175995Y51192D01*
X-175856Y51242D01*
X-175834Y51256D01*
X-175809Y51266D01*
X-175688Y51351D01*
X-175563Y51431D01*
X-175545Y51450D01*
X-175523Y51465D01*
X-175424Y51575D01*
X-175321Y51682D01*
X-175307Y51704D01*
X-175290Y51724D01*
X-175218Y51854D01*
X-175142Y51981D01*
X-175134Y52006D01*
X-175121Y52029D01*
X-175081Y52172D01*
X-175036Y52313D01*
X-175034Y52339D01*
X-175026Y52364D01*
X-175007Y52608D01*
X-175007Y56316D01*
X-175021Y56441D01*
X-175028Y56568D01*
X-175041Y56614D01*
X-175047Y56662D01*
X-175089Y56781D01*
X-175124Y56902D01*
X-175148Y56945D01*
X-175164Y56990D01*
X-175233Y57096D01*
X-175294Y57207D01*
X-175334Y57253D01*
X-175353Y57283D01*
X-175388Y57316D01*
X-175453Y57393D01*
X-177557Y59497D01*
X-177656Y59576D01*
X-177750Y59660D01*
X-177792Y59684D01*
X-177830Y59714D01*
X-177944Y59768D01*
X-178055Y59829D01*
X-178102Y59842D01*
X-178145Y59863D01*
X-178269Y59889D01*
X-178390Y59924D01*
X-178451Y59929D01*
X-178486Y59936D01*
X-178534Y59935D01*
X-178634Y59943D01*
X-187191Y59943D01*
X-187317Y59929D01*
X-187443Y59922D01*
X-187489Y59909D01*
X-187537Y59903D01*
X-187656Y59861D01*
X-187778Y59826D01*
X-187820Y59802D01*
X-187865Y59786D01*
X-187971Y59717D01*
X-188082Y59656D01*
X-188128Y59616D01*
X-188158Y59597D01*
X-188192Y59562D01*
X-188268Y59497D01*
X-188764Y59001D01*
X-190714Y58193D01*
X-192826Y58193D01*
X-194776Y59001D01*
X-196269Y60494D01*
X-197077Y62444D01*
X-197077Y64556D01*
X-196388Y66217D01*
X-196375Y66266D01*
X-196353Y66311D01*
X-196327Y66433D01*
X-196293Y66552D01*
X-196290Y66603D01*
X-196280Y66652D01*
X-196282Y66776D01*
X-196276Y66900D01*
X-196285Y66950D01*
X-196286Y67000D01*
X-196316Y67121D01*
X-196338Y67243D01*
X-196358Y67289D01*
X-196371Y67338D01*
X-196428Y67449D01*
X-196477Y67563D01*
X-196507Y67603D01*
X-196530Y67648D01*
X-196611Y67743D01*
X-196685Y67843D01*
X-196724Y67875D01*
X-196756Y67913D01*
X-196856Y67987D01*
X-196951Y68068D01*
X-196996Y68091D01*
X-197036Y68121D01*
X-197151Y68170D01*
X-197261Y68227D01*
X-197310Y68239D01*
X-197357Y68259D01*
X-197479Y68281D01*
X-197600Y68311D01*
X-197650Y68311D01*
X-197700Y68320D01*
X-197824Y68314D01*
X-197948Y68316D01*
X-197997Y68305D01*
X-198048Y68302D01*
X-198167Y68268D01*
X-198289Y68241D01*
X-198334Y68220D01*
X-198382Y68206D01*
X-198491Y68145D01*
X-198603Y68092D01*
X-198643Y68060D01*
X-198687Y68036D01*
X-198873Y67877D01*
X-198876Y67874D01*
X-202607Y64143D01*
X-210392Y64143D01*
X-210418Y64140D01*
X-210444Y64142D01*
X-210591Y64120D01*
X-210738Y64103D01*
X-210763Y64095D01*
X-210789Y64091D01*
X-210927Y64036D01*
X-211066Y63986D01*
X-211088Y63972D01*
X-211113Y63962D01*
X-211234Y63877D01*
X-211359Y63797D01*
X-211377Y63778D01*
X-211399Y63763D01*
X-211498Y63653D01*
X-211601Y63546D01*
X-211615Y63524D01*
X-211632Y63504D01*
X-211704Y63374D01*
X-211780Y63247D01*
X-211788Y63222D01*
X-211801Y63199D01*
X-211841Y63056D01*
X-211886Y62915D01*
X-211888Y62889D01*
X-211896Y62864D01*
X-211915Y62620D01*
X-211915Y61568D01*
X-212808Y60675D01*
X-224072Y60675D01*
X-224965Y61568D01*
X-224965Y62620D01*
X-224968Y62646D01*
X-224966Y62672D01*
X-224988Y62819D01*
X-225005Y62966D01*
X-225013Y62991D01*
X-225017Y63017D01*
X-225072Y63155D01*
X-225122Y63294D01*
X-225136Y63316D01*
X-225146Y63341D01*
X-225231Y63462D01*
X-225311Y63587D01*
X-225330Y63605D01*
X-225345Y63627D01*
X-225455Y63726D01*
X-225562Y63829D01*
X-225584Y63843D01*
X-225604Y63860D01*
X-225734Y63932D01*
X-225861Y64008D01*
X-225886Y64016D01*
X-225909Y64029D01*
X-226052Y64069D01*
X-226193Y64114D01*
X-226219Y64116D01*
X-226244Y64124D01*
X-226488Y64143D01*
X-231482Y64143D01*
X-231508Y64140D01*
X-231534Y64142D01*
X-231681Y64120D01*
X-231828Y64103D01*
X-231853Y64095D01*
X-231879Y64091D01*
X-232017Y64036D01*
X-232156Y63986D01*
X-232178Y63972D01*
X-232203Y63962D01*
X-232324Y63877D01*
X-232449Y63797D01*
X-232467Y63778D01*
X-232489Y63763D01*
X-232588Y63653D01*
X-232691Y63546D01*
X-232705Y63524D01*
X-232722Y63504D01*
X-232794Y63374D01*
X-232870Y63247D01*
X-232878Y63222D01*
X-232891Y63199D01*
X-232931Y63056D01*
X-232976Y62915D01*
X-232978Y62889D01*
X-232986Y62864D01*
X-233005Y62620D01*
X-233005Y62068D01*
X-233898Y61175D01*
X-243840Y61175D01*
X-243866Y61172D01*
X-243892Y61174D01*
X-244039Y61152D01*
X-244186Y61135D01*
X-244211Y61127D01*
X-244237Y61123D01*
X-244375Y61068D01*
X-244514Y61018D01*
X-244536Y61004D01*
X-244561Y60994D01*
X-244682Y60909D01*
X-244807Y60829D01*
X-244825Y60810D01*
X-244847Y60795D01*
X-244946Y60685D01*
X-245049Y60578D01*
X-245063Y60556D01*
X-245080Y60536D01*
X-245152Y60406D01*
X-245228Y60279D01*
X-245236Y60254D01*
X-245249Y60231D01*
X-245289Y60088D01*
X-245334Y59947D01*
X-245336Y59921D01*
X-245344Y59896D01*
X-245363Y59652D01*
X-245363Y55444D01*
X-245349Y55319D01*
X-245342Y55192D01*
X-245329Y55146D01*
X-245323Y55098D01*
X-245281Y54979D01*
X-245246Y54858D01*
X-245222Y54815D01*
X-245206Y54770D01*
X-245137Y54664D01*
X-245076Y54553D01*
X-245036Y54507D01*
X-245017Y54477D01*
X-244982Y54444D01*
X-244917Y54367D01*
X-243051Y52501D01*
X-242991Y52453D01*
X-242937Y52398D01*
X-242855Y52345D01*
X-242778Y52284D01*
X-242709Y52251D01*
X-242644Y52210D01*
X-242551Y52177D01*
X-242463Y52135D01*
X-242388Y52119D01*
X-242316Y52093D01*
X-242218Y52082D01*
X-242122Y52062D01*
X-242046Y52063D01*
X-241969Y52054D01*
X-241872Y52066D01*
X-241773Y52068D01*
X-241699Y52086D01*
X-241623Y52095D01*
X-241481Y52141D01*
X-241435Y52153D01*
X-241418Y52161D01*
X-241391Y52170D01*
X-241086Y52297D01*
X-238974Y52297D01*
X-237024Y51489D01*
X-235531Y49996D01*
X-234723Y48046D01*
X-234723Y45934D01*
X-235623Y43763D01*
X-235664Y43618D01*
X-235710Y43475D01*
X-235712Y43451D01*
X-235718Y43428D01*
X-235726Y43277D01*
X-235738Y43128D01*
X-235734Y43104D01*
X-235735Y43080D01*
X-235708Y42932D01*
X-235686Y42783D01*
X-235677Y42761D01*
X-235673Y42737D01*
X-235613Y42599D01*
X-235557Y42459D01*
X-235544Y42439D01*
X-235534Y42417D01*
X-235444Y42296D01*
X-235358Y42173D01*
X-235341Y42157D01*
X-235326Y42137D01*
X-235211Y42040D01*
X-235100Y41940D01*
X-235078Y41928D01*
X-235060Y41912D01*
X-234942Y41852D01*
X-228843Y35753D01*
X-228744Y35674D01*
X-228650Y35590D01*
X-228608Y35566D01*
X-228570Y35536D01*
X-228456Y35482D01*
X-228345Y35421D01*
X-228298Y35408D01*
X-228255Y35387D01*
X-228131Y35361D01*
X-228010Y35326D01*
X-227949Y35321D01*
X-227914Y35314D01*
X-227866Y35315D01*
X-227766Y35307D01*
X-226829Y35307D01*
X-226703Y35321D01*
X-226577Y35328D01*
X-226531Y35341D01*
X-226483Y35347D01*
X-226364Y35389D01*
X-226242Y35424D01*
X-226200Y35448D01*
X-226155Y35464D01*
X-226049Y35533D01*
X-225938Y35594D01*
X-225892Y35634D01*
X-225862Y35653D01*
X-225828Y35688D01*
X-225752Y35753D01*
X-225256Y36249D01*
X-223306Y37057D01*
X-221194Y37057D01*
X-219244Y36249D01*
X-217751Y34756D01*
X-216943Y32806D01*
X-216943Y30694D01*
X-217751Y28744D01*
X-219244Y27251D01*
X-221194Y26443D01*
X-223306Y26443D01*
X-225256Y27251D01*
X-225752Y27747D01*
X-225851Y27826D01*
X-225945Y27910D01*
X-225987Y27934D01*
X-226025Y27964D01*
X-226139Y28018D01*
X-226250Y28079D01*
X-226296Y28092D01*
X-226340Y28113D01*
X-226463Y28139D01*
X-226585Y28174D01*
X-226646Y28179D01*
X-226681Y28186D01*
X-226729Y28185D01*
X-226829Y28193D01*
X-231343Y28193D01*
X-237247Y34097D01*
X-237346Y34176D01*
X-237440Y34260D01*
X-237482Y34284D01*
X-237520Y34314D01*
X-237634Y34368D01*
X-237745Y34429D01*
X-237792Y34442D01*
X-237835Y34463D01*
X-237959Y34489D01*
X-238080Y34524D01*
X-238141Y34529D01*
X-238176Y34536D01*
X-238224Y34535D01*
X-238324Y34543D01*
X-240466Y34543D01*
X-240566Y34532D01*
X-240666Y34530D01*
X-240738Y34512D01*
X-240812Y34503D01*
X-240907Y34470D01*
X-241004Y34445D01*
X-241070Y34411D01*
X-241140Y34386D01*
X-241225Y34331D01*
X-241314Y34285D01*
X-241370Y34237D01*
X-241433Y34197D01*
X-241503Y34125D01*
X-241579Y34060D01*
X-241623Y34000D01*
X-241675Y33946D01*
X-241727Y33860D01*
X-241786Y33779D01*
X-241816Y33711D01*
X-241854Y33647D01*
X-241885Y33551D01*
X-241924Y33459D01*
X-241938Y33386D01*
X-241960Y33315D01*
X-241968Y33215D01*
X-241986Y33116D01*
X-241982Y33042D01*
X-241988Y32968D01*
X-241973Y32868D01*
X-241968Y32768D01*
X-241948Y32697D01*
X-241937Y32623D01*
X-241899Y32530D01*
X-241872Y32433D01*
X-241835Y32368D01*
X-241808Y32299D01*
X-241751Y32217D01*
X-241701Y32129D01*
X-241636Y32053D01*
X-241609Y32013D01*
X-241582Y31989D01*
X-241543Y31943D01*
X-239837Y30237D01*
X-230113Y20513D01*
X-230014Y20434D01*
X-229920Y20350D01*
X-229878Y20326D01*
X-229840Y20296D01*
X-229726Y20242D01*
X-229615Y20181D01*
X-229568Y20168D01*
X-229525Y20147D01*
X-229401Y20121D01*
X-229280Y20086D01*
X-229219Y20081D01*
X-229184Y20074D01*
X-229136Y20075D01*
X-229036Y20067D01*
X-180514Y20067D01*
X-180488Y20070D01*
X-180462Y20068D01*
X-180315Y20090D01*
X-180168Y20107D01*
X-180143Y20115D01*
X-180117Y20119D01*
X-179979Y20174D01*
X-179840Y20224D01*
X-179818Y20238D01*
X-179793Y20248D01*
X-179672Y20333D01*
X-179547Y20413D01*
X-179529Y20432D01*
X-179507Y20447D01*
X-179408Y20557D01*
X-179305Y20664D01*
X-179291Y20686D01*
X-179274Y20706D01*
X-179202Y20836D01*
X-179126Y20963D01*
X-179118Y20988D01*
X-179105Y21011D01*
X-179065Y21154D01*
X-179020Y21295D01*
X-179018Y21321D01*
X-179010Y21346D01*
X-178991Y21590D01*
X-178991Y24561D01*
X-172426Y24561D01*
X-172400Y24564D01*
X-172374Y24562D01*
X-172227Y24584D01*
X-172080Y24601D01*
X-172055Y24609D01*
X-172029Y24613D01*
X-171892Y24668D01*
X-171752Y24718D01*
X-171730Y24732D01*
X-171705Y24742D01*
X-171584Y24827D01*
X-171459Y24907D01*
X-171447Y24920D01*
X-171400Y24875D01*
X-171377Y24861D01*
X-171358Y24844D01*
X-171228Y24772D01*
X-171101Y24696D01*
X-171076Y24688D01*
X-171053Y24675D01*
X-170910Y24635D01*
X-170769Y24590D01*
X-170743Y24587D01*
X-170718Y24580D01*
X-170474Y24561D01*
X-163909Y24561D01*
X-163909Y21590D01*
X-163906Y21564D01*
X-163908Y21538D01*
X-163886Y21391D01*
X-163869Y21244D01*
X-163861Y21219D01*
X-163857Y21193D01*
X-163802Y21055D01*
X-163752Y20916D01*
X-163738Y20894D01*
X-163728Y20869D01*
X-163643Y20748D01*
X-163563Y20623D01*
X-163544Y20605D01*
X-163529Y20583D01*
X-163419Y20484D01*
X-163312Y20381D01*
X-163290Y20367D01*
X-163270Y20350D01*
X-163140Y20278D01*
X-163013Y20202D01*
X-162988Y20194D01*
X-162965Y20181D01*
X-162822Y20141D01*
X-162681Y20096D01*
X-162655Y20094D01*
X-162630Y20086D01*
X-162386Y20067D01*
X-149424Y20067D01*
X-149299Y20081D01*
X-149172Y20088D01*
X-149126Y20101D01*
X-149078Y20107D01*
X-148959Y20149D01*
X-148838Y20184D01*
X-148795Y20208D01*
X-148750Y20224D01*
X-148644Y20293D01*
X-148533Y20354D01*
X-148487Y20394D01*
X-148457Y20413D01*
X-148424Y20448D01*
X-148347Y20513D01*
X-139141Y29719D01*
X-137406Y29719D01*
X-137281Y29733D01*
X-137155Y29740D01*
X-137108Y29753D01*
X-137060Y29759D01*
X-136941Y29801D01*
X-136820Y29836D01*
X-136778Y29860D01*
X-136732Y29876D01*
X-136626Y29945D01*
X-136516Y30006D01*
X-136469Y30046D01*
X-136439Y30065D01*
X-136406Y30100D01*
X-136329Y30165D01*
X-136014Y30481D01*
X-121542Y30481D01*
X-121227Y30165D01*
X-121127Y30086D01*
X-121034Y30002D01*
X-120992Y29978D01*
X-120954Y29948D01*
X-120839Y29894D01*
X-120729Y29833D01*
X-120682Y29820D01*
X-120639Y29799D01*
X-120515Y29773D01*
X-120393Y29738D01*
X-120333Y29733D01*
X-120298Y29726D01*
X-120250Y29727D01*
X-120150Y29719D01*
X-113458Y29719D01*
X-113432Y29722D01*
X-113406Y29720D01*
X-113259Y29742D01*
X-113112Y29759D01*
X-113087Y29767D01*
X-113061Y29771D01*
X-112923Y29826D01*
X-112784Y29876D01*
X-112762Y29890D01*
X-112737Y29900D01*
X-112616Y29985D01*
X-112491Y30065D01*
X-112473Y30084D01*
X-112451Y30099D01*
X-112352Y30209D01*
X-112249Y30316D01*
X-112235Y30338D01*
X-112218Y30358D01*
X-112146Y30488D01*
X-112070Y30615D01*
X-112062Y30640D01*
X-112049Y30663D01*
X-112009Y30806D01*
X-111964Y30947D01*
X-111962Y30973D01*
X-111954Y30998D01*
X-111935Y31242D01*
X-111935Y33192D01*
X-111237Y33889D01*
X-111205Y33930D01*
X-111167Y33964D01*
X-111097Y34065D01*
X-111020Y34162D01*
X-110998Y34209D01*
X-110969Y34251D01*
X-110924Y34366D01*
X-110871Y34478D01*
X-110861Y34527D01*
X-110842Y34575D01*
X-110824Y34697D01*
X-110798Y34818D01*
X-110799Y34869D01*
X-110791Y34920D01*
X-110802Y35043D01*
X-110804Y35167D01*
X-110816Y35216D01*
X-110821Y35267D01*
X-110859Y35385D01*
X-110889Y35505D01*
X-110912Y35550D01*
X-110928Y35599D01*
X-110992Y35705D01*
X-111049Y35814D01*
X-111082Y35853D01*
X-111108Y35897D01*
X-111194Y35986D01*
X-111274Y36080D01*
X-111315Y36110D01*
X-111351Y36147D01*
X-111552Y36286D01*
X-111970Y36527D01*
X-112443Y37000D01*
X-112778Y37579D01*
X-112951Y38225D01*
X-112951Y41561D01*
X-106386Y41561D01*
X-106360Y41564D01*
X-106334Y41562D01*
X-106187Y41584D01*
X-106040Y41601D01*
X-106015Y41609D01*
X-105989Y41613D01*
X-105852Y41668D01*
X-105712Y41718D01*
X-105690Y41732D01*
X-105665Y41742D01*
X-105544Y41827D01*
X-105419Y41907D01*
X-105407Y41920D01*
X-105360Y41875D01*
X-105337Y41861D01*
X-105318Y41844D01*
X-105188Y41772D01*
X-105061Y41696D01*
X-105036Y41688D01*
X-105013Y41675D01*
X-104870Y41635D01*
X-104729Y41590D01*
X-104703Y41587D01*
X-104678Y41580D01*
X-104434Y41561D01*
X-97869Y41561D01*
X-97869Y38225D01*
X-98042Y37579D01*
X-98377Y37000D01*
X-98850Y36527D01*
X-99268Y36286D01*
X-99309Y36255D01*
X-99354Y36232D01*
X-99448Y36152D01*
X-99548Y36078D01*
X-99581Y36039D01*
X-99619Y36006D01*
X-99693Y35907D01*
X-99773Y35812D01*
X-99796Y35767D01*
X-99827Y35726D01*
X-99876Y35612D01*
X-99932Y35502D01*
X-99944Y35453D01*
X-99965Y35406D01*
X-99986Y35284D01*
X-100016Y35164D01*
X-100017Y35113D01*
X-100026Y35063D01*
X-100020Y34939D01*
X-100022Y34816D01*
X-100011Y34766D01*
X-100008Y34715D01*
X-99974Y34596D01*
X-99948Y34475D01*
X-99926Y34429D01*
X-99912Y34380D01*
X-99851Y34272D01*
X-99798Y34160D01*
X-99767Y34120D01*
X-99742Y34076D01*
X-99583Y33889D01*
X-98885Y33192D01*
X-98885Y32140D01*
X-98882Y32114D01*
X-98884Y32088D01*
X-98862Y31941D01*
X-98845Y31794D01*
X-98837Y31769D01*
X-98833Y31743D01*
X-98778Y31605D01*
X-98728Y31466D01*
X-98714Y31444D01*
X-98704Y31419D01*
X-98619Y31298D01*
X-98539Y31173D01*
X-98520Y31155D01*
X-98505Y31133D01*
X-98395Y31034D01*
X-98288Y30931D01*
X-98266Y30917D01*
X-98246Y30900D01*
X-98116Y30828D01*
X-97989Y30752D01*
X-97964Y30744D01*
X-97941Y30731D01*
X-97798Y30691D01*
X-97657Y30646D01*
X-97631Y30644D01*
X-97606Y30636D01*
X-97362Y30617D01*
X-82994Y30617D01*
X-82869Y30631D01*
X-82742Y30638D01*
X-82696Y30651D01*
X-82648Y30657D01*
X-82529Y30699D01*
X-82408Y30734D01*
X-82365Y30758D01*
X-82320Y30774D01*
X-82214Y30843D01*
X-82103Y30904D01*
X-82057Y30944D01*
X-82027Y30963D01*
X-81994Y30998D01*
X-81917Y31063D01*
X-75123Y37857D01*
X-75044Y37956D01*
X-74960Y38050D01*
X-74936Y38092D01*
X-74906Y38130D01*
X-74852Y38244D01*
X-74791Y38355D01*
X-74778Y38402D01*
X-74757Y38445D01*
X-74731Y38569D01*
X-74696Y38690D01*
X-74691Y38751D01*
X-74684Y38786D01*
X-74685Y38834D01*
X-74677Y38934D01*
X-74677Y99263D01*
X-66416Y107524D01*
X-65366Y107524D01*
X-65267Y107536D01*
X-65166Y107537D01*
X-65094Y107555D01*
X-65020Y107564D01*
X-64925Y107598D01*
X-64828Y107622D01*
X-64762Y107656D01*
X-64692Y107681D01*
X-64608Y107736D01*
X-64518Y107782D01*
X-64462Y107830D01*
X-64399Y107870D01*
X-64329Y107943D01*
X-64253Y108008D01*
X-64209Y108068D01*
X-64157Y108121D01*
X-64105Y108207D01*
X-64046Y108288D01*
X-64016Y108356D01*
X-63978Y108420D01*
X-63948Y108516D01*
X-63908Y108608D01*
X-63895Y108681D01*
X-63872Y108752D01*
X-63864Y108852D01*
X-63846Y108951D01*
X-63850Y109025D01*
X-63844Y109099D01*
X-63859Y109199D01*
X-63864Y109299D01*
X-63885Y109370D01*
X-63896Y109444D01*
X-63933Y109538D01*
X-63961Y109634D01*
X-63997Y109699D01*
X-64024Y109768D01*
X-64082Y109850D01*
X-64131Y109938D01*
X-64196Y110015D01*
X-64223Y110054D01*
X-64250Y110078D01*
X-64289Y110124D01*
X-64970Y110805D01*
X-65069Y110884D01*
X-65163Y110968D01*
X-65205Y110992D01*
X-65243Y111022D01*
X-65357Y111076D01*
X-65468Y111137D01*
X-65514Y111150D01*
X-65558Y111171D01*
X-65682Y111197D01*
X-65803Y111232D01*
X-65864Y111237D01*
X-65899Y111244D01*
X-65947Y111243D01*
X-66047Y111251D01*
X-76846Y111251D01*
X-76972Y111237D01*
X-77098Y111230D01*
X-77144Y111217D01*
X-77192Y111211D01*
X-77311Y111169D01*
X-77433Y111134D01*
X-77475Y111110D01*
X-77521Y111094D01*
X-77627Y111025D01*
X-77737Y110964D01*
X-77783Y110924D01*
X-77813Y110905D01*
X-77847Y110870D01*
X-77923Y110805D01*
X-80010Y108719D01*
X-80026Y108698D01*
X-80046Y108681D01*
X-80134Y108562D01*
X-80226Y108446D01*
X-80238Y108422D01*
X-80253Y108401D01*
X-80312Y108265D01*
X-80375Y108131D01*
X-80381Y108105D01*
X-80391Y108081D01*
X-80418Y107934D01*
X-80449Y107790D01*
X-80448Y107764D01*
X-80453Y107738D01*
X-80445Y107589D01*
X-80443Y107441D01*
X-80436Y107416D01*
X-80435Y107390D01*
X-80394Y107248D01*
X-80358Y107104D01*
X-80346Y107080D01*
X-80338Y107055D01*
X-80266Y106926D01*
X-80198Y106794D01*
X-80181Y106774D01*
X-80168Y106751D01*
X-80010Y106565D01*
X-79321Y105876D01*
X-78513Y103926D01*
X-78513Y101814D01*
X-79321Y99864D01*
X-80814Y98371D01*
X-82764Y97563D01*
X-84876Y97563D01*
X-86826Y98371D01*
X-88319Y99864D01*
X-89127Y101814D01*
X-89127Y103926D01*
X-88319Y105876D01*
X-87315Y106880D01*
X-87236Y106979D01*
X-87152Y107073D01*
X-87128Y107115D01*
X-87098Y107153D01*
X-87044Y107267D01*
X-86983Y107378D01*
X-86970Y107424D01*
X-86949Y107468D01*
X-86923Y107591D01*
X-86888Y107713D01*
X-86883Y107774D01*
X-86876Y107809D01*
X-86877Y107857D01*
X-86869Y107957D01*
X-86869Y110483D01*
X-80003Y117349D01*
X-66047Y117349D01*
X-65921Y117363D01*
X-65795Y117370D01*
X-65749Y117383D01*
X-65701Y117389D01*
X-65582Y117431D01*
X-65460Y117466D01*
X-65418Y117490D01*
X-65373Y117506D01*
X-65267Y117575D01*
X-65156Y117636D01*
X-65110Y117676D01*
X-65080Y117695D01*
X-65046Y117730D01*
X-64970Y117795D01*
X-63966Y118799D01*
X-62016Y119607D01*
X-59904Y119607D01*
X-57954Y118799D01*
X-56461Y117306D01*
X-55653Y115356D01*
X-55653Y113244D01*
X-56461Y111294D01*
X-57631Y110124D01*
X-57693Y110046D01*
X-57763Y109973D01*
X-57801Y109910D01*
X-57847Y109851D01*
X-57890Y109761D01*
X-57942Y109674D01*
X-57965Y109604D01*
X-57996Y109536D01*
X-58017Y109438D01*
X-58048Y109342D01*
X-58054Y109268D01*
X-58070Y109196D01*
X-58068Y109095D01*
X-58076Y108995D01*
X-58065Y108921D01*
X-58064Y108847D01*
X-58039Y108750D01*
X-58024Y108650D01*
X-57997Y108581D01*
X-57979Y108509D01*
X-57933Y108420D01*
X-57896Y108327D01*
X-57853Y108265D01*
X-57819Y108199D01*
X-57754Y108123D01*
X-57697Y108040D01*
X-57641Y107991D01*
X-57593Y107934D01*
X-57513Y107874D01*
X-57438Y107807D01*
X-57373Y107771D01*
X-57313Y107727D01*
X-57221Y107687D01*
X-57133Y107638D01*
X-57061Y107618D01*
X-56993Y107589D01*
X-56894Y107571D01*
X-56797Y107544D01*
X-56697Y107536D01*
X-56650Y107527D01*
X-56614Y107529D01*
X-56554Y107524D01*
X-37660Y107524D01*
X-37610Y107530D01*
X-37560Y107527D01*
X-37438Y107550D01*
X-37314Y107564D01*
X-37267Y107581D01*
X-37217Y107590D01*
X-37103Y107640D01*
X-36986Y107681D01*
X-36944Y107709D01*
X-36897Y107729D01*
X-36798Y107803D01*
X-36693Y107870D01*
X-36658Y107907D01*
X-36618Y107937D01*
X-36538Y108031D01*
X-36451Y108121D01*
X-36425Y108164D01*
X-36393Y108203D01*
X-36336Y108313D01*
X-36272Y108420D01*
X-36257Y108468D01*
X-36234Y108513D01*
X-36204Y108634D01*
X-36166Y108752D01*
X-36162Y108802D01*
X-36150Y108851D01*
X-36148Y108976D01*
X-36138Y109099D01*
X-36145Y109149D01*
X-36145Y109200D01*
X-36171Y109321D01*
X-36190Y109444D01*
X-36208Y109491D01*
X-36219Y109540D01*
X-36272Y109652D01*
X-36318Y109768D01*
X-36347Y109809D01*
X-36369Y109855D01*
X-36446Y109952D01*
X-36517Y110054D01*
X-36555Y110088D01*
X-36586Y110127D01*
X-36684Y110204D01*
X-36776Y110288D01*
X-36820Y110312D01*
X-36860Y110343D01*
X-37077Y110455D01*
X-38566Y111071D01*
X-40059Y112564D01*
X-40867Y114514D01*
X-40867Y116626D01*
X-40059Y118576D01*
X-39055Y119580D01*
X-38976Y119679D01*
X-38892Y119773D01*
X-38868Y119815D01*
X-38838Y119853D01*
X-38784Y119967D01*
X-38723Y120078D01*
X-38710Y120124D01*
X-38689Y120168D01*
X-38663Y120291D01*
X-38628Y120413D01*
X-38623Y120474D01*
X-38616Y120509D01*
X-38617Y120557D01*
X-38609Y120657D01*
X-38609Y134638D01*
X-8113Y165134D01*
X-8034Y165233D01*
X-7949Y165327D01*
X-7926Y165370D01*
X-7896Y165407D01*
X-7842Y165522D01*
X-7781Y165632D01*
X-7768Y165679D01*
X-7747Y165722D01*
X-7721Y165846D01*
X-7686Y165968D01*
X-7681Y166028D01*
X-7674Y166063D01*
X-7675Y166111D01*
X-7666Y166211D01*
X-7666Y230725D01*
X-7678Y230824D01*
X-7680Y230925D01*
X-7698Y230997D01*
X-7706Y231071D01*
X-7740Y231165D01*
X-7765Y231263D01*
X-7799Y231329D01*
X-7824Y231399D01*
X-7878Y231483D01*
X-7924Y231573D01*
X-7973Y231629D01*
X-8013Y231692D01*
X-8085Y231761D01*
X-8150Y231838D01*
X-8210Y231882D01*
X-8263Y231934D01*
X-8350Y231985D01*
X-8430Y232045D01*
X-8499Y232075D01*
X-8563Y232113D01*
X-8658Y232143D01*
X-8750Y232183D01*
X-8824Y232196D01*
X-8895Y232219D01*
X-8995Y232227D01*
X-9093Y232245D01*
X-9168Y232241D01*
X-9242Y232247D01*
X-9341Y232232D01*
X-9442Y232227D01*
X-9513Y232206D01*
X-9587Y232195D01*
X-9680Y232158D01*
X-9776Y232130D01*
X-9841Y232094D01*
X-9910Y232066D01*
X-9993Y232009D01*
X-10081Y231960D01*
X-10157Y231895D01*
X-10197Y231868D01*
X-10220Y231841D01*
X-10267Y231802D01*
X-21905Y220163D01*
X-24137Y217931D01*
X-50913Y217931D01*
X-50963Y217926D01*
X-51013Y217928D01*
X-51135Y217906D01*
X-51259Y217891D01*
X-51306Y217874D01*
X-51356Y217865D01*
X-51470Y217816D01*
X-51587Y217774D01*
X-51629Y217747D01*
X-51675Y217727D01*
X-51775Y217652D01*
X-51880Y217585D01*
X-51915Y217549D01*
X-51955Y217519D01*
X-52035Y217424D01*
X-52122Y217334D01*
X-52148Y217291D01*
X-52180Y217253D01*
X-52237Y217142D01*
X-52301Y217035D01*
X-52316Y216987D01*
X-52339Y216942D01*
X-52369Y216822D01*
X-52407Y216703D01*
X-52411Y216653D01*
X-52423Y216604D01*
X-52425Y216480D01*
X-52435Y216356D01*
X-52428Y216306D01*
X-52428Y216256D01*
X-52402Y216134D01*
X-52383Y216011D01*
X-52365Y215964D01*
X-52354Y215915D01*
X-52301Y215803D01*
X-52255Y215687D01*
X-52226Y215646D01*
X-52204Y215600D01*
X-52127Y215503D01*
X-52056Y215401D01*
X-52018Y215367D01*
X-51987Y215328D01*
X-51889Y215251D01*
X-51797Y215168D01*
X-51753Y215143D01*
X-51713Y215112D01*
X-51496Y215001D01*
X-50292Y214502D01*
X-48799Y213009D01*
X-47991Y211059D01*
X-47991Y208948D01*
X-48799Y206997D01*
X-50292Y205505D01*
X-52243Y204697D01*
X-54354Y204697D01*
X-55521Y205180D01*
X-55665Y205221D01*
X-55808Y205267D01*
X-55832Y205269D01*
X-55856Y205276D01*
X-56006Y205283D01*
X-56156Y205295D01*
X-56180Y205292D01*
X-56204Y205293D01*
X-56352Y205266D01*
X-56500Y205243D01*
X-56523Y205235D01*
X-56547Y205230D01*
X-56685Y205170D01*
X-56824Y205115D01*
X-56844Y205101D01*
X-56866Y205091D01*
X-56987Y205001D01*
X-57110Y204916D01*
X-57127Y204898D01*
X-57146Y204883D01*
X-57244Y204768D01*
X-57344Y204657D01*
X-57356Y204636D01*
X-57371Y204617D01*
X-57440Y204483D01*
X-57512Y204352D01*
X-57519Y204329D01*
X-57530Y204307D01*
X-57566Y204161D01*
X-57607Y204017D01*
X-57610Y203987D01*
X-57614Y203969D01*
X-57615Y203922D01*
X-57627Y203773D01*
X-57627Y202076D01*
X-58435Y200125D01*
X-59604Y198956D01*
X-59682Y198857D01*
X-59767Y198764D01*
X-59790Y198721D01*
X-59820Y198683D01*
X-59874Y198569D01*
X-59936Y198459D01*
X-59949Y198412D01*
X-59969Y198368D01*
X-59996Y198245D01*
X-60030Y198123D01*
X-60035Y198062D01*
X-60043Y198028D01*
X-60042Y197980D01*
X-60050Y197879D01*
X-60050Y178022D01*
X-60035Y177897D01*
X-60029Y177771D01*
X-60016Y177724D01*
X-60010Y177676D01*
X-59967Y177557D01*
X-59932Y177436D01*
X-59909Y177394D01*
X-59893Y177348D01*
X-59824Y177242D01*
X-59762Y177132D01*
X-59723Y177085D01*
X-59704Y177055D01*
X-59669Y177022D01*
X-59604Y176945D01*
X-56333Y173675D01*
X-56234Y173596D01*
X-56140Y173512D01*
X-56098Y173488D01*
X-56060Y173458D01*
X-55946Y173404D01*
X-55835Y173343D01*
X-55789Y173330D01*
X-55745Y173309D01*
X-55622Y173283D01*
X-55500Y173248D01*
X-55439Y173243D01*
X-55404Y173236D01*
X-55356Y173237D01*
X-55256Y173229D01*
X-26677Y173229D01*
X-26551Y173243D01*
X-26425Y173250D01*
X-26379Y173263D01*
X-26331Y173269D01*
X-26212Y173311D01*
X-26090Y173346D01*
X-26048Y173370D01*
X-26003Y173386D01*
X-25897Y173455D01*
X-25786Y173516D01*
X-25740Y173556D01*
X-25710Y173575D01*
X-25676Y173610D01*
X-25600Y173675D01*
X-24596Y174679D01*
X-22646Y175487D01*
X-20534Y175487D01*
X-18584Y174679D01*
X-17091Y173186D01*
X-16283Y171236D01*
X-16283Y169124D01*
X-17091Y167174D01*
X-18584Y165681D01*
X-20534Y164873D01*
X-22646Y164873D01*
X-24596Y165681D01*
X-25600Y166685D01*
X-25699Y166764D01*
X-25793Y166848D01*
X-25835Y166872D01*
X-25873Y166902D01*
X-25987Y166956D01*
X-26098Y167017D01*
X-26144Y167030D01*
X-26188Y167051D01*
X-26311Y167077D01*
X-26433Y167112D01*
X-26494Y167117D01*
X-26529Y167124D01*
X-26577Y167123D01*
X-26677Y167131D01*
X-58413Y167131D01*
X-63915Y172634D01*
X-66233Y174951D01*
X-66311Y175014D01*
X-66384Y175084D01*
X-66448Y175122D01*
X-66506Y175168D01*
X-66597Y175211D01*
X-66683Y175262D01*
X-66754Y175285D01*
X-66821Y175317D01*
X-66919Y175338D01*
X-67015Y175369D01*
X-67089Y175375D01*
X-67162Y175390D01*
X-67262Y175389D01*
X-67362Y175397D01*
X-67436Y175386D01*
X-67510Y175384D01*
X-67607Y175360D01*
X-67707Y175345D01*
X-67776Y175317D01*
X-67848Y175299D01*
X-67937Y175253D01*
X-68031Y175216D01*
X-68092Y175174D01*
X-68158Y175140D01*
X-68234Y175075D01*
X-68317Y175017D01*
X-68367Y174962D01*
X-68423Y174914D01*
X-68483Y174833D01*
X-68550Y174758D01*
X-68586Y174693D01*
X-68631Y174634D01*
X-68670Y174541D01*
X-68719Y174453D01*
X-68739Y174382D01*
X-68769Y174314D01*
X-68786Y174215D01*
X-68814Y174118D01*
X-68822Y174018D01*
X-68830Y173971D01*
X-68828Y173935D01*
X-68833Y173874D01*
X-68833Y149488D01*
X-68819Y149362D01*
X-68812Y149236D01*
X-68799Y149190D01*
X-68793Y149142D01*
X-68751Y149023D01*
X-68716Y148901D01*
X-68692Y148859D01*
X-68676Y148813D01*
X-68607Y148707D01*
X-68546Y148597D01*
X-68506Y148551D01*
X-68487Y148521D01*
X-68452Y148487D01*
X-68387Y148411D01*
X-52149Y132173D01*
X-52089Y132125D01*
X-52036Y132070D01*
X-51953Y132017D01*
X-51876Y131956D01*
X-51807Y131924D01*
X-51743Y131882D01*
X-51650Y131849D01*
X-51561Y131807D01*
X-51486Y131791D01*
X-51414Y131766D01*
X-51316Y131755D01*
X-51220Y131734D01*
X-51144Y131735D01*
X-51068Y131727D01*
X-50970Y131738D01*
X-50872Y131740D01*
X-50798Y131758D01*
X-50722Y131767D01*
X-50580Y131813D01*
X-50534Y131825D01*
X-50517Y131834D01*
X-50489Y131843D01*
X-50184Y131969D01*
X-48073Y131969D01*
X-46123Y131161D01*
X-44630Y129668D01*
X-43822Y127718D01*
X-43822Y125607D01*
X-44630Y123656D01*
X-46123Y122163D01*
X-48073Y121355D01*
X-50184Y121355D01*
X-52135Y122163D01*
X-52631Y122659D01*
X-52730Y122738D01*
X-52823Y122823D01*
X-52866Y122846D01*
X-52904Y122876D01*
X-52920Y122884D01*
X-73417Y143381D01*
X-75947Y145910D01*
X-75947Y179571D01*
X-75961Y179697D01*
X-75968Y179823D01*
X-75981Y179869D01*
X-75987Y179917D01*
X-76029Y180036D01*
X-76064Y180158D01*
X-76088Y180200D01*
X-76104Y180245D01*
X-76173Y180351D01*
X-76234Y180462D01*
X-76274Y180508D01*
X-76293Y180538D01*
X-76328Y180572D01*
X-76393Y180648D01*
X-76889Y181144D01*
X-77697Y183094D01*
X-77697Y183796D01*
X-77711Y183921D01*
X-77718Y184048D01*
X-77731Y184094D01*
X-77737Y184142D01*
X-77779Y184261D01*
X-77814Y184382D01*
X-77838Y184425D01*
X-77854Y184470D01*
X-77923Y184576D01*
X-77984Y184687D01*
X-78024Y184733D01*
X-78043Y184763D01*
X-78078Y184796D01*
X-78143Y184873D01*
X-84837Y191567D01*
X-84837Y198141D01*
X-84851Y198267D01*
X-84858Y198393D01*
X-84871Y198439D01*
X-84877Y198487D01*
X-84919Y198606D01*
X-84954Y198728D01*
X-84978Y198770D01*
X-84994Y198815D01*
X-85063Y198921D01*
X-85124Y199032D01*
X-85164Y199078D01*
X-85183Y199108D01*
X-85218Y199142D01*
X-85283Y199218D01*
X-85779Y199714D01*
X-86587Y201664D01*
X-86587Y203776D01*
X-86157Y204814D01*
X-86115Y204959D01*
X-86069Y205102D01*
X-86067Y205126D01*
X-86061Y205149D01*
X-86053Y205300D01*
X-86041Y205449D01*
X-86045Y205473D01*
X-86044Y205497D01*
X-86071Y205645D01*
X-86093Y205794D01*
X-86102Y205816D01*
X-86106Y205840D01*
X-86166Y205978D01*
X-86222Y206118D01*
X-86236Y206138D01*
X-86245Y206160D01*
X-86335Y206281D01*
X-86421Y206404D01*
X-86439Y206420D01*
X-86453Y206440D01*
X-86568Y206537D01*
X-86680Y206637D01*
X-86701Y206649D01*
X-86719Y206665D01*
X-86853Y206733D01*
X-86985Y206806D01*
X-87008Y206813D01*
X-87029Y206824D01*
X-87175Y206860D01*
X-87320Y206901D01*
X-87349Y206903D01*
X-87368Y206908D01*
X-87415Y206908D01*
X-87564Y206920D01*
X-129695Y206920D01*
X-129821Y206906D01*
X-129947Y206899D01*
X-129994Y206886D01*
X-130042Y206880D01*
X-130161Y206838D01*
X-130282Y206803D01*
X-130324Y206779D01*
X-130370Y206763D01*
X-130476Y206694D01*
X-130586Y206633D01*
X-130633Y206593D01*
X-130663Y206574D01*
X-130696Y206539D01*
X-130773Y206474D01*
X-131776Y205470D01*
X-133727Y204662D01*
X-135838Y204662D01*
X-137789Y205470D01*
X-139281Y206963D01*
X-140089Y208914D01*
X-140089Y211025D01*
X-139281Y212975D01*
X-137778Y214479D01*
X-137761Y214499D01*
X-137741Y214516D01*
X-137653Y214636D01*
X-137561Y214752D01*
X-137550Y214775D01*
X-137534Y214797D01*
X-137476Y214933D01*
X-137412Y215067D01*
X-137407Y215093D01*
X-137396Y215117D01*
X-137370Y215263D01*
X-137339Y215408D01*
X-137339Y215434D01*
X-137335Y215460D01*
X-137342Y215608D01*
X-137345Y215756D01*
X-137351Y215781D01*
X-137353Y215808D01*
X-137394Y215950D01*
X-137430Y216094D01*
X-137442Y216117D01*
X-137449Y216143D01*
X-137522Y216272D01*
X-137589Y216404D01*
X-137606Y216424D01*
X-137619Y216447D01*
X-137778Y216633D01*
X-139119Y217974D01*
X-139927Y219924D01*
X-139927Y222036D01*
X-139119Y223986D01*
X-137626Y225479D01*
X-135676Y226287D01*
X-133564Y226287D01*
X-131614Y225479D01*
X-130610Y224475D01*
X-130511Y224396D01*
X-130417Y224312D01*
X-130375Y224288D01*
X-130337Y224258D01*
X-130223Y224204D01*
X-130112Y224143D01*
X-130066Y224130D01*
X-130022Y224109D01*
X-129899Y224083D01*
X-129777Y224048D01*
X-129716Y224043D01*
X-129681Y224036D01*
X-129633Y224037D01*
X-129533Y224029D01*
X-88680Y224029D01*
X-88531Y224046D01*
X-88381Y224058D01*
X-88358Y224066D01*
X-88334Y224069D01*
X-88193Y224119D01*
X-88049Y224165D01*
X-88029Y224178D01*
X-88006Y224186D01*
X-87880Y224268D01*
X-87751Y224345D01*
X-87733Y224362D01*
X-87713Y224375D01*
X-87609Y224483D01*
X-87501Y224588D01*
X-87488Y224608D01*
X-87471Y224626D01*
X-87394Y224755D01*
X-87313Y224881D01*
X-87304Y224904D01*
X-87292Y224925D01*
X-87246Y225068D01*
X-87196Y225210D01*
X-87193Y225234D01*
X-87186Y225257D01*
X-87174Y225406D01*
X-87157Y225556D01*
X-87160Y225580D01*
X-87158Y225604D01*
X-87180Y225753D01*
X-87198Y225902D01*
X-87207Y225930D01*
X-87210Y225949D01*
X-87227Y225993D01*
X-87273Y226135D01*
X-87857Y227544D01*
X-87857Y229656D01*
X-87049Y231606D01*
X-85556Y233099D01*
X-83606Y233907D01*
X-81494Y233907D01*
X-79544Y233099D01*
X-78540Y232095D01*
X-78441Y232016D01*
X-78347Y231932D01*
X-78305Y231908D01*
X-78267Y231878D01*
X-78153Y231824D01*
X-78042Y231763D01*
X-77996Y231750D01*
X-77952Y231729D01*
X-77829Y231703D01*
X-77707Y231668D01*
X-77646Y231663D01*
X-77611Y231656D01*
X-77563Y231657D01*
X-77463Y231649D01*
X-32374Y231649D01*
X-32248Y231663D01*
X-32122Y231670D01*
X-32076Y231683D01*
X-32028Y231689D01*
X-31909Y231731D01*
X-31787Y231766D01*
X-31745Y231790D01*
X-31699Y231806D01*
X-31593Y231875D01*
X-31483Y231936D01*
X-31437Y231976D01*
X-31407Y231995D01*
X-31373Y232030D01*
X-31297Y232095D01*
X-23815Y239577D01*
X-23736Y239676D01*
X-23652Y239770D01*
X-23628Y239812D01*
X-23598Y239850D01*
X-23544Y239964D01*
X-23483Y240075D01*
X-23470Y240121D01*
X-23449Y240165D01*
X-23423Y240288D01*
X-23388Y240410D01*
X-23383Y240471D01*
X-23376Y240506D01*
X-23377Y240554D01*
X-23369Y240654D01*
X-23369Y304793D01*
X-17293Y310869D01*
X22373Y310869D01*
X27179Y306063D01*
X27179Y304807D01*
X27193Y304681D01*
X27200Y304555D01*
X27213Y304509D01*
X27219Y304461D01*
X27261Y304342D01*
X27296Y304220D01*
X27320Y304178D01*
X27336Y304133D01*
X27405Y304027D01*
X27466Y303916D01*
X27506Y303870D01*
X27525Y303840D01*
X27560Y303806D01*
X27625Y303730D01*
X28629Y302726D01*
X29437Y300776D01*
X29437Y298664D01*
X28629Y296714D01*
X27136Y295221D01*
X25186Y294413D01*
X23074Y294413D01*
X21124Y295221D01*
X19631Y296714D01*
X18823Y298664D01*
X18823Y300776D01*
X19606Y302665D01*
X19647Y302810D01*
X19693Y302953D01*
X19695Y302977D01*
X19702Y303000D01*
X19709Y303151D01*
X19721Y303300D01*
X19717Y303324D01*
X19719Y303348D01*
X19692Y303496D01*
X19669Y303645D01*
X19660Y303667D01*
X19656Y303691D01*
X19596Y303829D01*
X19541Y303969D01*
X19527Y303989D01*
X19517Y304011D01*
X19427Y304132D01*
X19342Y304255D01*
X19324Y304271D01*
X19309Y304291D01*
X19194Y304388D01*
X19083Y304488D01*
X19062Y304500D01*
X19043Y304516D01*
X18910Y304584D01*
X18778Y304657D01*
X18754Y304663D01*
X18733Y304674D01*
X18588Y304711D01*
X18442Y304752D01*
X18413Y304754D01*
X18395Y304759D01*
X18348Y304759D01*
X18199Y304771D01*
X16091Y304771D01*
X15942Y304754D01*
X15792Y304742D01*
X15769Y304734D01*
X15745Y304731D01*
X15604Y304681D01*
X15461Y304635D01*
X15440Y304622D01*
X15417Y304614D01*
X15291Y304532D01*
X15162Y304455D01*
X15145Y304438D01*
X15124Y304425D01*
X15019Y304316D01*
X14912Y304212D01*
X14899Y304192D01*
X14882Y304174D01*
X14805Y304045D01*
X14724Y303919D01*
X14716Y303896D01*
X14703Y303875D01*
X14657Y303732D01*
X14607Y303590D01*
X14604Y303566D01*
X14597Y303543D01*
X14585Y303394D01*
X14568Y303244D01*
X14571Y303220D01*
X14569Y303196D01*
X14591Y303047D01*
X14609Y302898D01*
X14618Y302870D01*
X14621Y302851D01*
X14638Y302807D01*
X14684Y302665D01*
X15467Y300776D01*
X15467Y298664D01*
X14659Y296714D01*
X13166Y295221D01*
X11216Y294413D01*
X9104Y294413D01*
X7154Y295221D01*
X6150Y296225D01*
X6051Y296304D01*
X5957Y296388D01*
X5915Y296412D01*
X5877Y296442D01*
X5763Y296496D01*
X5652Y296557D01*
X5606Y296570D01*
X5562Y296591D01*
X5439Y296617D01*
X5317Y296652D01*
X5256Y296657D01*
X5221Y296664D01*
X5173Y296663D01*
X5073Y296671D01*
X-4456Y296671D01*
X-4582Y296657D01*
X-4708Y296650D01*
X-4754Y296637D01*
X-4802Y296631D01*
X-4921Y296589D01*
X-5043Y296554D01*
X-5085Y296530D01*
X-5131Y296514D01*
X-5237Y296445D01*
X-5347Y296384D01*
X-5393Y296344D01*
X-5423Y296325D01*
X-5457Y296290D01*
X-5533Y296225D01*
X-7935Y293823D01*
X-8014Y293724D01*
X-8098Y293630D01*
X-8122Y293588D01*
X-8152Y293550D01*
X-8206Y293436D01*
X-8267Y293325D01*
X-8280Y293279D01*
X-8301Y293235D01*
X-8327Y293112D01*
X-8362Y292990D01*
X-8367Y292929D01*
X-8374Y292894D01*
X-8373Y292846D01*
X-8381Y292746D01*
X-8381Y276945D01*
X-8370Y276846D01*
X-8368Y276745D01*
X-8350Y276673D01*
X-8341Y276599D01*
X-8308Y276505D01*
X-8283Y276407D01*
X-8249Y276341D01*
X-8224Y276271D01*
X-8169Y276187D01*
X-8123Y276097D01*
X-8075Y276041D01*
X-8035Y275978D01*
X-7963Y275908D01*
X-7898Y275832D01*
X-7838Y275788D01*
X-7784Y275736D01*
X-7698Y275684D01*
X-7617Y275625D01*
X-7549Y275595D01*
X-7485Y275557D01*
X-7390Y275527D01*
X-7297Y275487D01*
X-7224Y275474D01*
X-7153Y275451D01*
X-7053Y275443D01*
X-6954Y275425D01*
X-6880Y275429D01*
X-6806Y275423D01*
X-6707Y275438D01*
X-6606Y275443D01*
X-6535Y275464D01*
X-6461Y275475D01*
X-6368Y275512D01*
X-6271Y275540D01*
X-6206Y275576D01*
X-6137Y275603D01*
X-6055Y275661D01*
X-5967Y275710D01*
X-5891Y275775D01*
X-5851Y275802D01*
X-5827Y275829D01*
X-5781Y275868D01*
X-5434Y276215D01*
X-966Y280683D01*
X12716Y280683D01*
X18525Y274874D01*
X18525Y272915D01*
X18539Y272789D01*
X18546Y272663D01*
X18559Y272617D01*
X18565Y272569D01*
X18608Y272449D01*
X18642Y272328D01*
X18666Y272286D01*
X18682Y272240D01*
X18751Y272134D01*
X18813Y272024D01*
X18852Y271978D01*
X18871Y271948D01*
X18906Y271914D01*
X18971Y271838D01*
X19975Y270834D01*
X20783Y268883D01*
X20783Y266772D01*
X19975Y264822D01*
X18482Y263329D01*
X16532Y262521D01*
X14421Y262521D01*
X12470Y263329D01*
X10927Y264872D01*
X10914Y264898D01*
X10898Y264917D01*
X10886Y264937D01*
X10786Y265049D01*
X10688Y265164D01*
X10668Y265178D01*
X10652Y265196D01*
X10528Y265282D01*
X10407Y265371D01*
X10386Y265380D01*
X10366Y265394D01*
X10225Y265449D01*
X10087Y265509D01*
X10064Y265513D01*
X10041Y265522D01*
X9893Y265544D01*
X9744Y265570D01*
X9720Y265569D01*
X9697Y265573D01*
X9547Y265560D01*
X9396Y265552D01*
X9373Y265546D01*
X9349Y265544D01*
X9206Y265497D01*
X9062Y265456D01*
X9041Y265444D01*
X9018Y265437D01*
X8889Y265359D01*
X8757Y265286D01*
X8735Y265267D01*
X8719Y265257D01*
X8685Y265224D01*
X8571Y265127D01*
X7404Y263960D01*
X7325Y263861D01*
X7241Y263767D01*
X7217Y263725D01*
X7187Y263687D01*
X7133Y263573D01*
X7072Y263462D01*
X7059Y263416D01*
X7038Y263372D01*
X7012Y263248D01*
X6977Y263127D01*
X6973Y263066D01*
X6965Y263031D01*
X6966Y262983D01*
X6958Y262883D01*
X6958Y157774D01*
X-19365Y131451D01*
X-19444Y131352D01*
X-19528Y131258D01*
X-19552Y131216D01*
X-19582Y131178D01*
X-19636Y131064D01*
X-19697Y130953D01*
X-19710Y130907D01*
X-19731Y130863D01*
X-19757Y130740D01*
X-19792Y130618D01*
X-19797Y130557D01*
X-19804Y130522D01*
X-19803Y130474D01*
X-19811Y130374D01*
X-19811Y120657D01*
X-19797Y120531D01*
X-19790Y120405D01*
X-19777Y120359D01*
X-19771Y120311D01*
X-19729Y120192D01*
X-19694Y120070D01*
X-19670Y120028D01*
X-19654Y119983D01*
X-19585Y119877D01*
X-19524Y119766D01*
X-19484Y119720D01*
X-19465Y119690D01*
X-19430Y119656D01*
X-19365Y119580D01*
X-18361Y118576D01*
X-17917Y117504D01*
X-17868Y117417D01*
X-17829Y117325D01*
X-17784Y117265D01*
X-17748Y117200D01*
X-17680Y117125D01*
X-17621Y117045D01*
X-17564Y116997D01*
X-17514Y116942D01*
X-17431Y116885D01*
X-17355Y116820D01*
X-17288Y116786D01*
X-17227Y116743D01*
X-17134Y116707D01*
X-17044Y116661D01*
X-16972Y116643D01*
X-16903Y116616D01*
X-16804Y116601D01*
X-16706Y116577D01*
X-16632Y116576D01*
X-16558Y116565D01*
X-16458Y116573D01*
X-16358Y116572D01*
X-16285Y116588D01*
X-16211Y116594D01*
X-16115Y116625D01*
X-16017Y116646D01*
X-15950Y116678D01*
X-15879Y116701D01*
X-15793Y116753D01*
X-15702Y116796D01*
X-15644Y116842D01*
X-15581Y116880D01*
X-15508Y116951D01*
X-15430Y117013D01*
X-15384Y117071D01*
X-15331Y117123D01*
X-15276Y117208D01*
X-15214Y117287D01*
X-15168Y117376D01*
X-15142Y117417D01*
X-15130Y117450D01*
X-15103Y117504D01*
X-14659Y118576D01*
X-13166Y120069D01*
X-11216Y120877D01*
X-9104Y120877D01*
X-7154Y120069D01*
X-5661Y118576D01*
X-4853Y116626D01*
X-4853Y114514D01*
X-5661Y112564D01*
X-6157Y112068D01*
X-6236Y111969D01*
X-6320Y111875D01*
X-6344Y111833D01*
X-6374Y111795D01*
X-6428Y111681D01*
X-6489Y111570D01*
X-6502Y111524D01*
X-6523Y111480D01*
X-6549Y111357D01*
X-6584Y111235D01*
X-6589Y111174D01*
X-6596Y111139D01*
X-6595Y111091D01*
X-6603Y110991D01*
X-6603Y103937D01*
X-7600Y102940D01*
X-9641Y100899D01*
X-9703Y100821D01*
X-9773Y100748D01*
X-9811Y100684D01*
X-9858Y100626D01*
X-9900Y100535D01*
X-9952Y100449D01*
X-9975Y100378D01*
X-10006Y100311D01*
X-10028Y100213D01*
X-10058Y100117D01*
X-10064Y100043D01*
X-10080Y99970D01*
X-10078Y99870D01*
X-10086Y99770D01*
X-10075Y99696D01*
X-10074Y99622D01*
X-10049Y99525D01*
X-10035Y99425D01*
X-10007Y99356D01*
X-9989Y99284D01*
X-9943Y99195D01*
X-9906Y99101D01*
X-9863Y99040D01*
X-9829Y98974D01*
X-9764Y98898D01*
X-9707Y98815D01*
X-9652Y98765D01*
X-9603Y98709D01*
X-9523Y98649D01*
X-9448Y98582D01*
X-9383Y98546D01*
X-9323Y98501D01*
X-9231Y98462D01*
X-9143Y98413D01*
X-9071Y98393D01*
X-9003Y98363D01*
X-8904Y98346D01*
X-8808Y98318D01*
X-8708Y98310D01*
X-8660Y98302D01*
X-8624Y98304D01*
X-8564Y98299D01*
X4456Y98299D01*
X4582Y98313D01*
X4708Y98320D01*
X4754Y98333D01*
X4802Y98339D01*
X4921Y98381D01*
X5043Y98416D01*
X5085Y98440D01*
X5131Y98456D01*
X5237Y98525D01*
X5347Y98586D01*
X5393Y98626D01*
X5423Y98645D01*
X5457Y98680D01*
X5533Y98745D01*
X14539Y107751D01*
X14618Y107850D01*
X14702Y107944D01*
X14726Y107986D01*
X14756Y108024D01*
X14810Y108138D01*
X14871Y108249D01*
X14884Y108295D01*
X14905Y108339D01*
X14931Y108462D01*
X14966Y108584D01*
X14971Y108645D01*
X14978Y108679D01*
X14977Y108727D01*
X14985Y108828D01*
X14985Y169919D01*
X14971Y170045D01*
X14964Y170171D01*
X14951Y170217D01*
X14945Y170265D01*
X14903Y170384D01*
X14868Y170506D01*
X14844Y170548D01*
X14828Y170593D01*
X14759Y170699D01*
X14698Y170810D01*
X14658Y170856D01*
X14639Y170886D01*
X14604Y170920D01*
X14539Y170996D01*
X13281Y172254D01*
X12473Y174204D01*
X12473Y176316D01*
X13281Y178266D01*
X14774Y179759D01*
X16724Y180567D01*
X18836Y180567D01*
X20786Y179759D01*
X22279Y178266D01*
X23087Y176316D01*
X23087Y174204D01*
X22279Y172254D01*
X21021Y170996D01*
X20942Y170897D01*
X20858Y170803D01*
X20834Y170761D01*
X20804Y170723D01*
X20750Y170609D01*
X20689Y170498D01*
X20676Y170452D01*
X20655Y170408D01*
X20629Y170285D01*
X20594Y170163D01*
X20589Y170102D01*
X20582Y170067D01*
X20583Y170019D01*
X20575Y169919D01*
X20575Y108828D01*
X20589Y108702D01*
X20596Y108576D01*
X20609Y108529D01*
X20615Y108482D01*
X20657Y108363D01*
X20692Y108241D01*
X20716Y108199D01*
X20732Y108153D01*
X20801Y108047D01*
X20829Y107997D01*
X20829Y105417D01*
X7613Y92201D01*
X6869Y92201D01*
X6768Y92190D01*
X6668Y92188D01*
X6596Y92170D01*
X6522Y92161D01*
X6427Y92127D01*
X6330Y92103D01*
X6264Y92069D01*
X6194Y92044D01*
X6109Y91989D01*
X6020Y91943D01*
X5964Y91895D01*
X5901Y91855D01*
X5831Y91782D01*
X5755Y91717D01*
X5711Y91657D01*
X5659Y91604D01*
X5607Y91518D01*
X5548Y91437D01*
X5518Y91369D01*
X5480Y91305D01*
X5450Y91209D01*
X5410Y91116D01*
X5397Y91044D01*
X5374Y90973D01*
X5366Y90873D01*
X5348Y90773D01*
X5352Y90700D01*
X5346Y90626D01*
X5361Y90526D01*
X5366Y90425D01*
X5387Y90354D01*
X5398Y90281D01*
X5435Y90187D01*
X5463Y90091D01*
X5499Y90026D01*
X5527Y89957D01*
X5584Y89874D01*
X5633Y89786D01*
X5698Y89711D01*
X5726Y89671D01*
X5749Y89650D01*
X5754Y89643D01*
X5762Y89635D01*
X5792Y89600D01*
X5820Y89572D01*
X5919Y89494D01*
X6012Y89410D01*
X6055Y89386D01*
X6093Y89356D01*
X6207Y89302D01*
X6317Y89241D01*
X6364Y89228D01*
X6408Y89207D01*
X6531Y89181D01*
X6653Y89146D01*
X6714Y89141D01*
X6749Y89134D01*
X6797Y89135D01*
X6897Y89127D01*
X8676Y89127D01*
X10626Y88319D01*
X12119Y86826D01*
X12927Y84876D01*
X12927Y82764D01*
X12119Y80814D01*
X10626Y79321D01*
X8676Y78513D01*
X6564Y78513D01*
X4614Y79321D01*
X3121Y80814D01*
X2313Y82764D01*
X2313Y83312D01*
X2310Y83338D01*
X2312Y83364D01*
X2290Y83511D01*
X2273Y83658D01*
X2265Y83683D01*
X2261Y83709D01*
X2206Y83847D01*
X2156Y83986D01*
X2142Y84008D01*
X2132Y84033D01*
X2047Y84154D01*
X1967Y84279D01*
X1948Y84297D01*
X1933Y84319D01*
X1823Y84418D01*
X1716Y84521D01*
X1694Y84535D01*
X1674Y84552D01*
X1544Y84624D01*
X1417Y84700D01*
X1392Y84708D01*
X1369Y84721D01*
X1226Y84761D01*
X1085Y84806D01*
X1059Y84808D01*
X1034Y84816D01*
X790Y84835D01*
X-6089Y84835D01*
X-6215Y84821D01*
X-6341Y84814D01*
X-6387Y84801D01*
X-6435Y84795D01*
X-6554Y84753D01*
X-6676Y84718D01*
X-6718Y84694D01*
X-6763Y84678D01*
X-6869Y84609D01*
X-6980Y84548D01*
X-7026Y84508D01*
X-7056Y84489D01*
X-7090Y84454D01*
X-7166Y84389D01*
X-8424Y83131D01*
X-10374Y82323D01*
X-12486Y82323D01*
X-14436Y83131D01*
X-15929Y84624D01*
X-16737Y86574D01*
X-16737Y88686D01*
X-16153Y90095D01*
X-16112Y90240D01*
X-16066Y90383D01*
X-16064Y90407D01*
X-16057Y90430D01*
X-16050Y90581D01*
X-16038Y90730D01*
X-16041Y90754D01*
X-16040Y90778D01*
X-16067Y90926D01*
X-16090Y91075D01*
X-16098Y91097D01*
X-16103Y91121D01*
X-16163Y91259D01*
X-16218Y91399D01*
X-16232Y91419D01*
X-16242Y91441D01*
X-16331Y91562D01*
X-16417Y91685D01*
X-16435Y91701D01*
X-16450Y91721D01*
X-16564Y91818D01*
X-16676Y91918D01*
X-16697Y91930D01*
X-16716Y91946D01*
X-16849Y92014D01*
X-16981Y92087D01*
X-17004Y92093D01*
X-17026Y92104D01*
X-17171Y92141D01*
X-17316Y92182D01*
X-17346Y92184D01*
X-17364Y92189D01*
X-17411Y92189D01*
X-17560Y92201D01*
X-55873Y92201D01*
X-55999Y92187D01*
X-56125Y92180D01*
X-56171Y92167D01*
X-56219Y92161D01*
X-56338Y92119D01*
X-56460Y92084D01*
X-56502Y92060D01*
X-56547Y92044D01*
X-56653Y91975D01*
X-56764Y91914D01*
X-56810Y91874D01*
X-56840Y91855D01*
X-56874Y91820D01*
X-56950Y91755D01*
X-57954Y90751D01*
X-59904Y89943D01*
X-62016Y89943D01*
X-63966Y90751D01*
X-64963Y91748D01*
X-65042Y91811D01*
X-65114Y91880D01*
X-65178Y91919D01*
X-65236Y91965D01*
X-65327Y92008D01*
X-65413Y92059D01*
X-65484Y92082D01*
X-65551Y92114D01*
X-65649Y92135D01*
X-65745Y92165D01*
X-65819Y92171D01*
X-65892Y92187D01*
X-65992Y92185D01*
X-66092Y92193D01*
X-66166Y92182D01*
X-66240Y92181D01*
X-66337Y92157D01*
X-66437Y92142D01*
X-66506Y92114D01*
X-66578Y92096D01*
X-66667Y92050D01*
X-66761Y92013D01*
X-66822Y91970D01*
X-66888Y91936D01*
X-66964Y91871D01*
X-67047Y91814D01*
X-67097Y91759D01*
X-67153Y91711D01*
X-67213Y91630D01*
X-67280Y91555D01*
X-67316Y91490D01*
X-67361Y91430D01*
X-67400Y91338D01*
X-67449Y91250D01*
X-67469Y91179D01*
X-67499Y91110D01*
X-67516Y91011D01*
X-67544Y90915D01*
X-67552Y90815D01*
X-67560Y90767D01*
X-67558Y90731D01*
X-67563Y90671D01*
X-67563Y35357D01*
X-79417Y23503D01*
X-97362Y23503D01*
X-97388Y23500D01*
X-97414Y23502D01*
X-97561Y23480D01*
X-97708Y23463D01*
X-97733Y23455D01*
X-97759Y23451D01*
X-97897Y23396D01*
X-98036Y23346D01*
X-98058Y23332D01*
X-98083Y23322D01*
X-98204Y23237D01*
X-98329Y23157D01*
X-98347Y23138D01*
X-98369Y23123D01*
X-98468Y23013D01*
X-98571Y22906D01*
X-98585Y22884D01*
X-98602Y22864D01*
X-98674Y22734D01*
X-98750Y22607D01*
X-98758Y22582D01*
X-98771Y22559D01*
X-98811Y22416D01*
X-98856Y22275D01*
X-98858Y22249D01*
X-98866Y22224D01*
X-98885Y21980D01*
X-98885Y20928D01*
X-99778Y20035D01*
X-111042Y20035D01*
X-111935Y20928D01*
X-111935Y21082D01*
X-111938Y21108D01*
X-111936Y21134D01*
X-111958Y21281D01*
X-111975Y21428D01*
X-111983Y21453D01*
X-111987Y21479D01*
X-112042Y21617D01*
X-112092Y21756D01*
X-112106Y21778D01*
X-112116Y21803D01*
X-112201Y21924D01*
X-112281Y22049D01*
X-112300Y22067D01*
X-112315Y22089D01*
X-112425Y22188D01*
X-112532Y22291D01*
X-112554Y22305D01*
X-112574Y22322D01*
X-112704Y22394D01*
X-112831Y22470D01*
X-112856Y22478D01*
X-112879Y22491D01*
X-113022Y22531D01*
X-113163Y22576D01*
X-113189Y22578D01*
X-113214Y22586D01*
X-113458Y22605D01*
X-120150Y22605D01*
X-120275Y22591D01*
X-120401Y22584D01*
X-120448Y22571D01*
X-120496Y22565D01*
X-120615Y22523D01*
X-120736Y22488D01*
X-120778Y22464D01*
X-120824Y22448D01*
X-120930Y22379D01*
X-121040Y22318D01*
X-121087Y22278D01*
X-121117Y22259D01*
X-121150Y22224D01*
X-121227Y22159D01*
X-121542Y21843D01*
X-136326Y21843D01*
X-136451Y21829D01*
X-136578Y21822D01*
X-136624Y21809D01*
X-136672Y21803D01*
X-136791Y21761D01*
X-136912Y21726D01*
X-136955Y21702D01*
X-137000Y21686D01*
X-137106Y21617D01*
X-137217Y21556D01*
X-137263Y21516D01*
X-137293Y21497D01*
X-137326Y21462D01*
X-137403Y21397D01*
X-145847Y12953D01*
X-232613Y12953D01*
X-244700Y25040D01*
X-244721Y25057D01*
X-244738Y25077D01*
X-244857Y25165D01*
X-244973Y25257D01*
X-244997Y25268D01*
X-245018Y25284D01*
X-245154Y25343D01*
X-245289Y25406D01*
X-245314Y25412D01*
X-245338Y25422D01*
X-245484Y25448D01*
X-245629Y25479D01*
X-245655Y25479D01*
X-245681Y25484D01*
X-245830Y25476D01*
X-245978Y25473D01*
X-246003Y25467D01*
X-246029Y25466D01*
X-246172Y25425D01*
X-246316Y25388D01*
X-246339Y25376D01*
X-246364Y25369D01*
X-246493Y25297D01*
X-246626Y25229D01*
X-246646Y25212D01*
X-246668Y25199D01*
X-246855Y25040D01*
X-247184Y24711D01*
X-249134Y23903D01*
X-251246Y23903D01*
X-253196Y24711D01*
X-254689Y26204D01*
X-255497Y28154D01*
X-255497Y30266D01*
X-254597Y32437D01*
X-254556Y32582D01*
X-254510Y32725D01*
X-254508Y32749D01*
X-254502Y32772D01*
X-254494Y32923D01*
X-254482Y33072D01*
X-254486Y33096D01*
X-254485Y33120D01*
X-254511Y33268D01*
X-254534Y33417D01*
X-254543Y33439D01*
X-254547Y33463D01*
X-254607Y33601D01*
X-254663Y33741D01*
X-254676Y33761D01*
X-254686Y33783D01*
X-254776Y33904D01*
X-254862Y34027D01*
X-254879Y34043D01*
X-254894Y34063D01*
X-255009Y34160D01*
X-255120Y34260D01*
X-255142Y34272D01*
X-255160Y34288D01*
X-255293Y34356D01*
X-255425Y34429D01*
X-255449Y34435D01*
X-255470Y34446D01*
X-255616Y34483D01*
X-255761Y34524D01*
X-255790Y34526D01*
X-255808Y34531D01*
X-255855Y34531D01*
X-256005Y34543D01*
X-256976Y34543D01*
X-257101Y34529D01*
X-257228Y34522D01*
X-257274Y34509D01*
X-257322Y34503D01*
X-257441Y34461D01*
X-257562Y34426D01*
X-257605Y34402D01*
X-257650Y34386D01*
X-257756Y34317D01*
X-257867Y34256D01*
X-257913Y34216D01*
X-257943Y34197D01*
X-257976Y34162D01*
X-258053Y34097D01*
X-263957Y28193D01*
X-276860Y28193D01*
X-276886Y28190D01*
X-276912Y28192D01*
X-277059Y28170D01*
X-277206Y28153D01*
X-277231Y28145D01*
X-277257Y28141D01*
X-277395Y28086D01*
X-277534Y28036D01*
X-277556Y28022D01*
X-277581Y28012D01*
X-277702Y27927D01*
X-277827Y27847D01*
X-277845Y27828D01*
X-277867Y27813D01*
X-277966Y27703D01*
X-278069Y27596D01*
X-278083Y27574D01*
X-278100Y27554D01*
X-278172Y27424D01*
X-278248Y27297D01*
X-278256Y27272D01*
X-278269Y27249D01*
X-278309Y27106D01*
X-278354Y26965D01*
X-278356Y26939D01*
X-278364Y26914D01*
X-278383Y26670D01*
X-278383Y25197D01*
X-280913Y22667D01*
X-283007Y20573D01*
X-341833Y20573D01*
X-347727Y26467D01*
X-347727Y81483D01*
X-340563Y88647D01*
X-323414Y88647D01*
X-323289Y88661D01*
X-323162Y88668D01*
X-323116Y88681D01*
X-323068Y88687D01*
X-322949Y88729D01*
X-322828Y88764D01*
X-322785Y88788D01*
X-322740Y88804D01*
X-322634Y88873D01*
X-322523Y88934D01*
X-322477Y88974D01*
X-322447Y88993D01*
X-322413Y89028D01*
X-322337Y89093D01*
X-318963Y92467D01*
X-318884Y92566D01*
X-318800Y92660D01*
X-318776Y92702D01*
X-318746Y92740D01*
X-318692Y92854D01*
X-318631Y92965D01*
X-318618Y93012D01*
X-318597Y93055D01*
X-318571Y93179D01*
X-318536Y93300D01*
X-318531Y93361D01*
X-318524Y93396D01*
X-318525Y93444D01*
X-318517Y93544D01*
X-318517Y157779D01*
X-318535Y157939D01*
X-318551Y158100D01*
X-318555Y158112D01*
X-318557Y158126D01*
X-318611Y158278D01*
X-318663Y158430D01*
X-318670Y158441D01*
X-318674Y158454D01*
X-318762Y158590D01*
X-318847Y158726D01*
X-318856Y158735D01*
X-318863Y158747D01*
X-318979Y158859D01*
X-319093Y158972D01*
X-319104Y158979D01*
X-319114Y158989D01*
X-319252Y159071D01*
X-319389Y159156D01*
X-319402Y159161D01*
X-319413Y159168D01*
X-319566Y159216D01*
X-319719Y159268D01*
X-319732Y159270D01*
X-319745Y159274D01*
X-319905Y159287D01*
X-320066Y159302D01*
X-320079Y159301D01*
X-320092Y159302D01*
X-320251Y159278D01*
X-320411Y159257D01*
X-320424Y159252D01*
X-320437Y159250D01*
X-320587Y159191D01*
X-320737Y159134D01*
X-320748Y159126D01*
X-320761Y159121D01*
X-320893Y159030D01*
X-321027Y158940D01*
X-321038Y158928D01*
X-321047Y158922D01*
X-321071Y158895D01*
X-321200Y158767D01*
X-337859Y139198D01*
X-337870Y139181D01*
X-337890Y139159D01*
X-365867Y104015D01*
X-365877Y103999D01*
X-365895Y103979D01*
X-393997Y66416D01*
X-394005Y66402D01*
X-394021Y66382D01*
X-402342Y54598D01*
X-402412Y54470D01*
X-402486Y54346D01*
X-402495Y54318D01*
X-402509Y54292D01*
X-402548Y54152D01*
X-402592Y54014D01*
X-402594Y53985D01*
X-402602Y53956D01*
X-402608Y53811D01*
X-402620Y53667D01*
X-402616Y53637D01*
X-402617Y53608D01*
X-402590Y53465D01*
X-402568Y53322D01*
X-402557Y53294D01*
X-402552Y53265D01*
X-402493Y53133D01*
X-402440Y52998D01*
X-402423Y52974D01*
X-402411Y52947D01*
X-402323Y52831D01*
X-402241Y52712D01*
X-402219Y52692D01*
X-402201Y52668D01*
X-402089Y52576D01*
X-401982Y52479D01*
X-401956Y52464D01*
X-401933Y52445D01*
X-401804Y52380D01*
X-401677Y52310D01*
X-401648Y52302D01*
X-401622Y52289D01*
X-401481Y52255D01*
X-401342Y52215D01*
X-401305Y52212D01*
X-401283Y52207D01*
X-401234Y52207D01*
X-401098Y52196D01*
X-396889Y52196D01*
X-390489Y50481D01*
X-384752Y47169D01*
X-380067Y42484D01*
X-376755Y36747D01*
X-375040Y30347D01*
X-375040Y23723D01*
X-376755Y17323D01*
X-379842Y11977D01*
X-379872Y11907D01*
X-379911Y11842D01*
X-379941Y11748D01*
X-379980Y11657D01*
X-379994Y11582D01*
X-380017Y11510D01*
X-380025Y11411D01*
X-380043Y11314D01*
X-380039Y11238D01*
X-380045Y11163D01*
X-380030Y11065D01*
X-380025Y10966D01*
X-380005Y10893D01*
X-379993Y10818D01*
X-379957Y10726D01*
X-379929Y10631D01*
X-379893Y10565D01*
X-379865Y10494D01*
X-379808Y10413D01*
X-379760Y10326D01*
X-379709Y10270D01*
X-379666Y10208D01*
X-379592Y10142D01*
X-379526Y10068D01*
X-379463Y10025D01*
X-379407Y9975D01*
X-379320Y9927D01*
X-379239Y9870D01*
X-379168Y9843D01*
X-379102Y9806D01*
X-379006Y9779D01*
X-378914Y9743D01*
X-378840Y9732D01*
X-378766Y9711D01*
X-378616Y9699D01*
X-378570Y9692D01*
X-378551Y9694D01*
X-378523Y9692D01*
X-54481Y9692D01*
X-54357Y9706D01*
G37*
G36*
X429198Y9706D02*
X429198Y9706D01*
X429319Y9711D01*
X429370Y9726D01*
X429423Y9732D01*
X429538Y9773D01*
X429655Y9806D01*
X429701Y9831D01*
X429751Y9849D01*
X429854Y9915D01*
X429960Y9974D01*
X429999Y10009D01*
X430044Y10038D01*
X430129Y10126D01*
X430219Y10207D01*
X430249Y10251D01*
X430286Y10289D01*
X430349Y10393D01*
X430418Y10493D01*
X430438Y10542D01*
X430465Y10588D01*
X430502Y10704D01*
X430547Y10817D01*
X430555Y10869D01*
X430571Y10920D01*
X430581Y11041D01*
X430599Y11162D01*
X430595Y11214D01*
X430599Y11267D01*
X430581Y11388D01*
X430571Y11509D01*
X430553Y11574D01*
X430547Y11612D01*
X430530Y11655D01*
X430505Y11744D01*
X430393Y12045D01*
X430392Y12048D01*
X430391Y12051D01*
X430287Y12272D01*
X422058Y26661D01*
X422030Y26700D01*
X421980Y26784D01*
X394026Y66377D01*
X394015Y66390D01*
X394002Y66411D01*
X365911Y103965D01*
X365899Y103978D01*
X365883Y104001D01*
X337920Y139134D01*
X337906Y139148D01*
X337888Y139173D01*
X310076Y171845D01*
X310060Y171860D01*
X310040Y171887D01*
X282407Y202056D01*
X282388Y202072D01*
X282364Y202101D01*
X254943Y229720D01*
X254923Y229736D01*
X254894Y229768D01*
X232192Y250654D01*
X232156Y250680D01*
X232125Y250712D01*
X232016Y250782D01*
X231910Y250859D01*
X231869Y250876D01*
X231832Y250900D01*
X231709Y250944D01*
X231589Y250995D01*
X231546Y251002D01*
X231504Y251017D01*
X231374Y251032D01*
X231245Y251054D01*
X231201Y251051D01*
X231158Y251056D01*
X231028Y251041D01*
X230898Y251034D01*
X230855Y251021D01*
X230812Y251016D01*
X230689Y250972D01*
X230563Y250935D01*
X230525Y250913D01*
X230484Y250898D01*
X230374Y250827D01*
X230261Y250762D01*
X230228Y250732D01*
X230191Y250708D01*
X230101Y250614D01*
X230005Y250525D01*
X229980Y250489D01*
X229949Y250457D01*
X229883Y250345D01*
X229809Y250237D01*
X229794Y250196D01*
X229771Y250158D01*
X229689Y249927D01*
X228446Y245288D01*
X225134Y239551D01*
X220449Y234866D01*
X214712Y231554D01*
X208312Y229839D01*
X201688Y229839D01*
X195288Y231554D01*
X189551Y234866D01*
X184866Y239551D01*
X181554Y245288D01*
X179839Y251688D01*
X179839Y258312D01*
X181554Y264712D01*
X184866Y270449D01*
X189551Y275134D01*
X195397Y278509D01*
X195528Y278606D01*
X195660Y278701D01*
X195668Y278710D01*
X195677Y278717D01*
X195782Y278841D01*
X195890Y278963D01*
X195895Y278974D01*
X195903Y278982D01*
X195977Y279127D01*
X196053Y279271D01*
X196056Y279282D01*
X196062Y279293D01*
X196101Y279451D01*
X196143Y279608D01*
X196143Y279619D01*
X196146Y279631D01*
X196149Y279794D01*
X196154Y279956D01*
X196151Y279968D01*
X196151Y279979D01*
X196117Y280138D01*
X196085Y280298D01*
X196080Y280308D01*
X196077Y280320D01*
X196008Y280467D01*
X195940Y280615D01*
X195933Y280624D01*
X195928Y280635D01*
X195827Y280762D01*
X195727Y280891D01*
X195717Y280900D01*
X195711Y280907D01*
X195685Y280928D01*
X195543Y281052D01*
X174245Y296841D01*
X174215Y296858D01*
X174168Y296895D01*
X148058Y313848D01*
X148024Y313865D01*
X147968Y313902D01*
X135107Y321039D01*
X135049Y321063D01*
X134995Y321096D01*
X134889Y321130D01*
X134785Y321173D01*
X134723Y321183D01*
X134663Y321202D01*
X134552Y321211D01*
X134441Y321229D01*
X134378Y321225D01*
X134316Y321230D01*
X134205Y321213D01*
X134093Y321206D01*
X134033Y321187D01*
X133971Y321178D01*
X133867Y321137D01*
X133760Y321104D01*
X133706Y321073D01*
X133647Y321049D01*
X133555Y320986D01*
X133459Y320929D01*
X133413Y320886D01*
X133361Y320850D01*
X133286Y320767D01*
X133205Y320691D01*
X133170Y320638D01*
X133128Y320592D01*
X133074Y320494D01*
X133012Y320401D01*
X132990Y320342D01*
X132959Y320287D01*
X132929Y320179D01*
X132890Y320074D01*
X132881Y320012D01*
X132864Y319951D01*
X132849Y319760D01*
X132845Y319728D01*
X132846Y319720D01*
X132845Y319707D01*
X132845Y297458D01*
X131952Y296565D01*
X105688Y296565D01*
X104795Y297458D01*
X104795Y323722D01*
X105688Y324615D01*
X122781Y324615D01*
X122918Y324630D01*
X123056Y324640D01*
X123091Y324650D01*
X123127Y324655D01*
X123257Y324701D01*
X123389Y324741D01*
X123421Y324760D01*
X123455Y324772D01*
X123571Y324847D01*
X123690Y324916D01*
X123717Y324941D01*
X123748Y324961D01*
X123844Y325060D01*
X123944Y325155D01*
X123965Y325185D01*
X123990Y325212D01*
X124061Y325330D01*
X124137Y325445D01*
X124150Y325479D01*
X124169Y325511D01*
X124211Y325642D01*
X124259Y325771D01*
X124264Y325808D01*
X124275Y325843D01*
X124286Y325980D01*
X124304Y326117D01*
X124300Y326154D01*
X124303Y326190D01*
X124283Y326327D01*
X124269Y326464D01*
X124257Y326498D01*
X124252Y326535D01*
X124201Y326663D01*
X124156Y326793D01*
X124136Y326825D01*
X124123Y326859D01*
X124044Y326972D01*
X123971Y327089D01*
X123945Y327115D01*
X123924Y327145D01*
X123822Y327237D01*
X123724Y327334D01*
X123686Y327359D01*
X123665Y327378D01*
X123621Y327403D01*
X123520Y327470D01*
X122304Y328145D01*
X122266Y328161D01*
X122199Y328198D01*
X97026Y339724D01*
X96984Y339738D01*
X96906Y339773D01*
X79875Y345876D01*
X79840Y345884D01*
X79808Y345898D01*
X79671Y345924D01*
X79536Y345955D01*
X79500Y345955D01*
X79465Y345962D01*
X79326Y345955D01*
X79187Y345955D01*
X79152Y345947D01*
X79117Y345945D01*
X78983Y345908D01*
X78848Y345876D01*
X78816Y345860D01*
X78781Y345850D01*
X78660Y345783D01*
X78535Y345722D01*
X78508Y345699D01*
X78476Y345682D01*
X78373Y345589D01*
X78266Y345501D01*
X78244Y345472D01*
X78218Y345448D01*
X78139Y345334D01*
X78054Y345224D01*
X78039Y345191D01*
X78019Y345162D01*
X77968Y345033D01*
X77911Y344906D01*
X77904Y344871D01*
X77891Y344838D01*
X77870Y344701D01*
X77843Y344564D01*
X77844Y344529D01*
X77839Y344493D01*
X77850Y344249D01*
X77955Y343428D01*
X77826Y342954D01*
X77814Y342873D01*
X77792Y342795D01*
X77781Y342658D01*
X77774Y342609D01*
X77776Y342587D01*
X77773Y342551D01*
X77774Y342060D01*
X77249Y340787D01*
X77236Y340741D01*
X77188Y340607D01*
X76826Y339278D01*
X76526Y338890D01*
X76483Y338820D01*
X76433Y338756D01*
X76371Y338633D01*
X76345Y338591D01*
X76338Y338570D01*
X76322Y338538D01*
X76135Y338084D01*
X75163Y337109D01*
X75133Y337071D01*
X75037Y336965D01*
X74911Y336802D01*
X74894Y336775D01*
X74874Y336752D01*
X74804Y336626D01*
X74730Y336503D01*
X74721Y336474D01*
X74706Y336446D01*
X74667Y336308D01*
X74622Y336172D01*
X74620Y336141D01*
X74611Y336111D01*
X74592Y335867D01*
X74758Y241332D01*
X74773Y241207D01*
X74779Y241082D01*
X74793Y241035D01*
X74799Y240985D01*
X74841Y240868D01*
X74876Y240748D01*
X74900Y240704D01*
X74917Y240658D01*
X74985Y240552D01*
X75046Y240443D01*
X75086Y240396D01*
X75106Y240365D01*
X75141Y240332D01*
X75204Y240257D01*
X87177Y228285D01*
X87276Y228206D01*
X87370Y228122D01*
X87412Y228098D01*
X87450Y228068D01*
X87564Y228014D01*
X87675Y227953D01*
X87721Y227940D01*
X87765Y227919D01*
X87888Y227893D01*
X88010Y227858D01*
X88071Y227853D01*
X88106Y227846D01*
X88154Y227847D01*
X88254Y227839D01*
X100323Y227839D01*
X102195Y225967D01*
X102273Y225904D01*
X102346Y225834D01*
X102410Y225796D01*
X102468Y225750D01*
X102559Y225707D01*
X102645Y225656D01*
X102716Y225633D01*
X102783Y225601D01*
X102881Y225580D01*
X102977Y225549D01*
X103051Y225543D01*
X103124Y225528D01*
X103224Y225529D01*
X103324Y225521D01*
X103398Y225532D01*
X103472Y225534D01*
X103569Y225558D01*
X103669Y225573D01*
X103738Y225601D01*
X103810Y225619D01*
X103881Y225655D01*
X103855Y225573D01*
X103815Y225481D01*
X103802Y225408D01*
X103779Y225337D01*
X103771Y225237D01*
X103754Y225138D01*
X103757Y225064D01*
X103751Y224990D01*
X103766Y224890D01*
X103771Y224790D01*
X103792Y224719D01*
X103803Y224645D01*
X103840Y224552D01*
X103868Y224455D01*
X103904Y224390D01*
X103932Y224321D01*
X103989Y224239D01*
X104038Y224151D01*
X104103Y224075D01*
X104131Y224035D01*
X104157Y224011D01*
X104197Y223965D01*
X105797Y222365D01*
X108029Y220133D01*
X108029Y211248D01*
X108032Y211222D01*
X108030Y211196D01*
X108052Y211049D01*
X108069Y210902D01*
X108077Y210877D01*
X108081Y210851D01*
X108136Y210713D01*
X108186Y210574D01*
X108200Y210552D01*
X108210Y210527D01*
X108295Y210406D01*
X108375Y210281D01*
X108394Y210263D01*
X108409Y210241D01*
X108519Y210142D01*
X108626Y210039D01*
X108648Y210025D01*
X108668Y210008D01*
X108798Y209936D01*
X108925Y209860D01*
X108950Y209852D01*
X108973Y209839D01*
X109116Y209799D01*
X109257Y209754D01*
X109283Y209752D01*
X109308Y209744D01*
X109552Y209725D01*
X112612Y209725D01*
X113505Y208832D01*
X113505Y197568D01*
X112612Y196675D01*
X97348Y196675D01*
X96455Y197568D01*
X96455Y208832D01*
X97348Y209725D01*
X100408Y209725D01*
X100434Y209728D01*
X100460Y209726D01*
X100607Y209748D01*
X100754Y209765D01*
X100779Y209773D01*
X100805Y209777D01*
X100943Y209832D01*
X101082Y209882D01*
X101104Y209896D01*
X101129Y209906D01*
X101250Y209991D01*
X101375Y210071D01*
X101393Y210090D01*
X101415Y210105D01*
X101514Y210215D01*
X101617Y210322D01*
X101631Y210344D01*
X101648Y210364D01*
X101720Y210494D01*
X101796Y210621D01*
X101804Y210646D01*
X101817Y210669D01*
X101857Y210812D01*
X101902Y210953D01*
X101904Y210979D01*
X101912Y211004D01*
X101931Y211248D01*
X101931Y216976D01*
X101917Y217102D01*
X101910Y217228D01*
X101897Y217274D01*
X101891Y217322D01*
X101849Y217441D01*
X101814Y217563D01*
X101790Y217605D01*
X101774Y217651D01*
X101705Y217757D01*
X101644Y217867D01*
X101604Y217913D01*
X101585Y217943D01*
X101550Y217977D01*
X101485Y218053D01*
X98243Y221295D01*
X98144Y221374D01*
X98050Y221458D01*
X98008Y221482D01*
X97970Y221512D01*
X97856Y221566D01*
X97745Y221627D01*
X97699Y221640D01*
X97655Y221661D01*
X97532Y221687D01*
X97410Y221722D01*
X97349Y221727D01*
X97314Y221734D01*
X97266Y221733D01*
X97166Y221741D01*
X93209Y221741D01*
X93109Y221730D01*
X93008Y221728D01*
X92936Y221710D01*
X92863Y221701D01*
X92768Y221667D01*
X92670Y221643D01*
X92605Y221609D01*
X92535Y221584D01*
X92450Y221529D01*
X92360Y221483D01*
X92304Y221435D01*
X92242Y221395D01*
X92172Y221322D01*
X92095Y221257D01*
X92051Y221197D01*
X92000Y221144D01*
X91948Y221057D01*
X91888Y220976D01*
X91859Y220909D01*
X91821Y220845D01*
X91790Y220749D01*
X91750Y220656D01*
X91737Y220584D01*
X91715Y220513D01*
X91707Y220413D01*
X91689Y220313D01*
X91693Y220239D01*
X91687Y220166D01*
X91702Y220066D01*
X91707Y219965D01*
X91728Y219894D01*
X91739Y219821D01*
X91776Y219727D01*
X91804Y219630D01*
X91840Y219566D01*
X91867Y219497D01*
X91919Y219423D01*
X91957Y219357D01*
X91974Y219326D01*
X91976Y219324D01*
X92348Y218681D01*
X92521Y218035D01*
X92521Y215199D01*
X85479Y215199D01*
X85479Y220728D01*
X85465Y220854D01*
X85458Y220980D01*
X85445Y221026D01*
X85439Y221074D01*
X85397Y221193D01*
X85362Y221315D01*
X85338Y221357D01*
X85322Y221403D01*
X85253Y221509D01*
X85192Y221619D01*
X85152Y221665D01*
X85133Y221695D01*
X85098Y221729D01*
X85033Y221805D01*
X77381Y229457D01*
X77302Y229520D01*
X77228Y229591D01*
X77166Y229628D01*
X77108Y229674D01*
X77017Y229717D01*
X76929Y229769D01*
X76859Y229791D01*
X76793Y229823D01*
X76694Y229844D01*
X76597Y229875D01*
X76524Y229881D01*
X76453Y229896D01*
X76351Y229894D01*
X76249Y229902D01*
X76177Y229891D01*
X76104Y229890D01*
X76005Y229865D01*
X75905Y229850D01*
X75837Y229823D01*
X75766Y229805D01*
X75676Y229758D01*
X75581Y229721D01*
X75521Y229679D01*
X75456Y229645D01*
X75379Y229579D01*
X75295Y229521D01*
X75246Y229467D01*
X75191Y229419D01*
X75130Y229338D01*
X75062Y229262D01*
X75027Y229198D01*
X74984Y229139D01*
X74943Y229046D01*
X74894Y228957D01*
X74875Y228886D01*
X74846Y228819D01*
X74828Y228719D01*
X74800Y228621D01*
X74793Y228523D01*
X74784Y228476D01*
X74786Y228440D01*
X74781Y228377D01*
X74793Y221761D01*
X74796Y221737D01*
X74794Y221712D01*
X74816Y221564D01*
X74833Y221415D01*
X74842Y221392D01*
X74845Y221367D01*
X74900Y221228D01*
X74951Y221087D01*
X74965Y221066D01*
X74974Y221043D01*
X75059Y220921D01*
X75141Y220795D01*
X75159Y220777D01*
X75173Y220757D01*
X75284Y220657D01*
X75392Y220553D01*
X75413Y220540D01*
X75432Y220524D01*
X75562Y220451D01*
X75691Y220375D01*
X75715Y220367D01*
X75737Y220355D01*
X75880Y220315D01*
X76023Y220269D01*
X76048Y220267D01*
X76072Y220260D01*
X76316Y220241D01*
X80481Y220241D01*
X80481Y213676D01*
X80484Y213650D01*
X80482Y213624D01*
X80504Y213477D01*
X80521Y213330D01*
X80529Y213305D01*
X80533Y213279D01*
X80588Y213142D01*
X80638Y213002D01*
X80652Y212980D01*
X80662Y212955D01*
X80747Y212834D01*
X80827Y212709D01*
X80840Y212697D01*
X80795Y212650D01*
X80781Y212627D01*
X80764Y212608D01*
X80692Y212478D01*
X80616Y212351D01*
X80608Y212326D01*
X80595Y212303D01*
X80555Y212160D01*
X80510Y212019D01*
X80507Y211993D01*
X80500Y211968D01*
X80481Y211724D01*
X80481Y205159D01*
X76348Y205159D01*
X76320Y205156D01*
X76293Y205158D01*
X76148Y205136D01*
X76002Y205119D01*
X75976Y205110D01*
X75948Y205106D01*
X75812Y205051D01*
X75673Y205002D01*
X75650Y204987D01*
X75625Y204977D01*
X75504Y204892D01*
X75381Y204813D01*
X75362Y204793D01*
X75339Y204777D01*
X75240Y204668D01*
X75138Y204562D01*
X75124Y204539D01*
X75106Y204518D01*
X75035Y204389D01*
X74960Y204263D01*
X74951Y204237D01*
X74938Y204213D01*
X74898Y204071D01*
X74853Y203931D01*
X74851Y203904D01*
X74844Y203877D01*
X74825Y203633D01*
X74828Y201745D01*
X74831Y201721D01*
X74829Y201696D01*
X74851Y201548D01*
X74868Y201399D01*
X74877Y201376D01*
X74880Y201351D01*
X74936Y201212D01*
X74986Y201071D01*
X75000Y201050D01*
X75009Y201027D01*
X75094Y200905D01*
X75176Y200779D01*
X75194Y200761D01*
X75208Y200741D01*
X75319Y200641D01*
X75427Y200537D01*
X75448Y200524D01*
X75467Y200508D01*
X75598Y200435D01*
X75726Y200359D01*
X75750Y200351D01*
X75772Y200339D01*
X75916Y200299D01*
X76059Y200253D01*
X76083Y200251D01*
X76107Y200244D01*
X76351Y200225D01*
X90612Y200225D01*
X91505Y199332D01*
X91505Y188068D01*
X90612Y187175D01*
X76379Y187175D01*
X76352Y187172D01*
X76324Y187174D01*
X76179Y187152D01*
X76033Y187135D01*
X76007Y187126D01*
X75980Y187122D01*
X75844Y187067D01*
X75705Y187018D01*
X75682Y187003D01*
X75656Y186993D01*
X75536Y186908D01*
X75412Y186829D01*
X75393Y186809D01*
X75370Y186793D01*
X75272Y186684D01*
X75170Y186578D01*
X75156Y186555D01*
X75137Y186534D01*
X75067Y186405D01*
X74991Y186279D01*
X74983Y186253D01*
X74969Y186229D01*
X74930Y186087D01*
X74885Y185947D01*
X74883Y185920D01*
X74875Y185893D01*
X74856Y185649D01*
X75121Y34652D01*
X75125Y34621D01*
X75123Y34590D01*
X75145Y34448D01*
X75162Y34305D01*
X75172Y34276D01*
X75177Y34245D01*
X75231Y34113D01*
X75280Y33978D01*
X75297Y33951D01*
X75309Y33923D01*
X75443Y33718D01*
X75570Y33555D01*
X75604Y33521D01*
X75697Y33412D01*
X76672Y32440D01*
X76861Y31987D01*
X76900Y31916D01*
X76931Y31840D01*
X77007Y31725D01*
X77031Y31682D01*
X77046Y31666D01*
X77065Y31636D01*
X77367Y31248D01*
X77733Y29921D01*
X77752Y29876D01*
X77796Y29741D01*
X78325Y28470D01*
X78326Y27979D01*
X78331Y27935D01*
X78329Y27919D01*
X78335Y27881D01*
X78334Y27816D01*
X78360Y27681D01*
X78366Y27632D01*
X78374Y27611D01*
X78380Y27576D01*
X78511Y27102D01*
X78341Y25736D01*
X78341Y25687D01*
X78330Y25546D01*
X78332Y24169D01*
X78145Y23715D01*
X78123Y23636D01*
X78091Y23562D01*
X78063Y23427D01*
X78050Y23380D01*
X78049Y23357D01*
X78042Y23322D01*
X76740Y12841D01*
X76739Y12719D01*
X76730Y12598D01*
X76738Y12546D01*
X76737Y12492D01*
X76764Y12373D01*
X76782Y12254D01*
X76802Y12204D01*
X76814Y12152D01*
X76867Y12043D01*
X76911Y11930D01*
X76942Y11886D01*
X76965Y11838D01*
X77041Y11744D01*
X77111Y11644D01*
X77151Y11609D01*
X77184Y11567D01*
X77280Y11492D01*
X77370Y11411D01*
X77417Y11386D01*
X77459Y11353D01*
X77569Y11302D01*
X77675Y11243D01*
X77727Y11229D01*
X77775Y11206D01*
X77894Y11182D01*
X78011Y11149D01*
X78078Y11144D01*
X78116Y11136D01*
X78163Y11137D01*
X78255Y11130D01*
X86002Y11143D01*
X89246Y9807D01*
X89247Y9807D01*
X89247Y9806D01*
X89418Y9758D01*
X89581Y9712D01*
X89582Y9712D01*
X89583Y9711D01*
X89826Y9692D01*
X429077Y9692D01*
X429198Y9706D01*
G37*
G36*
X-308182Y90461D02*
X-308182Y90461D01*
X-308108Y90462D01*
X-308011Y90487D01*
X-307911Y90501D01*
X-307842Y90529D01*
X-307770Y90547D01*
X-307681Y90593D01*
X-307587Y90630D01*
X-307526Y90673D01*
X-307460Y90707D01*
X-307384Y90772D01*
X-307301Y90829D01*
X-307251Y90884D01*
X-307195Y90933D01*
X-307135Y91013D01*
X-307068Y91088D01*
X-307032Y91153D01*
X-306987Y91213D01*
X-306948Y91305D01*
X-306899Y91393D01*
X-306879Y91465D01*
X-306849Y91533D01*
X-306832Y91632D01*
X-306804Y91728D01*
X-306796Y91828D01*
X-306788Y91876D01*
X-306790Y91912D01*
X-306785Y91972D01*
X-306785Y95782D01*
X-305452Y97115D01*
X-302768Y97115D01*
X-302742Y97118D01*
X-302716Y97116D01*
X-302569Y97138D01*
X-302422Y97155D01*
X-302397Y97163D01*
X-302371Y97167D01*
X-302233Y97222D01*
X-302094Y97272D01*
X-302072Y97286D01*
X-302047Y97296D01*
X-301926Y97381D01*
X-301801Y97461D01*
X-301783Y97480D01*
X-301761Y97495D01*
X-301662Y97605D01*
X-301559Y97712D01*
X-301545Y97734D01*
X-301528Y97754D01*
X-301456Y97884D01*
X-301380Y98011D01*
X-301372Y98036D01*
X-301359Y98059D01*
X-301319Y98202D01*
X-301274Y98343D01*
X-301272Y98369D01*
X-301264Y98394D01*
X-301245Y98638D01*
X-301245Y121326D01*
X-301248Y121352D01*
X-301246Y121378D01*
X-301268Y121525D01*
X-301285Y121672D01*
X-301293Y121697D01*
X-301297Y121723D01*
X-301352Y121861D01*
X-301402Y122000D01*
X-301416Y122022D01*
X-301426Y122047D01*
X-301511Y122168D01*
X-301591Y122293D01*
X-301610Y122311D01*
X-301625Y122333D01*
X-301735Y122432D01*
X-301842Y122535D01*
X-301864Y122549D01*
X-301884Y122566D01*
X-302014Y122638D01*
X-302141Y122714D01*
X-302166Y122722D01*
X-302189Y122735D01*
X-302332Y122775D01*
X-302473Y122820D01*
X-302499Y122822D01*
X-302524Y122830D01*
X-302768Y122849D01*
X-304943Y122849D01*
X-305780Y123074D01*
X-306531Y123507D01*
X-307143Y124119D01*
X-307576Y124870D01*
X-307801Y125707D01*
X-307801Y133717D01*
X-302260Y133717D01*
X-302234Y133720D01*
X-302208Y133717D01*
X-302061Y133739D01*
X-301914Y133756D01*
X-301889Y133765D01*
X-301863Y133769D01*
X-301726Y133824D01*
X-301586Y133874D01*
X-301564Y133888D01*
X-301540Y133898D01*
X-301418Y133982D01*
X-301293Y134063D01*
X-301275Y134082D01*
X-301253Y134097D01*
X-301154Y134207D01*
X-301051Y134314D01*
X-301037Y134337D01*
X-301019Y134356D01*
X-300948Y134486D01*
X-300872Y134613D01*
X-300864Y134638D01*
X-300851Y134661D01*
X-300811Y134804D01*
X-300765Y134945D01*
X-300763Y134971D01*
X-300756Y134997D01*
X-300737Y135240D01*
X-300737Y147631D01*
X-299577Y147631D01*
X-298740Y147406D01*
X-297989Y146973D01*
X-297377Y146361D01*
X-296929Y145586D01*
X-296925Y145575D01*
X-296907Y145501D01*
X-296861Y145413D01*
X-296825Y145321D01*
X-296782Y145259D01*
X-296747Y145192D01*
X-296683Y145116D01*
X-296627Y145035D01*
X-296570Y144984D01*
X-296521Y144926D01*
X-296442Y144867D01*
X-296368Y144801D01*
X-296302Y144764D01*
X-296241Y144719D01*
X-296150Y144680D01*
X-296064Y144632D01*
X-295991Y144611D01*
X-295921Y144581D01*
X-295824Y144564D01*
X-295728Y144536D01*
X-295653Y144533D01*
X-295578Y144519D01*
X-295479Y144524D01*
X-295380Y144520D01*
X-295306Y144533D01*
X-295230Y144537D01*
X-295135Y144565D01*
X-295037Y144583D01*
X-294968Y144613D01*
X-294895Y144634D01*
X-294809Y144682D01*
X-294718Y144722D01*
X-294657Y144767D01*
X-294591Y144804D01*
X-294476Y144902D01*
X-294438Y144930D01*
X-294426Y144944D01*
X-294405Y144962D01*
X-293563Y145804D01*
X-293484Y145903D01*
X-293400Y145997D01*
X-293376Y146039D01*
X-293346Y146077D01*
X-293292Y146191D01*
X-293231Y146302D01*
X-293218Y146348D01*
X-293197Y146392D01*
X-293171Y146516D01*
X-293136Y146637D01*
X-293131Y146698D01*
X-293124Y146733D01*
X-293125Y146781D01*
X-293117Y146881D01*
X-293117Y150202D01*
X-293120Y150228D01*
X-293118Y150254D01*
X-293140Y150401D01*
X-293157Y150548D01*
X-293165Y150573D01*
X-293169Y150599D01*
X-293224Y150737D01*
X-293274Y150876D01*
X-293288Y150898D01*
X-293298Y150923D01*
X-293383Y151044D01*
X-293463Y151169D01*
X-293482Y151187D01*
X-293497Y151209D01*
X-293607Y151308D01*
X-293714Y151411D01*
X-293736Y151425D01*
X-293756Y151442D01*
X-293885Y151514D01*
X-294013Y151590D01*
X-294038Y151598D01*
X-294061Y151611D01*
X-294204Y151651D01*
X-294345Y151696D01*
X-294371Y151698D01*
X-294396Y151706D01*
X-294640Y151725D01*
X-297342Y151725D01*
X-298235Y152618D01*
X-298235Y164882D01*
X-297342Y165775D01*
X-286078Y165775D01*
X-285137Y164833D01*
X-285095Y164716D01*
X-285049Y164573D01*
X-285036Y164552D01*
X-285028Y164529D01*
X-284947Y164403D01*
X-284870Y164274D01*
X-284852Y164257D01*
X-284839Y164236D01*
X-284731Y164132D01*
X-284627Y164024D01*
X-284606Y164011D01*
X-284588Y163994D01*
X-284460Y163917D01*
X-284334Y163836D01*
X-284310Y163827D01*
X-284289Y163815D01*
X-284147Y163769D01*
X-284006Y163719D01*
X-283981Y163716D01*
X-283957Y163708D01*
X-283808Y163696D01*
X-283659Y163680D01*
X-283634Y163683D01*
X-283610Y163681D01*
X-283462Y163703D01*
X-283313Y163720D01*
X-283290Y163729D01*
X-283265Y163732D01*
X-283126Y163788D01*
X-282985Y163838D01*
X-282964Y163852D01*
X-282941Y163861D01*
X-282819Y163946D01*
X-282693Y164028D01*
X-282675Y164046D01*
X-282655Y164060D01*
X-282555Y164171D01*
X-282451Y164279D01*
X-282438Y164300D01*
X-282422Y164319D01*
X-282349Y164450D01*
X-282273Y164578D01*
X-282263Y164607D01*
X-282253Y164624D01*
X-282240Y164669D01*
X-282191Y164809D01*
X-282078Y165231D01*
X-281743Y165810D01*
X-281270Y166283D01*
X-280691Y166618D01*
X-280045Y166791D01*
X-277209Y166791D01*
X-277209Y159726D01*
X-277206Y159700D01*
X-277208Y159674D01*
X-277186Y159527D01*
X-277169Y159380D01*
X-277161Y159355D01*
X-277157Y159329D01*
X-277102Y159192D01*
X-277052Y159052D01*
X-277038Y159030D01*
X-277028Y159005D01*
X-276943Y158884D01*
X-276863Y158759D01*
X-276850Y158747D01*
X-276895Y158700D01*
X-276909Y158677D01*
X-276926Y158658D01*
X-276998Y158528D01*
X-277074Y158401D01*
X-277082Y158376D01*
X-277095Y158353D01*
X-277135Y158210D01*
X-277180Y158069D01*
X-277182Y158043D01*
X-277190Y158018D01*
X-277209Y157774D01*
X-277209Y150709D01*
X-280045Y150709D01*
X-280691Y150882D01*
X-281270Y151217D01*
X-281743Y151690D01*
X-282078Y152269D01*
X-282191Y152691D01*
X-282246Y152830D01*
X-282296Y152971D01*
X-282310Y152992D01*
X-282319Y153015D01*
X-282404Y153138D01*
X-282485Y153264D01*
X-282503Y153282D01*
X-282517Y153302D01*
X-282628Y153402D01*
X-282736Y153506D01*
X-282757Y153519D01*
X-282776Y153536D01*
X-282906Y153609D01*
X-283035Y153685D01*
X-283059Y153693D01*
X-283080Y153705D01*
X-283224Y153746D01*
X-283367Y153792D01*
X-283392Y153794D01*
X-283415Y153800D01*
X-283565Y153807D01*
X-283714Y153819D01*
X-283739Y153816D01*
X-283764Y153817D01*
X-283911Y153790D01*
X-284059Y153768D01*
X-284082Y153759D01*
X-284106Y153754D01*
X-284244Y153694D01*
X-284383Y153639D01*
X-284403Y153625D01*
X-284426Y153615D01*
X-284546Y153526D01*
X-284669Y153440D01*
X-284686Y153422D01*
X-284705Y153407D01*
X-284802Y153293D01*
X-284902Y153181D01*
X-284914Y153160D01*
X-284930Y153141D01*
X-284998Y153007D01*
X-285071Y152876D01*
X-285078Y152852D01*
X-285089Y152830D01*
X-285125Y152685D01*
X-285127Y152676D01*
X-285557Y152247D01*
X-285636Y152148D01*
X-285720Y152054D01*
X-285744Y152011D01*
X-285774Y151974D01*
X-285828Y151859D01*
X-285889Y151749D01*
X-285902Y151702D01*
X-285923Y151658D01*
X-285949Y151535D01*
X-285984Y151413D01*
X-285989Y151353D01*
X-285996Y151318D01*
X-285995Y151270D01*
X-286003Y151169D01*
X-286003Y146881D01*
X-285989Y146756D01*
X-285982Y146629D01*
X-285969Y146583D01*
X-285963Y146535D01*
X-285921Y146416D01*
X-285886Y146294D01*
X-285862Y146252D01*
X-285846Y146207D01*
X-285777Y146101D01*
X-285716Y145990D01*
X-285676Y145944D01*
X-285657Y145914D01*
X-285622Y145881D01*
X-285557Y145804D01*
X-284715Y144962D01*
X-284656Y144915D01*
X-284603Y144861D01*
X-284520Y144807D01*
X-284442Y144746D01*
X-284374Y144713D01*
X-284310Y144672D01*
X-284217Y144639D01*
X-284127Y144597D01*
X-284053Y144581D01*
X-283982Y144555D01*
X-283883Y144544D01*
X-283787Y144524D01*
X-283711Y144525D01*
X-283635Y144516D01*
X-283537Y144528D01*
X-283438Y144530D01*
X-283365Y144548D01*
X-283289Y144557D01*
X-283196Y144590D01*
X-283100Y144615D01*
X-283033Y144649D01*
X-282961Y144675D01*
X-282878Y144729D01*
X-282790Y144774D01*
X-282733Y144823D01*
X-282669Y144865D01*
X-282600Y144936D01*
X-282525Y145000D01*
X-282480Y145061D01*
X-282427Y145116D01*
X-282377Y145201D01*
X-282318Y145280D01*
X-282288Y145350D01*
X-282249Y145415D01*
X-282198Y145557D01*
X-282180Y145600D01*
X-282179Y145606D01*
X-281743Y146361D01*
X-281131Y146973D01*
X-280380Y147406D01*
X-279543Y147631D01*
X-278383Y147631D01*
X-278383Y135240D01*
X-278380Y135214D01*
X-278382Y135188D01*
X-278360Y135041D01*
X-278344Y134894D01*
X-278335Y134869D01*
X-278331Y134843D01*
X-278276Y134706D01*
X-278226Y134566D01*
X-278212Y134544D01*
X-278202Y134520D01*
X-278118Y134398D01*
X-278037Y134273D01*
X-278018Y134255D01*
X-278003Y134233D01*
X-277893Y134134D01*
X-277786Y134031D01*
X-277764Y134018D01*
X-277744Y134000D01*
X-277614Y133928D01*
X-277487Y133852D01*
X-277462Y133844D01*
X-277439Y133831D01*
X-277296Y133791D01*
X-277155Y133746D01*
X-277129Y133744D01*
X-277104Y133737D01*
X-276860Y133717D01*
X-276834Y133720D01*
X-276808Y133718D01*
X-276661Y133740D01*
X-276514Y133757D01*
X-276489Y133766D01*
X-276463Y133770D01*
X-276325Y133824D01*
X-276186Y133874D01*
X-276163Y133889D01*
X-276139Y133898D01*
X-276018Y133983D01*
X-275893Y134063D01*
X-275874Y134082D01*
X-275853Y134097D01*
X-275754Y134207D01*
X-275651Y134314D01*
X-275637Y134337D01*
X-275619Y134356D01*
X-275548Y134486D01*
X-275472Y134613D01*
X-275464Y134638D01*
X-275451Y134661D01*
X-275411Y134804D01*
X-275365Y134945D01*
X-275363Y134971D01*
X-275356Y134997D01*
X-275337Y135240D01*
X-275337Y147631D01*
X-274177Y147631D01*
X-273340Y147406D01*
X-272589Y146973D01*
X-271977Y146361D01*
X-271529Y145586D01*
X-271525Y145575D01*
X-271507Y145501D01*
X-271461Y145413D01*
X-271425Y145321D01*
X-271382Y145259D01*
X-271347Y145192D01*
X-271283Y145116D01*
X-271227Y145035D01*
X-271170Y144984D01*
X-271121Y144926D01*
X-271042Y144867D01*
X-270968Y144801D01*
X-270902Y144764D01*
X-270841Y144719D01*
X-270750Y144680D01*
X-270664Y144632D01*
X-270590Y144611D01*
X-270521Y144581D01*
X-270424Y144564D01*
X-270328Y144536D01*
X-270252Y144533D01*
X-270178Y144519D01*
X-270079Y144524D01*
X-269980Y144520D01*
X-269906Y144533D01*
X-269830Y144537D01*
X-269735Y144565D01*
X-269637Y144583D01*
X-269568Y144613D01*
X-269495Y144634D01*
X-269409Y144682D01*
X-269318Y144722D01*
X-269257Y144767D01*
X-269191Y144804D01*
X-269076Y144902D01*
X-269038Y144930D01*
X-269026Y144944D01*
X-269005Y144962D01*
X-268163Y145804D01*
X-268084Y145903D01*
X-268000Y145997D01*
X-267976Y146039D01*
X-267946Y146077D01*
X-267892Y146191D01*
X-267831Y146302D01*
X-267818Y146349D01*
X-267797Y146392D01*
X-267771Y146516D01*
X-267736Y146637D01*
X-267731Y146698D01*
X-267724Y146733D01*
X-267725Y146781D01*
X-267717Y146881D01*
X-267717Y149186D01*
X-267720Y149212D01*
X-267718Y149238D01*
X-267740Y149385D01*
X-267757Y149532D01*
X-267765Y149557D01*
X-267769Y149583D01*
X-267824Y149721D01*
X-267874Y149860D01*
X-267888Y149882D01*
X-267898Y149907D01*
X-267983Y150028D01*
X-268063Y150153D01*
X-268082Y150171D01*
X-268097Y150193D01*
X-268207Y150292D01*
X-268314Y150395D01*
X-268336Y150409D01*
X-268356Y150426D01*
X-268486Y150498D01*
X-268613Y150574D01*
X-268638Y150582D01*
X-268661Y150595D01*
X-268804Y150635D01*
X-268945Y150680D01*
X-268971Y150682D01*
X-268996Y150690D01*
X-269240Y150709D01*
X-272211Y150709D01*
X-272211Y157774D01*
X-272214Y157800D01*
X-272212Y157826D01*
X-272234Y157973D01*
X-272251Y158120D01*
X-272259Y158145D01*
X-272263Y158171D01*
X-272318Y158308D01*
X-272368Y158448D01*
X-272382Y158470D01*
X-272392Y158495D01*
X-272477Y158616D01*
X-272557Y158741D01*
X-272570Y158753D01*
X-272525Y158800D01*
X-272511Y158823D01*
X-272494Y158842D01*
X-272422Y158972D01*
X-272346Y159099D01*
X-272338Y159124D01*
X-272325Y159147D01*
X-272285Y159290D01*
X-272240Y159431D01*
X-272237Y159457D01*
X-272230Y159482D01*
X-272211Y159726D01*
X-272211Y166791D01*
X-269240Y166791D01*
X-269214Y166794D01*
X-269188Y166792D01*
X-269041Y166814D01*
X-268894Y166831D01*
X-268869Y166839D01*
X-268843Y166843D01*
X-268705Y166898D01*
X-268566Y166948D01*
X-268544Y166962D01*
X-268519Y166972D01*
X-268398Y167057D01*
X-268273Y167137D01*
X-268255Y167156D01*
X-268233Y167171D01*
X-268134Y167281D01*
X-268031Y167388D01*
X-268017Y167410D01*
X-268000Y167430D01*
X-267928Y167560D01*
X-267852Y167687D01*
X-267844Y167712D01*
X-267831Y167735D01*
X-267791Y167878D01*
X-267746Y168019D01*
X-267744Y168045D01*
X-267736Y168070D01*
X-267717Y168314D01*
X-267717Y180776D01*
X-267731Y180901D01*
X-267738Y181028D01*
X-267751Y181074D01*
X-267757Y181122D01*
X-267799Y181241D01*
X-267834Y181362D01*
X-267858Y181405D01*
X-267874Y181450D01*
X-267943Y181556D01*
X-268004Y181667D01*
X-268044Y181713D01*
X-268063Y181743D01*
X-268098Y181776D01*
X-268163Y181853D01*
X-270267Y183957D01*
X-270366Y184036D01*
X-270460Y184120D01*
X-270502Y184144D01*
X-270540Y184174D01*
X-270654Y184228D01*
X-270765Y184289D01*
X-270812Y184302D01*
X-270855Y184323D01*
X-270979Y184349D01*
X-271100Y184384D01*
X-271161Y184389D01*
X-271196Y184396D01*
X-271244Y184395D01*
X-271344Y184403D01*
X-287456Y184403D01*
X-287581Y184389D01*
X-287708Y184382D01*
X-287754Y184369D01*
X-287802Y184363D01*
X-287921Y184321D01*
X-288042Y184286D01*
X-288085Y184262D01*
X-288130Y184246D01*
X-288236Y184177D01*
X-288347Y184116D01*
X-288393Y184076D01*
X-288423Y184057D01*
X-288456Y184022D01*
X-288533Y183957D01*
X-310957Y161533D01*
X-311025Y161447D01*
X-311052Y161420D01*
X-311058Y161409D01*
X-311120Y161340D01*
X-311144Y161298D01*
X-311174Y161260D01*
X-311228Y161146D01*
X-311289Y161035D01*
X-311302Y160988D01*
X-311323Y160945D01*
X-311349Y160821D01*
X-311384Y160700D01*
X-311389Y160639D01*
X-311396Y160604D01*
X-311395Y160556D01*
X-311403Y160456D01*
X-311403Y93544D01*
X-311389Y93419D01*
X-311382Y93292D01*
X-311369Y93246D01*
X-311363Y93198D01*
X-311321Y93079D01*
X-311286Y92958D01*
X-311262Y92915D01*
X-311246Y92870D01*
X-311177Y92764D01*
X-311116Y92653D01*
X-311076Y92607D01*
X-311057Y92577D01*
X-311022Y92544D01*
X-310957Y92467D01*
X-309385Y90895D01*
X-309306Y90833D01*
X-309234Y90763D01*
X-309170Y90725D01*
X-309112Y90678D01*
X-309021Y90636D01*
X-308935Y90584D01*
X-308864Y90561D01*
X-308797Y90530D01*
X-308699Y90508D01*
X-308603Y90478D01*
X-308529Y90472D01*
X-308456Y90456D01*
X-308356Y90458D01*
X-308256Y90450D01*
X-308182Y90461D01*
G37*
%LPC*%
G36*
X204684Y53113D02*
X204684Y53113D01*
X202734Y53921D01*
X201730Y54925D01*
X201631Y55004D01*
X201537Y55088D01*
X201495Y55112D01*
X201457Y55142D01*
X201343Y55196D01*
X201232Y55257D01*
X201186Y55270D01*
X201142Y55291D01*
X201019Y55317D01*
X200897Y55352D01*
X200836Y55357D01*
X200801Y55364D01*
X200753Y55363D01*
X200653Y55371D01*
X153677Y55371D01*
X143001Y66047D01*
X143001Y201923D01*
X142987Y202049D01*
X142980Y202175D01*
X142967Y202221D01*
X142961Y202269D01*
X142919Y202388D01*
X142884Y202510D01*
X142860Y202552D01*
X142844Y202597D01*
X142775Y202703D01*
X142714Y202814D01*
X142674Y202860D01*
X142655Y202890D01*
X142620Y202924D01*
X142555Y203000D01*
X141551Y204004D01*
X140743Y205954D01*
X140743Y208066D01*
X141551Y210016D01*
X143044Y211509D01*
X144994Y212317D01*
X147106Y212317D01*
X149056Y211509D01*
X150549Y210016D01*
X151357Y208066D01*
X151357Y205954D01*
X150549Y204004D01*
X149545Y203000D01*
X149466Y202901D01*
X149382Y202807D01*
X149358Y202765D01*
X149328Y202727D01*
X149274Y202613D01*
X149213Y202502D01*
X149200Y202456D01*
X149179Y202412D01*
X149153Y202289D01*
X149118Y202167D01*
X149113Y202106D01*
X149106Y202071D01*
X149107Y202023D01*
X149099Y201923D01*
X149099Y69204D01*
X149113Y69078D01*
X149120Y68952D01*
X149133Y68906D01*
X149139Y68858D01*
X149181Y68739D01*
X149216Y68617D01*
X149240Y68575D01*
X149256Y68529D01*
X149325Y68423D01*
X149386Y68313D01*
X149426Y68267D01*
X149445Y68237D01*
X149480Y68203D01*
X149545Y68127D01*
X155757Y61915D01*
X155856Y61836D01*
X155950Y61752D01*
X155992Y61728D01*
X156030Y61698D01*
X156144Y61644D01*
X156255Y61583D01*
X156301Y61570D01*
X156345Y61549D01*
X156468Y61523D01*
X156590Y61488D01*
X156651Y61483D01*
X156686Y61476D01*
X156734Y61477D01*
X156834Y61469D01*
X200653Y61469D01*
X200779Y61483D01*
X200905Y61490D01*
X200951Y61503D01*
X200999Y61509D01*
X201118Y61551D01*
X201240Y61586D01*
X201282Y61610D01*
X201327Y61626D01*
X201433Y61695D01*
X201544Y61756D01*
X201590Y61796D01*
X201620Y61815D01*
X201632Y61828D01*
X201634Y61829D01*
X201656Y61852D01*
X201730Y61915D01*
X202734Y62919D01*
X204684Y63727D01*
X206796Y63727D01*
X208746Y62919D01*
X210239Y61426D01*
X211047Y59476D01*
X211047Y57364D01*
X210239Y55414D01*
X208746Y53921D01*
X206796Y53113D01*
X204684Y53113D01*
G37*
%LPD*%
%LPC*%
G36*
X104681Y226465D02*
X104681Y226465D01*
X104701Y226536D01*
X104731Y226604D01*
X104748Y226703D01*
X104776Y226800D01*
X104784Y226900D01*
X104792Y226947D01*
X104790Y226983D01*
X104795Y227044D01*
X104795Y244348D01*
X104792Y244374D01*
X104794Y244400D01*
X104772Y244547D01*
X104755Y244694D01*
X104747Y244719D01*
X104743Y244745D01*
X104688Y244883D01*
X104638Y245022D01*
X104624Y245044D01*
X104614Y245069D01*
X104529Y245190D01*
X104449Y245315D01*
X104430Y245333D01*
X104415Y245355D01*
X104305Y245454D01*
X104198Y245557D01*
X104176Y245571D01*
X104156Y245588D01*
X104026Y245660D01*
X103899Y245736D01*
X103874Y245744D01*
X103851Y245757D01*
X103708Y245797D01*
X103567Y245842D01*
X103541Y245844D01*
X103516Y245852D01*
X103272Y245871D01*
X93987Y245871D01*
X93861Y245857D01*
X93735Y245850D01*
X93689Y245837D01*
X93641Y245831D01*
X93522Y245789D01*
X93400Y245754D01*
X93358Y245730D01*
X93313Y245714D01*
X93207Y245645D01*
X93096Y245584D01*
X93050Y245544D01*
X93020Y245525D01*
X92986Y245490D01*
X92910Y245425D01*
X91906Y244421D01*
X89956Y243613D01*
X87844Y243613D01*
X85894Y244421D01*
X84401Y245914D01*
X83593Y247864D01*
X83593Y249976D01*
X84401Y251926D01*
X85894Y253419D01*
X87844Y254227D01*
X89956Y254227D01*
X91906Y253419D01*
X92910Y252415D01*
X93009Y252336D01*
X93103Y252252D01*
X93145Y252228D01*
X93183Y252198D01*
X93297Y252144D01*
X93408Y252083D01*
X93454Y252070D01*
X93498Y252049D01*
X93621Y252023D01*
X93743Y251988D01*
X93804Y251983D01*
X93839Y251976D01*
X93887Y251977D01*
X93987Y251969D01*
X103272Y251969D01*
X103298Y251972D01*
X103324Y251970D01*
X103471Y251992D01*
X103618Y252009D01*
X103643Y252017D01*
X103669Y252021D01*
X103807Y252076D01*
X103946Y252126D01*
X103968Y252140D01*
X103993Y252150D01*
X104114Y252235D01*
X104239Y252315D01*
X104257Y252334D01*
X104279Y252349D01*
X104378Y252459D01*
X104481Y252566D01*
X104495Y252588D01*
X104512Y252608D01*
X104584Y252738D01*
X104660Y252865D01*
X104668Y252890D01*
X104681Y252913D01*
X104721Y253056D01*
X104766Y253197D01*
X104768Y253223D01*
X104776Y253248D01*
X104795Y253492D01*
X104795Y253722D01*
X105688Y254615D01*
X131952Y254615D01*
X132845Y253722D01*
X132845Y227458D01*
X131952Y226565D01*
X105274Y226565D01*
X105174Y226554D01*
X105074Y226552D01*
X105001Y226534D01*
X104928Y226525D01*
X104833Y226492D01*
X104736Y226467D01*
X104669Y226433D01*
X104662Y226430D01*
X104681Y226465D01*
G37*
%LPD*%
%LPC*%
G36*
X-246162Y78175D02*
X-246162Y78175D01*
X-247055Y79068D01*
X-247055Y90666D01*
X-247026Y90767D01*
X-247022Y90827D01*
X-247014Y90862D01*
X-247015Y90910D01*
X-247007Y91010D01*
X-247007Y98632D01*
X-247010Y98658D01*
X-247008Y98684D01*
X-247030Y98831D01*
X-247047Y98978D01*
X-247055Y99003D01*
X-247059Y99029D01*
X-247114Y99167D01*
X-247164Y99306D01*
X-247178Y99328D01*
X-247188Y99353D01*
X-247273Y99474D01*
X-247353Y99599D01*
X-247372Y99617D01*
X-247387Y99639D01*
X-247497Y99738D01*
X-247604Y99841D01*
X-247626Y99855D01*
X-247646Y99872D01*
X-247775Y99944D01*
X-247903Y100020D01*
X-247928Y100028D01*
X-247951Y100041D01*
X-248094Y100081D01*
X-248235Y100126D01*
X-248261Y100128D01*
X-248286Y100136D01*
X-248530Y100155D01*
X-249582Y100155D01*
X-250475Y101048D01*
X-250475Y112312D01*
X-249582Y113205D01*
X-242586Y113205D01*
X-242461Y113219D01*
X-242334Y113226D01*
X-242288Y113239D01*
X-242240Y113245D01*
X-242121Y113287D01*
X-242000Y113322D01*
X-241957Y113346D01*
X-241912Y113362D01*
X-241806Y113431D01*
X-241695Y113492D01*
X-241649Y113532D01*
X-241619Y113551D01*
X-241586Y113586D01*
X-241509Y113651D01*
X-240223Y114937D01*
X-240144Y115036D01*
X-240060Y115130D01*
X-240036Y115172D01*
X-240006Y115210D01*
X-239952Y115324D01*
X-239891Y115435D01*
X-239878Y115482D01*
X-239857Y115525D01*
X-239831Y115649D01*
X-239796Y115770D01*
X-239791Y115831D01*
X-239784Y115866D01*
X-239785Y115914D01*
X-239777Y116014D01*
X-239777Y119512D01*
X-239785Y119587D01*
X-239784Y119663D01*
X-239805Y119760D01*
X-239817Y119858D01*
X-239842Y119929D01*
X-239858Y120003D01*
X-239901Y120093D01*
X-239934Y120186D01*
X-239975Y120250D01*
X-240008Y120318D01*
X-240070Y120396D01*
X-240123Y120479D01*
X-240178Y120531D01*
X-240225Y120591D01*
X-240303Y120652D01*
X-240374Y120721D01*
X-240439Y120760D01*
X-240499Y120807D01*
X-240588Y120849D01*
X-240673Y120900D01*
X-240745Y120923D01*
X-240814Y120955D01*
X-240911Y120976D01*
X-241005Y121006D01*
X-241080Y121012D01*
X-241155Y121028D01*
X-241254Y121026D01*
X-241352Y121034D01*
X-241427Y121023D01*
X-241503Y121021D01*
X-241599Y120997D01*
X-241697Y120982D01*
X-241767Y120954D01*
X-241841Y120935D01*
X-241954Y120882D01*
X-242635Y120699D01*
X-244197Y120699D01*
X-244197Y129240D01*
X-244197Y137781D01*
X-242635Y137781D01*
X-241989Y137608D01*
X-241410Y137273D01*
X-241329Y137192D01*
X-241308Y137175D01*
X-241290Y137155D01*
X-241171Y137067D01*
X-241056Y136975D01*
X-241031Y136964D01*
X-241010Y136948D01*
X-240874Y136889D01*
X-240741Y136826D01*
X-240714Y136821D01*
X-240690Y136810D01*
X-240544Y136784D01*
X-240400Y136753D01*
X-240373Y136753D01*
X-240347Y136749D01*
X-240199Y136756D01*
X-240052Y136759D01*
X-240028Y136765D01*
X-232838Y136765D01*
X-232547Y136473D01*
X-232527Y136457D01*
X-232510Y136437D01*
X-232390Y136349D01*
X-232274Y136257D01*
X-232250Y136246D01*
X-232229Y136230D01*
X-232093Y136171D01*
X-231959Y136108D01*
X-231933Y136102D01*
X-231909Y136092D01*
X-231763Y136066D01*
X-231618Y136034D01*
X-231592Y136035D01*
X-231566Y136030D01*
X-231418Y136038D01*
X-231270Y136040D01*
X-231244Y136047D01*
X-231218Y136048D01*
X-231076Y136089D01*
X-230932Y136125D01*
X-230908Y136138D01*
X-230883Y136145D01*
X-230754Y136217D01*
X-230622Y136285D01*
X-230602Y136302D01*
X-230579Y136315D01*
X-230393Y136473D01*
X-230102Y136765D01*
X-223338Y136765D01*
X-222445Y135872D01*
X-222445Y122608D01*
X-223338Y121715D01*
X-230112Y121715D01*
X-230142Y121739D01*
X-230214Y121809D01*
X-230278Y121847D01*
X-230336Y121893D01*
X-230427Y121936D01*
X-230513Y121988D01*
X-230584Y122010D01*
X-230651Y122042D01*
X-230749Y122063D01*
X-230845Y122094D01*
X-230919Y122100D01*
X-230992Y122116D01*
X-231092Y122114D01*
X-231192Y122122D01*
X-231266Y122111D01*
X-231340Y122110D01*
X-231438Y122085D01*
X-231537Y122070D01*
X-231606Y122043D01*
X-231678Y122025D01*
X-231767Y121979D01*
X-231861Y121941D01*
X-231922Y121899D01*
X-231988Y121865D01*
X-232064Y121800D01*
X-232147Y121743D01*
X-232197Y121687D01*
X-232253Y121639D01*
X-232313Y121558D01*
X-232380Y121484D01*
X-232416Y121419D01*
X-232461Y121359D01*
X-232500Y121267D01*
X-232549Y121179D01*
X-232569Y121107D01*
X-232599Y121039D01*
X-232616Y120940D01*
X-232644Y120843D01*
X-232652Y120743D01*
X-232660Y120696D01*
X-232658Y120660D01*
X-232663Y120600D01*
X-232663Y115744D01*
X-232660Y115718D01*
X-232662Y115692D01*
X-232640Y115545D01*
X-232623Y115398D01*
X-232615Y115373D01*
X-232611Y115347D01*
X-232556Y115209D01*
X-232506Y115070D01*
X-232492Y115048D01*
X-232482Y115023D01*
X-232397Y114902D01*
X-232317Y114777D01*
X-232298Y114759D01*
X-232283Y114737D01*
X-232173Y114638D01*
X-232066Y114535D01*
X-232044Y114521D01*
X-232024Y114504D01*
X-231894Y114432D01*
X-231767Y114356D01*
X-231742Y114348D01*
X-231719Y114335D01*
X-231576Y114295D01*
X-231435Y114250D01*
X-231409Y114248D01*
X-231384Y114240D01*
X-231140Y114221D01*
X-228949Y114221D01*
X-228949Y107656D01*
X-228946Y107630D01*
X-228948Y107604D01*
X-228926Y107457D01*
X-228909Y107310D01*
X-228901Y107285D01*
X-228897Y107259D01*
X-228842Y107122D01*
X-228792Y106982D01*
X-228778Y106960D01*
X-228768Y106935D01*
X-228683Y106814D01*
X-228603Y106689D01*
X-228590Y106677D01*
X-228635Y106630D01*
X-228649Y106607D01*
X-228666Y106588D01*
X-228738Y106458D01*
X-228814Y106331D01*
X-228822Y106306D01*
X-228835Y106283D01*
X-228875Y106140D01*
X-228920Y105999D01*
X-228922Y105973D01*
X-228930Y105948D01*
X-228949Y105704D01*
X-228949Y99139D01*
X-232285Y99139D01*
X-232931Y99312D01*
X-233510Y99647D01*
X-233983Y100120D01*
X-234224Y100538D01*
X-234255Y100579D01*
X-234278Y100624D01*
X-234358Y100718D01*
X-234432Y100818D01*
X-234471Y100851D01*
X-234504Y100889D01*
X-234603Y100963D01*
X-234698Y101043D01*
X-234743Y101066D01*
X-234784Y101097D01*
X-234898Y101146D01*
X-235008Y101202D01*
X-235057Y101214D01*
X-235104Y101235D01*
X-235226Y101256D01*
X-235346Y101286D01*
X-235397Y101287D01*
X-235447Y101296D01*
X-235571Y101290D01*
X-235694Y101292D01*
X-235744Y101281D01*
X-235795Y101278D01*
X-235914Y101244D01*
X-236035Y101218D01*
X-236081Y101196D01*
X-236130Y101182D01*
X-236238Y101121D01*
X-236350Y101068D01*
X-236390Y101037D01*
X-236434Y101012D01*
X-236621Y100853D01*
X-237318Y100155D01*
X-238370Y100155D01*
X-238396Y100152D01*
X-238422Y100154D01*
X-238569Y100132D01*
X-238716Y100115D01*
X-238741Y100107D01*
X-238767Y100103D01*
X-238905Y100048D01*
X-239044Y99998D01*
X-239066Y99984D01*
X-239091Y99974D01*
X-239212Y99889D01*
X-239337Y99809D01*
X-239355Y99790D01*
X-239377Y99775D01*
X-239476Y99665D01*
X-239579Y99558D01*
X-239593Y99536D01*
X-239610Y99516D01*
X-239682Y99386D01*
X-239758Y99259D01*
X-239766Y99234D01*
X-239779Y99211D01*
X-239819Y99068D01*
X-239864Y98927D01*
X-239866Y98901D01*
X-239874Y98876D01*
X-239893Y98632D01*
X-239893Y92748D01*
X-239890Y92722D01*
X-239892Y92696D01*
X-239870Y92549D01*
X-239853Y92402D01*
X-239845Y92377D01*
X-239841Y92351D01*
X-239786Y92213D01*
X-239736Y92074D01*
X-239722Y92052D01*
X-239712Y92027D01*
X-239627Y91906D01*
X-239547Y91781D01*
X-239528Y91763D01*
X-239513Y91741D01*
X-239403Y91642D01*
X-239296Y91539D01*
X-239274Y91525D01*
X-239254Y91508D01*
X-239124Y91436D01*
X-238997Y91360D01*
X-238972Y91352D01*
X-238949Y91339D01*
X-238806Y91299D01*
X-238665Y91254D01*
X-238639Y91252D01*
X-238614Y91244D01*
X-238370Y91225D01*
X-233898Y91225D01*
X-233005Y90332D01*
X-233005Y79068D01*
X-233898Y78175D01*
X-246162Y78175D01*
G37*
%LPD*%
%LPC*%
G36*
X305438Y96265D02*
X305438Y96265D01*
X304545Y97158D01*
X304545Y111122D01*
X305438Y112015D01*
X313690Y112015D01*
X313716Y112018D01*
X313742Y112016D01*
X313889Y112038D01*
X314036Y112055D01*
X314061Y112063D01*
X314087Y112067D01*
X314225Y112122D01*
X314364Y112172D01*
X314386Y112186D01*
X314411Y112196D01*
X314532Y112281D01*
X314657Y112361D01*
X314675Y112380D01*
X314697Y112395D01*
X314796Y112505D01*
X314899Y112612D01*
X314913Y112634D01*
X314930Y112654D01*
X315002Y112784D01*
X315078Y112911D01*
X315086Y112936D01*
X315099Y112959D01*
X315139Y113102D01*
X315184Y113243D01*
X315186Y113269D01*
X315194Y113294D01*
X315213Y113538D01*
X315213Y118546D01*
X315199Y118671D01*
X315192Y118798D01*
X315179Y118844D01*
X315173Y118892D01*
X315131Y119011D01*
X315096Y119132D01*
X315072Y119175D01*
X315056Y119220D01*
X314987Y119326D01*
X314926Y119437D01*
X314886Y119483D01*
X314867Y119513D01*
X314832Y119546D01*
X314767Y119623D01*
X311393Y122997D01*
X311294Y123076D01*
X311200Y123160D01*
X311158Y123184D01*
X311120Y123214D01*
X311006Y123268D01*
X310895Y123329D01*
X310848Y123342D01*
X310805Y123363D01*
X310681Y123389D01*
X310560Y123424D01*
X310499Y123429D01*
X310464Y123436D01*
X310416Y123435D01*
X310316Y123443D01*
X281439Y123443D01*
X281313Y123429D01*
X281187Y123422D01*
X281141Y123409D01*
X281093Y123403D01*
X280974Y123361D01*
X280852Y123326D01*
X280810Y123302D01*
X280765Y123286D01*
X280659Y123217D01*
X280548Y123156D01*
X280502Y123116D01*
X280472Y123097D01*
X280438Y123062D01*
X280362Y122997D01*
X279866Y122501D01*
X277916Y121693D01*
X275804Y121693D01*
X273854Y122501D01*
X272361Y123994D01*
X271553Y125944D01*
X271553Y128056D01*
X272361Y130006D01*
X273854Y131499D01*
X275804Y132307D01*
X277916Y132307D01*
X279866Y131499D01*
X280362Y131003D01*
X280461Y130924D01*
X280555Y130840D01*
X280597Y130816D01*
X280635Y130786D01*
X280749Y130732D01*
X280860Y130671D01*
X280906Y130658D01*
X280950Y130637D01*
X281073Y130611D01*
X281195Y130576D01*
X281256Y130571D01*
X281291Y130564D01*
X281339Y130565D01*
X281439Y130557D01*
X313893Y130557D01*
X322327Y122123D01*
X322327Y113538D01*
X322330Y113512D01*
X322328Y113486D01*
X322350Y113339D01*
X322367Y113192D01*
X322375Y113167D01*
X322379Y113141D01*
X322434Y113003D01*
X322484Y112864D01*
X322498Y112842D01*
X322508Y112817D01*
X322593Y112696D01*
X322673Y112571D01*
X322692Y112553D01*
X322707Y112531D01*
X322817Y112432D01*
X322924Y112329D01*
X322946Y112315D01*
X322966Y112298D01*
X323096Y112226D01*
X323223Y112150D01*
X323248Y112142D01*
X323271Y112129D01*
X323414Y112089D01*
X323555Y112044D01*
X323581Y112042D01*
X323606Y112034D01*
X323850Y112015D01*
X332102Y112015D01*
X332995Y111122D01*
X332995Y97158D01*
X332102Y96265D01*
X305438Y96265D01*
G37*
%LPD*%
%LPC*%
G36*
X305438Y58165D02*
X305438Y58165D01*
X304545Y59058D01*
X304545Y73022D01*
X305438Y73915D01*
X313690Y73915D01*
X313716Y73918D01*
X313742Y73916D01*
X313889Y73938D01*
X314036Y73955D01*
X314061Y73963D01*
X314087Y73967D01*
X314225Y74022D01*
X314364Y74072D01*
X314386Y74086D01*
X314411Y74096D01*
X314532Y74181D01*
X314657Y74261D01*
X314675Y74280D01*
X314697Y74295D01*
X314796Y74405D01*
X314899Y74512D01*
X314913Y74534D01*
X314930Y74554D01*
X315002Y74684D01*
X315078Y74811D01*
X315086Y74836D01*
X315099Y74859D01*
X315139Y75002D01*
X315184Y75143D01*
X315186Y75169D01*
X315194Y75194D01*
X315213Y75438D01*
X315213Y77906D01*
X315199Y78031D01*
X315192Y78158D01*
X315179Y78204D01*
X315173Y78252D01*
X315131Y78371D01*
X315096Y78492D01*
X315072Y78535D01*
X315056Y78580D01*
X314987Y78686D01*
X314926Y78797D01*
X314886Y78843D01*
X314867Y78873D01*
X314832Y78906D01*
X314767Y78983D01*
X313933Y79817D01*
X313834Y79896D01*
X313740Y79980D01*
X313698Y80004D01*
X313660Y80034D01*
X313546Y80088D01*
X313435Y80149D01*
X313388Y80162D01*
X313345Y80183D01*
X313221Y80209D01*
X313100Y80244D01*
X313039Y80249D01*
X313004Y80256D01*
X312956Y80255D01*
X312856Y80263D01*
X280169Y80263D01*
X280043Y80249D01*
X279917Y80242D01*
X279871Y80229D01*
X279823Y80223D01*
X279704Y80181D01*
X279582Y80146D01*
X279540Y80122D01*
X279495Y80106D01*
X279389Y80037D01*
X279278Y79976D01*
X279232Y79936D01*
X279202Y79917D01*
X279168Y79882D01*
X279092Y79817D01*
X278596Y79321D01*
X276646Y78513D01*
X274534Y78513D01*
X272584Y79321D01*
X271091Y80814D01*
X270283Y82764D01*
X270283Y84876D01*
X271091Y86826D01*
X272584Y88319D01*
X274534Y89127D01*
X276646Y89127D01*
X278596Y88319D01*
X279092Y87823D01*
X279191Y87744D01*
X279285Y87660D01*
X279327Y87636D01*
X279365Y87606D01*
X279479Y87552D01*
X279590Y87491D01*
X279636Y87478D01*
X279680Y87457D01*
X279803Y87431D01*
X279925Y87396D01*
X279986Y87391D01*
X280021Y87384D01*
X280069Y87385D01*
X280169Y87377D01*
X316433Y87377D01*
X322327Y81483D01*
X322327Y75438D01*
X322330Y75412D01*
X322328Y75386D01*
X322350Y75239D01*
X322367Y75092D01*
X322375Y75067D01*
X322379Y75041D01*
X322434Y74903D01*
X322484Y74764D01*
X322498Y74742D01*
X322508Y74717D01*
X322593Y74596D01*
X322673Y74471D01*
X322692Y74453D01*
X322707Y74431D01*
X322817Y74332D01*
X322924Y74229D01*
X322946Y74215D01*
X322966Y74198D01*
X323096Y74126D01*
X323223Y74050D01*
X323248Y74042D01*
X323271Y74029D01*
X323414Y73989D01*
X323555Y73944D01*
X323581Y73942D01*
X323606Y73934D01*
X323850Y73915D01*
X332102Y73915D01*
X332995Y73022D01*
X332995Y59058D01*
X332102Y58165D01*
X305438Y58165D01*
G37*
%LPD*%
%LPC*%
G36*
X-35378Y46249D02*
X-35378Y46249D01*
X-40307Y48291D01*
X-43023Y51007D01*
X-43083Y51055D01*
X-43136Y51110D01*
X-43219Y51163D01*
X-43296Y51224D01*
X-43365Y51256D01*
X-43429Y51298D01*
X-43522Y51331D01*
X-43611Y51373D01*
X-43686Y51389D01*
X-43758Y51414D01*
X-43856Y51425D01*
X-43952Y51446D01*
X-44028Y51445D01*
X-44104Y51453D01*
X-44202Y51442D01*
X-44300Y51440D01*
X-44374Y51422D01*
X-44450Y51413D01*
X-44592Y51367D01*
X-44638Y51355D01*
X-44646Y51351D01*
X-45487Y51184D01*
X-45487Y55158D01*
X-45505Y55321D01*
X-45523Y55491D01*
X-45526Y55499D01*
X-45526Y55505D01*
X-45535Y55528D01*
X-45596Y55724D01*
X-45596Y55725D01*
X-45624Y55777D01*
X-45644Y55833D01*
X-45644Y55834D01*
X-45707Y55930D01*
X-45761Y56032D01*
X-45801Y56076D01*
X-45833Y56126D01*
X-45916Y56206D01*
X-45992Y56293D01*
X-46041Y56327D01*
X-46084Y56369D01*
X-46183Y56428D01*
X-46277Y56494D01*
X-46332Y56517D01*
X-46383Y56547D01*
X-46493Y56583D01*
X-46599Y56626D01*
X-46658Y56635D01*
X-46715Y56654D01*
X-46830Y56663D01*
X-46943Y56681D01*
X-47003Y56677D01*
X-47062Y56682D01*
X-47176Y56665D01*
X-47291Y56656D01*
X-47348Y56639D01*
X-47407Y56630D01*
X-47514Y56587D01*
X-47624Y56553D01*
X-47675Y56523D01*
X-47731Y56501D01*
X-47825Y56436D01*
X-47925Y56377D01*
X-47968Y56336D01*
X-48017Y56302D01*
X-48094Y56217D01*
X-48178Y56138D01*
X-48210Y56088D01*
X-48250Y56043D01*
X-48306Y55943D01*
X-48370Y55847D01*
X-48390Y55791D01*
X-48419Y55738D01*
X-48450Y55627D01*
X-48490Y55520D01*
X-48498Y55461D01*
X-48514Y55403D01*
X-48530Y55199D01*
X-48533Y55174D01*
X-48533Y55168D01*
X-48533Y55159D01*
X-48533Y51184D01*
X-49367Y51350D01*
X-50838Y51959D01*
X-52161Y52843D01*
X-53287Y53969D01*
X-54171Y55292D01*
X-54780Y56763D01*
X-55091Y58324D01*
X-55091Y63137D01*
X-47010Y63137D01*
X-46984Y63140D01*
X-46958Y63137D01*
X-46811Y63159D01*
X-46664Y63176D01*
X-46639Y63185D01*
X-46613Y63189D01*
X-46476Y63244D01*
X-46336Y63294D01*
X-46314Y63308D01*
X-46290Y63318D01*
X-46168Y63402D01*
X-46043Y63483D01*
X-46025Y63502D01*
X-46003Y63517D01*
X-45904Y63627D01*
X-45801Y63734D01*
X-45787Y63757D01*
X-45769Y63776D01*
X-45698Y63906D01*
X-45622Y64033D01*
X-45614Y64058D01*
X-45601Y64081D01*
X-45561Y64224D01*
X-45515Y64365D01*
X-45513Y64391D01*
X-45506Y64417D01*
X-45487Y64660D01*
X-45487Y78136D01*
X-44653Y77970D01*
X-43182Y77361D01*
X-41859Y76477D01*
X-40733Y75351D01*
X-39849Y74028D01*
X-39439Y73037D01*
X-39426Y73014D01*
X-39418Y72989D01*
X-39394Y72950D01*
X-39393Y72947D01*
X-39389Y72942D01*
X-39341Y72862D01*
X-39269Y72733D01*
X-39252Y72713D01*
X-39238Y72691D01*
X-39135Y72584D01*
X-39035Y72475D01*
X-39014Y72460D01*
X-38995Y72441D01*
X-38870Y72361D01*
X-38749Y72276D01*
X-38724Y72267D01*
X-38702Y72253D01*
X-38562Y72203D01*
X-38424Y72149D01*
X-38398Y72145D01*
X-38374Y72136D01*
X-38226Y72119D01*
X-38080Y72098D01*
X-38053Y72100D01*
X-38027Y72097D01*
X-37880Y72114D01*
X-37732Y72127D01*
X-37707Y72135D01*
X-37681Y72138D01*
X-37448Y72213D01*
X-35378Y73071D01*
X-30042Y73071D01*
X-25113Y71029D01*
X-21341Y67257D01*
X-19299Y62328D01*
X-19299Y56992D01*
X-21341Y52063D01*
X-25113Y48291D01*
X-30042Y46249D01*
X-35378Y46249D01*
G37*
%LPD*%
%LPC*%
G36*
X22422Y46249D02*
X22422Y46249D01*
X17493Y48291D01*
X13721Y52063D01*
X11679Y56992D01*
X11679Y62328D01*
X13721Y67257D01*
X17493Y71029D01*
X22422Y73071D01*
X27758Y73071D01*
X29828Y72213D01*
X29854Y72206D01*
X29877Y72194D01*
X30021Y72158D01*
X30164Y72117D01*
X30190Y72116D01*
X30215Y72110D01*
X30364Y72107D01*
X30512Y72100D01*
X30537Y72105D01*
X30564Y72105D01*
X30709Y72136D01*
X30855Y72163D01*
X30879Y72173D01*
X30904Y72179D01*
X31038Y72243D01*
X31174Y72302D01*
X31195Y72317D01*
X31219Y72329D01*
X31335Y72421D01*
X31454Y72510D01*
X31471Y72530D01*
X31491Y72546D01*
X31583Y72662D01*
X31679Y72776D01*
X31691Y72799D01*
X31707Y72820D01*
X31819Y73037D01*
X32229Y74028D01*
X33113Y75351D01*
X34239Y76477D01*
X35562Y77361D01*
X37033Y77970D01*
X37867Y78136D01*
X37867Y64660D01*
X37870Y64634D01*
X37867Y64608D01*
X37889Y64461D01*
X37906Y64314D01*
X37915Y64289D01*
X37919Y64263D01*
X37974Y64125D01*
X38024Y63986D01*
X38038Y63964D01*
X38048Y63940D01*
X38132Y63818D01*
X38213Y63693D01*
X38232Y63675D01*
X38247Y63653D01*
X38357Y63554D01*
X38464Y63451D01*
X38487Y63437D01*
X38506Y63419D01*
X38636Y63348D01*
X38763Y63272D01*
X38788Y63264D01*
X38811Y63251D01*
X38954Y63211D01*
X39095Y63165D01*
X39121Y63163D01*
X39147Y63156D01*
X39390Y63137D01*
X47471Y63137D01*
X47471Y58324D01*
X47249Y57208D01*
X47249Y57207D01*
X47160Y56763D01*
X46551Y55292D01*
X45667Y53969D01*
X44541Y52843D01*
X43218Y51959D01*
X41747Y51350D01*
X40913Y51184D01*
X40913Y55159D01*
X40907Y55219D01*
X40909Y55278D01*
X40887Y55391D01*
X40874Y55505D01*
X40853Y55562D01*
X40842Y55620D01*
X40795Y55725D01*
X40756Y55834D01*
X40724Y55884D01*
X40699Y55938D01*
X40629Y56030D01*
X40567Y56126D01*
X40524Y56168D01*
X40488Y56215D01*
X40399Y56288D01*
X40316Y56369D01*
X40265Y56399D01*
X40219Y56437D01*
X40116Y56488D01*
X40017Y56547D01*
X39961Y56566D01*
X39907Y56592D01*
X39795Y56619D01*
X39685Y56654D01*
X39626Y56658D01*
X39568Y56672D01*
X39453Y56672D01*
X39338Y56682D01*
X39279Y56673D01*
X39219Y56673D01*
X39107Y56647D01*
X38993Y56630D01*
X38938Y56608D01*
X38880Y56594D01*
X38776Y56544D01*
X38669Y56501D01*
X38620Y56467D01*
X38567Y56441D01*
X38478Y56368D01*
X38383Y56302D01*
X38343Y56258D01*
X38297Y56220D01*
X38227Y56129D01*
X38150Y56043D01*
X38121Y55991D01*
X38085Y55944D01*
X37993Y55760D01*
X37981Y55738D01*
X37979Y55732D01*
X37976Y55725D01*
X37976Y55724D01*
X37931Y55562D01*
X37886Y55402D01*
X37886Y55394D01*
X37884Y55388D01*
X37883Y55363D01*
X37867Y55158D01*
X37867Y51184D01*
X36989Y51358D01*
X36919Y51389D01*
X36822Y51406D01*
X36728Y51433D01*
X36651Y51437D01*
X36576Y51450D01*
X36478Y51445D01*
X36380Y51450D01*
X36304Y51436D01*
X36228Y51432D01*
X36134Y51405D01*
X36037Y51388D01*
X35967Y51357D01*
X35893Y51336D01*
X35807Y51288D01*
X35717Y51249D01*
X35656Y51203D01*
X35589Y51166D01*
X35475Y51069D01*
X35438Y51041D01*
X35425Y51026D01*
X35403Y51007D01*
X32687Y48291D01*
X27758Y46249D01*
X22422Y46249D01*
G37*
%LPD*%
%LPC*%
G36*
X273264Y63273D02*
X273264Y63273D01*
X271314Y64081D01*
X269821Y65574D01*
X269013Y67524D01*
X269013Y68072D01*
X269010Y68098D01*
X269012Y68124D01*
X268990Y68271D01*
X268973Y68418D01*
X268965Y68443D01*
X268961Y68469D01*
X268906Y68607D01*
X268856Y68746D01*
X268842Y68768D01*
X268832Y68793D01*
X268747Y68914D01*
X268667Y69039D01*
X268648Y69057D01*
X268633Y69079D01*
X268523Y69178D01*
X268416Y69281D01*
X268394Y69295D01*
X268374Y69312D01*
X268244Y69384D01*
X268117Y69460D01*
X268092Y69468D01*
X268069Y69481D01*
X267926Y69521D01*
X267785Y69566D01*
X267759Y69568D01*
X267734Y69576D01*
X267490Y69595D01*
X231252Y69595D01*
X206271Y94577D01*
X206172Y94656D01*
X206078Y94740D01*
X206035Y94764D01*
X205998Y94794D01*
X205883Y94848D01*
X205773Y94909D01*
X205726Y94922D01*
X205682Y94943D01*
X205559Y94969D01*
X205437Y95004D01*
X205376Y95009D01*
X205342Y95016D01*
X205294Y95015D01*
X205193Y95023D01*
X203414Y95023D01*
X201464Y95831D01*
X199971Y97324D01*
X199163Y99274D01*
X199163Y101386D01*
X199971Y103336D01*
X201464Y104829D01*
X203414Y105637D01*
X205526Y105637D01*
X207476Y104829D01*
X208969Y103336D01*
X209777Y101386D01*
X209777Y99607D01*
X209791Y99481D01*
X209798Y99355D01*
X209811Y99308D01*
X209817Y99260D01*
X209859Y99141D01*
X209894Y99020D01*
X209918Y98978D01*
X209934Y98932D01*
X210003Y98826D01*
X210064Y98716D01*
X210104Y98669D01*
X210123Y98639D01*
X210158Y98606D01*
X210223Y98529D01*
X233121Y75631D01*
X233220Y75552D01*
X233314Y75468D01*
X233357Y75444D01*
X233394Y75414D01*
X233509Y75360D01*
X233619Y75299D01*
X233666Y75286D01*
X233710Y75265D01*
X233833Y75239D01*
X233955Y75204D01*
X234016Y75199D01*
X234050Y75192D01*
X234098Y75193D01*
X234199Y75185D01*
X271668Y75185D01*
X272519Y74333D01*
X272618Y74254D01*
X272712Y74170D01*
X272755Y74146D01*
X272792Y74116D01*
X272907Y74062D01*
X273017Y74001D01*
X273064Y73988D01*
X273108Y73967D01*
X273231Y73941D01*
X273353Y73906D01*
X273414Y73901D01*
X273448Y73894D01*
X273496Y73895D01*
X273597Y73887D01*
X275376Y73887D01*
X277326Y73079D01*
X278819Y71586D01*
X279627Y69636D01*
X279627Y67524D01*
X278819Y65574D01*
X277326Y64081D01*
X275376Y63273D01*
X273264Y63273D01*
G37*
%LPD*%
%LPC*%
G36*
X231354Y100103D02*
X231354Y100103D01*
X229404Y100911D01*
X227911Y102404D01*
X227103Y104354D01*
X227103Y105774D01*
X227089Y105900D01*
X227082Y106026D01*
X227069Y106072D01*
X227063Y106120D01*
X227021Y106239D01*
X226986Y106361D01*
X226962Y106403D01*
X226946Y106449D01*
X226877Y106555D01*
X226816Y106665D01*
X226776Y106711D01*
X226757Y106741D01*
X226722Y106775D01*
X226657Y106851D01*
X226513Y106995D01*
X224281Y109227D01*
X224281Y160666D01*
X224267Y160792D01*
X224260Y160918D01*
X224247Y160964D01*
X224241Y161012D01*
X224199Y161131D01*
X224164Y161253D01*
X224140Y161295D01*
X224124Y161341D01*
X224055Y161447D01*
X223994Y161557D01*
X223954Y161603D01*
X223935Y161633D01*
X223900Y161667D01*
X223835Y161743D01*
X223654Y161925D01*
X223633Y161941D01*
X223616Y161961D01*
X223497Y162049D01*
X223381Y162141D01*
X223357Y162153D01*
X223336Y162168D01*
X223200Y162227D01*
X223066Y162290D01*
X223040Y162296D01*
X223016Y162306D01*
X222870Y162332D01*
X222725Y162364D01*
X222699Y162363D01*
X222673Y162368D01*
X222525Y162360D01*
X222377Y162358D01*
X222351Y162351D01*
X222325Y162350D01*
X222182Y162309D01*
X222039Y162273D01*
X222015Y162261D01*
X221990Y162253D01*
X221860Y162181D01*
X221729Y162113D01*
X221709Y162096D01*
X221686Y162083D01*
X221499Y161925D01*
X221446Y161871D01*
X219496Y161063D01*
X217384Y161063D01*
X215434Y161871D01*
X213941Y163364D01*
X213133Y165314D01*
X213133Y167426D01*
X213941Y169376D01*
X215434Y170869D01*
X217384Y171677D01*
X219496Y171677D01*
X221446Y170869D01*
X222450Y169865D01*
X222549Y169786D01*
X222643Y169702D01*
X222685Y169678D01*
X222723Y169648D01*
X222837Y169594D01*
X222948Y169533D01*
X222994Y169520D01*
X223038Y169499D01*
X223161Y169473D01*
X223283Y169438D01*
X223344Y169433D01*
X223379Y169426D01*
X223427Y169427D01*
X223527Y169419D01*
X224783Y169419D01*
X227015Y167187D01*
X230379Y163823D01*
X230379Y112384D01*
X230393Y112258D01*
X230400Y112132D01*
X230413Y112085D01*
X230419Y112038D01*
X230461Y111919D01*
X230496Y111797D01*
X230520Y111755D01*
X230536Y111709D01*
X230605Y111603D01*
X230666Y111493D01*
X230706Y111447D01*
X230725Y111417D01*
X230760Y111383D01*
X230825Y111307D01*
X230969Y111163D01*
X231068Y111084D01*
X231162Y111000D01*
X231204Y110976D01*
X231242Y110946D01*
X231356Y110892D01*
X231467Y110831D01*
X231513Y110818D01*
X231557Y110797D01*
X231680Y110771D01*
X231802Y110736D01*
X231863Y110731D01*
X231898Y110724D01*
X231946Y110725D01*
X232046Y110717D01*
X233466Y110717D01*
X235416Y109909D01*
X236909Y108416D01*
X237717Y106466D01*
X237717Y104354D01*
X236909Y102404D01*
X235416Y100911D01*
X233466Y100103D01*
X231354Y100103D01*
G37*
%LPD*%
%LPC*%
G36*
X183094Y157253D02*
X183094Y157253D01*
X181144Y158061D01*
X179651Y159554D01*
X178843Y161504D01*
X178843Y163616D01*
X179651Y165566D01*
X181144Y167059D01*
X183094Y167867D01*
X183388Y167867D01*
X183414Y167870D01*
X183440Y167868D01*
X183587Y167890D01*
X183734Y167907D01*
X183759Y167915D01*
X183785Y167919D01*
X183923Y167974D01*
X184062Y168024D01*
X184084Y168038D01*
X184109Y168048D01*
X184230Y168133D01*
X184355Y168213D01*
X184373Y168232D01*
X184395Y168247D01*
X184494Y168357D01*
X184597Y168464D01*
X184611Y168486D01*
X184628Y168506D01*
X184700Y168636D01*
X184776Y168763D01*
X184784Y168788D01*
X184797Y168811D01*
X184837Y168954D01*
X184882Y169095D01*
X184884Y169121D01*
X184892Y169146D01*
X184911Y169390D01*
X184911Y200354D01*
X184894Y200503D01*
X184882Y200653D01*
X184874Y200676D01*
X184871Y200700D01*
X184821Y200842D01*
X184774Y200985D01*
X184762Y201005D01*
X184754Y201028D01*
X184672Y201155D01*
X184595Y201283D01*
X184578Y201301D01*
X184565Y201321D01*
X184457Y201425D01*
X184352Y201533D01*
X184332Y201546D01*
X184314Y201563D01*
X184185Y201640D01*
X184059Y201721D01*
X184036Y201730D01*
X184015Y201742D01*
X183872Y201788D01*
X183730Y201838D01*
X183706Y201841D01*
X183683Y201848D01*
X183534Y201860D01*
X183384Y201877D01*
X183360Y201874D01*
X183336Y201876D01*
X183187Y201854D01*
X183038Y201836D01*
X183010Y201827D01*
X182991Y201824D01*
X182947Y201807D01*
X182805Y201761D01*
X182666Y201703D01*
X180554Y201703D01*
X178604Y202511D01*
X177111Y204004D01*
X176303Y205954D01*
X176303Y208066D01*
X177111Y210016D01*
X178604Y211509D01*
X180554Y212317D01*
X182666Y212317D01*
X184616Y211509D01*
X186109Y210016D01*
X186455Y209181D01*
X186456Y209179D01*
X186456Y209177D01*
X186542Y209023D01*
X186624Y208876D01*
X186626Y208875D01*
X186627Y208873D01*
X186785Y208687D01*
X188777Y206695D01*
X191009Y204463D01*
X191009Y165107D01*
X189903Y164001D01*
X189824Y163902D01*
X189740Y163808D01*
X189716Y163766D01*
X189686Y163728D01*
X189632Y163614D01*
X189571Y163503D01*
X189558Y163457D01*
X189537Y163413D01*
X189511Y163290D01*
X189476Y163168D01*
X189471Y163107D01*
X189464Y163072D01*
X189465Y163024D01*
X189457Y162924D01*
X189457Y161504D01*
X188649Y159554D01*
X187156Y158061D01*
X185206Y157253D01*
X183094Y157253D01*
G37*
%LPD*%
%LPC*%
G36*
X286774Y95769D02*
X286774Y95769D01*
X286175Y97567D01*
X288538Y102292D01*
X288591Y102438D01*
X288648Y102582D01*
X288650Y102601D01*
X288657Y102619D01*
X288676Y102774D01*
X288698Y102926D01*
X288696Y102946D01*
X288699Y102965D01*
X288682Y103120D01*
X288669Y103274D01*
X288663Y103292D01*
X288661Y103312D01*
X288609Y103459D01*
X288561Y103605D01*
X288551Y103622D01*
X288545Y103641D01*
X288461Y103771D01*
X288381Y103904D01*
X288368Y103918D01*
X288357Y103934D01*
X288247Y104042D01*
X288239Y104050D01*
X286357Y107309D01*
X286357Y110954D01*
X288180Y114111D01*
X291337Y115934D01*
X298623Y115934D01*
X299962Y114594D01*
X299962Y96444D01*
X298623Y95104D01*
X296728Y95104D01*
X295389Y96444D01*
X295389Y99314D01*
X295369Y99483D01*
X295350Y99653D01*
X295349Y99657D01*
X295349Y99660D01*
X295292Y99818D01*
X295235Y99982D01*
X295233Y99985D01*
X295231Y99988D01*
X295138Y100133D01*
X295047Y100275D01*
X295044Y100278D01*
X295042Y100281D01*
X294918Y100401D01*
X294798Y100519D01*
X294794Y100521D01*
X294792Y100523D01*
X294645Y100611D01*
X294499Y100699D01*
X294496Y100700D01*
X294492Y100702D01*
X294333Y100753D01*
X294168Y100807D01*
X294164Y100807D01*
X294161Y100808D01*
X293992Y100822D01*
X293821Y100837D01*
X293817Y100836D01*
X293813Y100836D01*
X293644Y100811D01*
X293476Y100787D01*
X293472Y100785D01*
X293468Y100785D01*
X293309Y100721D01*
X293151Y100660D01*
X293148Y100657D01*
X293145Y100656D01*
X293003Y100558D01*
X292864Y100462D01*
X292862Y100459D01*
X292858Y100457D01*
X292745Y100331D01*
X292629Y100205D01*
X292627Y100201D01*
X292625Y100198D01*
X292618Y100185D01*
X292503Y99995D01*
X290266Y95521D01*
X288469Y94922D01*
X286774Y95769D01*
G37*
%LPD*%
%LPC*%
G36*
X-190807Y109449D02*
X-190807Y109449D01*
X-190807Y119790D01*
X-190807Y130131D01*
X-190430Y130131D01*
X-189656Y129924D01*
X-188927Y129502D01*
X-188902Y129482D01*
X-188808Y129398D01*
X-188765Y129374D01*
X-188728Y129344D01*
X-188613Y129290D01*
X-188503Y129229D01*
X-188456Y129216D01*
X-188413Y129195D01*
X-188289Y129169D01*
X-188167Y129134D01*
X-188107Y129129D01*
X-188072Y129122D01*
X-188024Y129123D01*
X-187924Y129115D01*
X-183491Y129115D01*
X-182305Y127929D01*
X-182305Y111651D01*
X-183491Y110465D01*
X-187924Y110465D01*
X-188049Y110451D01*
X-188175Y110444D01*
X-188222Y110431D01*
X-188270Y110425D01*
X-188389Y110383D01*
X-188510Y110348D01*
X-188552Y110324D01*
X-188598Y110308D01*
X-188704Y110239D01*
X-188814Y110178D01*
X-188861Y110138D01*
X-188891Y110119D01*
X-188924Y110084D01*
X-188942Y110069D01*
X-189656Y109656D01*
X-190430Y109449D01*
X-190807Y109449D01*
G37*
%LPD*%
%LPC*%
G36*
X-190807Y167049D02*
X-190807Y167049D01*
X-190807Y177390D01*
X-190807Y187731D01*
X-190430Y187731D01*
X-189656Y187524D01*
X-188927Y187102D01*
X-188902Y187082D01*
X-188808Y186998D01*
X-188766Y186974D01*
X-188728Y186944D01*
X-188614Y186890D01*
X-188503Y186829D01*
X-188456Y186816D01*
X-188413Y186795D01*
X-188289Y186769D01*
X-188167Y186734D01*
X-188107Y186729D01*
X-188072Y186722D01*
X-188024Y186723D01*
X-187924Y186715D01*
X-183491Y186715D01*
X-182305Y185529D01*
X-182305Y169251D01*
X-183491Y168065D01*
X-187924Y168065D01*
X-188049Y168051D01*
X-188175Y168044D01*
X-188222Y168031D01*
X-188270Y168025D01*
X-188389Y167983D01*
X-188510Y167948D01*
X-188552Y167924D01*
X-188598Y167908D01*
X-188704Y167839D01*
X-188814Y167778D01*
X-188861Y167738D01*
X-188891Y167719D01*
X-188924Y167684D01*
X-188942Y167669D01*
X-189656Y167256D01*
X-190430Y167049D01*
X-190807Y167049D01*
G37*
%LPD*%
%LPC*%
G36*
X287903Y54848D02*
X287903Y54848D01*
X286563Y56188D01*
X286563Y58082D01*
X287903Y59421D01*
X292265Y59421D01*
X292291Y59424D01*
X292317Y59422D01*
X292464Y59444D01*
X292611Y59461D01*
X292636Y59470D01*
X292662Y59474D01*
X292800Y59529D01*
X292939Y59579D01*
X292962Y59593D01*
X292986Y59603D01*
X293107Y59687D01*
X293232Y59768D01*
X293251Y59787D01*
X293272Y59802D01*
X293371Y59912D01*
X293474Y60019D01*
X293488Y60041D01*
X293505Y60061D01*
X293577Y60190D01*
X293653Y60318D01*
X293661Y60343D01*
X293674Y60366D01*
X293714Y60508D01*
X293759Y60650D01*
X293762Y60676D01*
X293769Y60701D01*
X293788Y60945D01*
X293788Y74338D01*
X295128Y75677D01*
X297022Y75677D01*
X298362Y74338D01*
X298362Y56188D01*
X297022Y54848D01*
X287903Y54848D01*
G37*
%LPD*%
%LPC*%
G36*
X-121268Y87138D02*
X-121268Y87138D01*
X-122607Y88477D01*
X-122607Y91033D01*
X-122610Y91059D01*
X-122608Y91086D01*
X-122630Y91232D01*
X-122647Y91380D01*
X-122656Y91404D01*
X-122660Y91430D01*
X-122715Y91568D01*
X-122765Y91708D01*
X-122779Y91730D01*
X-122789Y91754D01*
X-122873Y91876D01*
X-122954Y92000D01*
X-122973Y92019D01*
X-122988Y92040D01*
X-123097Y92139D01*
X-123204Y92243D01*
X-123227Y92256D01*
X-123246Y92274D01*
X-123376Y92345D01*
X-123503Y92421D01*
X-123528Y92429D01*
X-123551Y92442D01*
X-123694Y92483D01*
X-123835Y92528D01*
X-123862Y92530D01*
X-123887Y92537D01*
X-124131Y92557D01*
X-126687Y92557D01*
X-128026Y93896D01*
X-128026Y95791D01*
X-126687Y97130D01*
X-124131Y97130D01*
X-124104Y97133D01*
X-124078Y97131D01*
X-123932Y97153D01*
X-123784Y97170D01*
X-123760Y97179D01*
X-123734Y97183D01*
X-123596Y97237D01*
X-123456Y97287D01*
X-123434Y97302D01*
X-123410Y97311D01*
X-123288Y97396D01*
X-123163Y97476D01*
X-123145Y97495D01*
X-123124Y97510D01*
X-123025Y97620D01*
X-122921Y97727D01*
X-122908Y97750D01*
X-122890Y97769D01*
X-122819Y97899D01*
X-122742Y98026D01*
X-122734Y98051D01*
X-122722Y98074D01*
X-122681Y98217D01*
X-122636Y98358D01*
X-122634Y98384D01*
X-122627Y98409D01*
X-122607Y98653D01*
X-122607Y101209D01*
X-121268Y102549D01*
X-119373Y102549D01*
X-118034Y101209D01*
X-118034Y98653D01*
X-118031Y98627D01*
X-118033Y98601D01*
X-118011Y98454D01*
X-117994Y98307D01*
X-117985Y98282D01*
X-117981Y98256D01*
X-117927Y98119D01*
X-117877Y97979D01*
X-117862Y97957D01*
X-117853Y97933D01*
X-117768Y97811D01*
X-117687Y97686D01*
X-117669Y97668D01*
X-117654Y97646D01*
X-117544Y97547D01*
X-117437Y97444D01*
X-117414Y97430D01*
X-117395Y97413D01*
X-117265Y97341D01*
X-117138Y97265D01*
X-117113Y97257D01*
X-117090Y97244D01*
X-116947Y97204D01*
X-116806Y97159D01*
X-116780Y97157D01*
X-116754Y97150D01*
X-116511Y97130D01*
X-113955Y97130D01*
X-112615Y95791D01*
X-112615Y93896D01*
X-113955Y92557D01*
X-116511Y92557D01*
X-116537Y92554D01*
X-116563Y92556D01*
X-116710Y92534D01*
X-116857Y92517D01*
X-116881Y92508D01*
X-116907Y92504D01*
X-117045Y92449D01*
X-117185Y92399D01*
X-117207Y92385D01*
X-117231Y92375D01*
X-117353Y92291D01*
X-117478Y92210D01*
X-117496Y92191D01*
X-117518Y92176D01*
X-117617Y92066D01*
X-117720Y91960D01*
X-117733Y91937D01*
X-117751Y91918D01*
X-117823Y91788D01*
X-117899Y91660D01*
X-117907Y91635D01*
X-117919Y91612D01*
X-117960Y91470D01*
X-118005Y91328D01*
X-118007Y91302D01*
X-118014Y91277D01*
X-118034Y91033D01*
X-118034Y88477D01*
X-119373Y87138D01*
X-121268Y87138D01*
G37*
%LPD*%
%LPC*%
G36*
X-161291Y124967D02*
X-161291Y124967D01*
X-161291Y128605D01*
X-161118Y129251D01*
X-160783Y129830D01*
X-160310Y130303D01*
X-159731Y130638D01*
X-159085Y130811D01*
X-149097Y130811D01*
X-149097Y124967D01*
X-161291Y124967D01*
G37*
%LPD*%
%LPC*%
G36*
X-143003Y124967D02*
X-143003Y124967D01*
X-143003Y130811D01*
X-133015Y130811D01*
X-132369Y130638D01*
X-131790Y130303D01*
X-131317Y129830D01*
X-130982Y129251D01*
X-130809Y128605D01*
X-130809Y124967D01*
X-143003Y124967D01*
G37*
%LPD*%
%LPC*%
G36*
X-126595Y120697D02*
X-126595Y120697D01*
X-127935Y122037D01*
X-127935Y123444D01*
X-127938Y123470D01*
X-127935Y123496D01*
X-127957Y123643D01*
X-127974Y123790D01*
X-127983Y123815D01*
X-127987Y123841D01*
X-127998Y123868D01*
X-126595Y125271D01*
X-113863Y125271D01*
X-112524Y123931D01*
X-112524Y122037D01*
X-113863Y120697D01*
X-126595Y120697D01*
G37*
%LPD*%
%LPC*%
G36*
X40913Y66183D02*
X40913Y66183D01*
X40913Y78136D01*
X41747Y77970D01*
X43218Y77361D01*
X44541Y76477D01*
X45667Y75351D01*
X46551Y74028D01*
X47160Y72557D01*
X47471Y70996D01*
X47471Y66183D01*
X40913Y66183D01*
G37*
%LPD*%
%LPC*%
G36*
X-55091Y66183D02*
X-55091Y66183D01*
X-55091Y70996D01*
X-54921Y71849D01*
X-54921Y71850D01*
X-54780Y72557D01*
X-54171Y74028D01*
X-53287Y75351D01*
X-52161Y76477D01*
X-50838Y77361D01*
X-49367Y77970D01*
X-48533Y78136D01*
X-48533Y66183D01*
X-55091Y66183D01*
G37*
%LPD*%
%LPC*%
G36*
X-55091Y24383D02*
X-55091Y24383D01*
X-55091Y29196D01*
X-55090Y29199D01*
X-54787Y30722D01*
X-54780Y30757D01*
X-54171Y32228D01*
X-53287Y33551D01*
X-52161Y34677D01*
X-50838Y35561D01*
X-49367Y36170D01*
X-48533Y36336D01*
X-48533Y24383D01*
X-55091Y24383D01*
G37*
%LPD*%
%LPC*%
G36*
X-45487Y24383D02*
X-45487Y24383D01*
X-45487Y36336D01*
X-44653Y36170D01*
X-43182Y35561D01*
X-41859Y34677D01*
X-40733Y33551D01*
X-39849Y32228D01*
X-39240Y30757D01*
X-38929Y29196D01*
X-38929Y24383D01*
X-45487Y24383D01*
G37*
%LPD*%
%LPC*%
G36*
X31309Y24383D02*
X31309Y24383D01*
X31309Y29196D01*
X31310Y29199D01*
X31613Y30722D01*
X31620Y30757D01*
X32229Y32228D01*
X33113Y33551D01*
X34239Y34677D01*
X35562Y35561D01*
X37033Y36170D01*
X37867Y36336D01*
X37867Y24383D01*
X31309Y24383D01*
G37*
%LPD*%
%LPC*%
G36*
X-307801Y136763D02*
X-307801Y136763D01*
X-307801Y144773D01*
X-307576Y145610D01*
X-307143Y146361D01*
X-306531Y146973D01*
X-305780Y147406D01*
X-304943Y147631D01*
X-303783Y147631D01*
X-303783Y136763D01*
X-307801Y136763D01*
G37*
%LPD*%
%LPC*%
G36*
X85479Y205159D02*
X85479Y205159D01*
X85479Y210201D01*
X92521Y210201D01*
X92521Y207365D01*
X92348Y206719D01*
X92013Y206140D01*
X91540Y205667D01*
X90961Y205332D01*
X90315Y205159D01*
X85479Y205159D01*
G37*
%LPD*%
%LPC*%
G36*
X-197307Y121313D02*
X-197307Y121313D01*
X-197307Y130131D01*
X-196930Y130131D01*
X-195974Y129875D01*
X-195874Y129860D01*
X-195775Y129835D01*
X-195702Y129834D01*
X-195630Y129824D01*
X-195528Y129832D01*
X-195426Y129831D01*
X-195330Y129848D01*
X-195282Y129852D01*
X-195247Y129863D01*
X-195186Y129875D01*
X-194230Y130131D01*
X-193853Y130131D01*
X-193853Y121313D01*
X-197307Y121313D01*
G37*
%LPD*%
%LPC*%
G36*
X-197307Y178913D02*
X-197307Y178913D01*
X-197307Y187731D01*
X-196930Y187731D01*
X-195974Y187475D01*
X-195874Y187460D01*
X-195775Y187435D01*
X-195702Y187434D01*
X-195630Y187424D01*
X-195528Y187432D01*
X-195426Y187431D01*
X-195330Y187448D01*
X-195282Y187452D01*
X-195247Y187463D01*
X-195186Y187475D01*
X-194230Y187731D01*
X-193853Y187731D01*
X-193853Y178913D01*
X-197307Y178913D01*
G37*
%LPD*%
%LPC*%
G36*
X-197307Y167049D02*
X-197307Y167049D01*
X-197307Y175867D01*
X-193853Y175867D01*
X-193853Y167049D01*
X-194230Y167049D01*
X-195186Y167305D01*
X-195286Y167320D01*
X-195385Y167345D01*
X-195458Y167346D01*
X-195531Y167356D01*
X-195632Y167348D01*
X-195734Y167349D01*
X-195830Y167332D01*
X-195878Y167328D01*
X-195913Y167317D01*
X-195974Y167305D01*
X-196930Y167049D01*
X-197307Y167049D01*
G37*
%LPD*%
%LPC*%
G36*
X-197307Y109449D02*
X-197307Y109449D01*
X-197307Y118267D01*
X-193853Y118267D01*
X-193853Y109449D01*
X-194230Y109449D01*
X-195186Y109705D01*
X-195286Y109720D01*
X-195385Y109745D01*
X-195458Y109746D01*
X-195530Y109756D01*
X-195632Y109748D01*
X-195734Y109749D01*
X-195830Y109732D01*
X-195878Y109728D01*
X-195912Y109717D01*
X-195974Y109705D01*
X-196930Y109449D01*
X-197307Y109449D01*
G37*
%LPD*%
%LPC*%
G36*
X-137923Y46481D02*
X-137923Y46481D01*
X-137923Y48087D01*
X-137750Y48733D01*
X-137415Y49312D01*
X-136942Y49785D01*
X-136363Y50120D01*
X-135717Y50293D01*
X-130301Y50293D01*
X-130301Y46481D01*
X-137923Y46481D01*
G37*
%LPD*%
%LPC*%
G36*
X-127255Y46481D02*
X-127255Y46481D01*
X-127255Y50293D01*
X-121839Y50293D01*
X-121193Y50120D01*
X-120614Y49785D01*
X-120141Y49312D01*
X-119806Y48733D01*
X-119633Y48087D01*
X-119633Y46481D01*
X-127255Y46481D01*
G37*
%LPD*%
%LPC*%
G36*
X-135717Y39623D02*
X-135717Y39623D01*
X-136363Y39796D01*
X-136942Y40131D01*
X-137415Y40604D01*
X-137750Y41183D01*
X-137923Y41829D01*
X-137923Y43435D01*
X-130301Y43435D01*
X-130301Y39623D01*
X-135717Y39623D01*
G37*
%LPD*%
%LPC*%
G36*
X-127255Y39623D02*
X-127255Y39623D01*
X-127255Y43435D01*
X-119633Y43435D01*
X-119633Y41829D01*
X-119806Y41183D01*
X-120141Y40604D01*
X-120614Y40131D01*
X-121193Y39796D01*
X-121839Y39623D01*
X-127255Y39623D01*
G37*
%LPD*%
%LPC*%
G36*
X-225981Y87199D02*
X-225981Y87199D01*
X-225981Y90535D01*
X-225808Y91181D01*
X-225473Y91760D01*
X-225000Y92233D01*
X-224421Y92568D01*
X-223775Y92741D01*
X-220939Y92741D01*
X-220939Y87199D01*
X-225981Y87199D01*
G37*
%LPD*%
%LPC*%
G36*
X-112951Y46559D02*
X-112951Y46559D01*
X-112951Y49895D01*
X-112778Y50541D01*
X-112443Y51120D01*
X-111970Y51593D01*
X-111391Y51928D01*
X-110745Y52101D01*
X-107909Y52101D01*
X-107909Y46559D01*
X-112951Y46559D01*
G37*
%LPD*%
%LPC*%
G36*
X-223951Y109179D02*
X-223951Y109179D01*
X-223951Y114221D01*
X-220615Y114221D01*
X-219969Y114048D01*
X-219390Y113713D01*
X-218917Y113240D01*
X-218582Y112661D01*
X-218409Y112015D01*
X-218409Y109179D01*
X-223951Y109179D01*
G37*
%LPD*%
%LPC*%
G36*
X-225221Y177759D02*
X-225221Y177759D01*
X-225221Y183301D01*
X-222385Y183301D01*
X-221739Y183128D01*
X-221160Y182793D01*
X-220687Y182320D01*
X-220352Y181741D01*
X-220179Y181095D01*
X-220179Y177759D01*
X-225221Y177759D01*
G37*
%LPD*%
%LPC*%
G36*
X-102911Y46559D02*
X-102911Y46559D01*
X-102911Y52101D01*
X-100075Y52101D01*
X-99429Y51928D01*
X-98850Y51593D01*
X-98377Y51120D01*
X-98042Y50541D01*
X-97869Y49895D01*
X-97869Y46559D01*
X-102911Y46559D01*
G37*
%LPD*%
%LPC*%
G36*
X-225221Y167219D02*
X-225221Y167219D01*
X-225221Y172761D01*
X-220179Y172761D01*
X-220179Y169425D01*
X-220352Y168779D01*
X-220687Y168200D01*
X-221160Y167727D01*
X-221739Y167392D01*
X-222385Y167219D01*
X-225221Y167219D01*
G37*
%LPD*%
%LPC*%
G36*
X-251011Y130763D02*
X-251011Y130763D01*
X-251011Y135575D01*
X-250838Y136221D01*
X-250503Y136800D01*
X-250030Y137273D01*
X-249451Y137608D01*
X-248805Y137781D01*
X-247243Y137781D01*
X-247243Y130763D01*
X-251011Y130763D01*
G37*
%LPD*%
%LPC*%
G36*
X-248805Y120699D02*
X-248805Y120699D01*
X-249451Y120872D01*
X-250030Y121207D01*
X-250503Y121680D01*
X-250838Y122259D01*
X-251011Y122905D01*
X-251011Y127717D01*
X-247243Y127717D01*
X-247243Y120699D01*
X-248805Y120699D01*
G37*
%LPD*%
D10*
X297675Y97391D02*
X297675Y113647D01*
X293160Y113647D01*
X293160Y113648D02*
X293027Y113646D01*
X292895Y113640D01*
X292763Y113630D01*
X292631Y113617D01*
X292499Y113599D01*
X292369Y113578D01*
X292238Y113553D01*
X292109Y113524D01*
X291981Y113491D01*
X291853Y113455D01*
X291727Y113415D01*
X291602Y113371D01*
X291478Y113323D01*
X291356Y113272D01*
X291235Y113217D01*
X291116Y113159D01*
X290998Y113097D01*
X290883Y113032D01*
X290769Y112963D01*
X290658Y112892D01*
X290549Y112816D01*
X290442Y112738D01*
X290337Y112657D01*
X290235Y112572D01*
X290135Y112485D01*
X290038Y112395D01*
X289943Y112302D01*
X289852Y112206D01*
X289763Y112108D01*
X289677Y112007D01*
X289594Y111903D01*
X289514Y111797D01*
X289438Y111689D01*
X289364Y111579D01*
X289294Y111466D01*
X289227Y111352D01*
X289164Y111235D01*
X289104Y111117D01*
X289047Y110997D01*
X288994Y110875D01*
X288945Y110752D01*
X288899Y110628D01*
X288857Y110502D01*
X288819Y110375D01*
X288784Y110247D01*
X288753Y110118D01*
X288726Y109989D01*
X288703Y109858D01*
X288683Y109727D01*
X288668Y109595D01*
X288656Y109463D01*
X288648Y109331D01*
X288644Y109198D01*
X288644Y109066D01*
X288648Y108933D01*
X288656Y108801D01*
X288668Y108669D01*
X288683Y108537D01*
X288703Y108406D01*
X288726Y108275D01*
X288753Y108146D01*
X288784Y108017D01*
X288819Y107889D01*
X288857Y107762D01*
X288899Y107636D01*
X288945Y107512D01*
X288994Y107389D01*
X289047Y107267D01*
X289104Y107147D01*
X289164Y107029D01*
X289227Y106912D01*
X289294Y106798D01*
X289364Y106685D01*
X289438Y106575D01*
X289514Y106467D01*
X289594Y106361D01*
X289677Y106257D01*
X289763Y106156D01*
X289852Y106058D01*
X289943Y105962D01*
X290038Y105869D01*
X290135Y105779D01*
X290235Y105692D01*
X290337Y105607D01*
X290442Y105526D01*
X290549Y105448D01*
X290658Y105372D01*
X290769Y105301D01*
X290883Y105232D01*
X290998Y105167D01*
X291116Y105105D01*
X291235Y105047D01*
X291356Y104992D01*
X291478Y104941D01*
X291602Y104893D01*
X291727Y104849D01*
X291853Y104809D01*
X291981Y104773D01*
X292109Y104740D01*
X292238Y104711D01*
X292369Y104686D01*
X292499Y104665D01*
X292631Y104647D01*
X292763Y104634D01*
X292895Y104624D01*
X293027Y104618D01*
X293160Y104616D01*
X297675Y104616D01*
X292257Y104616D02*
X288644Y97391D01*
X296075Y73391D02*
X296075Y57135D01*
X288850Y57135D01*
X-114902Y94843D02*
X-125739Y94843D01*
X-120321Y89425D02*
X-120321Y100262D01*
X-125648Y122984D02*
X-114811Y122984D01*
D11*
X-243450Y106680D03*
X-226450Y106680D03*
D12*
X-218440Y67700D03*
X-218440Y84700D03*
X-105410Y27060D03*
X-105410Y44060D03*
X-171450Y44060D03*
X-171450Y27060D03*
D13*
X-245720Y155240D03*
X-236220Y155240D03*
X-226720Y155240D03*
X-226720Y129240D03*
X-245720Y129240D03*
X-236220Y129240D03*
D14*
X-47010Y28400D02*
X-47010Y17320D01*
X39390Y17320D02*
X39390Y28400D01*
X-47010Y59120D02*
X-47010Y70200D01*
X39390Y70200D02*
X39390Y59120D01*
D15*
X-327540Y34290D03*
X-312540Y34290D03*
X-297060Y34290D03*
X-282060Y34290D03*
D16*
X118820Y240590D03*
X48820Y240590D03*
X118820Y310590D03*
X48820Y310590D03*
D17*
X-146050Y121920D03*
X-146050Y93980D03*
D18*
X-184330Y112490D02*
X-184330Y127090D01*
X-184330Y112490D02*
X-187330Y112490D01*
X-187330Y127090D01*
X-184330Y127090D01*
X-184330Y113440D02*
X-187330Y113440D01*
X-187330Y114390D02*
X-184330Y114390D01*
X-184330Y115340D02*
X-187330Y115340D01*
X-187330Y116290D02*
X-184330Y116290D01*
X-184330Y117240D02*
X-187330Y117240D01*
X-187330Y118190D02*
X-184330Y118190D01*
X-184330Y119140D02*
X-187330Y119140D01*
X-187330Y120090D02*
X-184330Y120090D01*
X-184330Y121040D02*
X-187330Y121040D01*
X-187330Y121990D02*
X-184330Y121990D01*
X-184330Y122940D02*
X-187330Y122940D01*
X-187330Y123890D02*
X-184330Y123890D01*
X-184330Y124840D02*
X-187330Y124840D01*
X-187330Y125790D02*
X-184330Y125790D01*
X-184330Y126740D02*
X-187330Y126740D01*
X-190830Y127090D02*
X-190830Y112490D01*
X-193830Y112490D01*
X-193830Y127090D01*
X-190830Y127090D01*
X-190830Y113440D02*
X-193830Y113440D01*
X-193830Y114390D02*
X-190830Y114390D01*
X-190830Y115340D02*
X-193830Y115340D01*
X-193830Y116290D02*
X-190830Y116290D01*
X-190830Y117240D02*
X-193830Y117240D01*
X-193830Y118190D02*
X-190830Y118190D01*
X-190830Y119140D02*
X-193830Y119140D01*
X-193830Y120090D02*
X-190830Y120090D01*
X-190830Y121040D02*
X-193830Y121040D01*
X-193830Y121990D02*
X-190830Y121990D01*
X-190830Y122940D02*
X-193830Y122940D01*
X-193830Y123890D02*
X-190830Y123890D01*
X-190830Y124840D02*
X-193830Y124840D01*
X-193830Y125790D02*
X-190830Y125790D01*
X-190830Y126740D02*
X-193830Y126740D01*
X-197330Y127090D02*
X-197330Y112490D01*
X-200330Y112490D01*
X-200330Y127090D01*
X-197330Y127090D01*
X-197330Y113440D02*
X-200330Y113440D01*
X-200330Y114390D02*
X-197330Y114390D01*
X-197330Y115340D02*
X-200330Y115340D01*
X-200330Y116290D02*
X-197330Y116290D01*
X-197330Y117240D02*
X-200330Y117240D01*
X-200330Y118190D02*
X-197330Y118190D01*
X-197330Y119140D02*
X-200330Y119140D01*
X-200330Y120090D02*
X-197330Y120090D01*
X-197330Y121040D02*
X-200330Y121040D01*
X-200330Y121990D02*
X-197330Y121990D01*
X-197330Y122940D02*
X-200330Y122940D01*
X-200330Y123890D02*
X-197330Y123890D01*
X-197330Y124840D02*
X-200330Y124840D01*
X-200330Y125790D02*
X-197330Y125790D01*
X-197330Y126740D02*
X-200330Y126740D01*
X-203830Y127090D02*
X-203830Y112490D01*
X-206830Y112490D01*
X-206830Y127090D01*
X-203830Y127090D01*
X-203830Y113440D02*
X-206830Y113440D01*
X-206830Y114390D02*
X-203830Y114390D01*
X-203830Y115340D02*
X-206830Y115340D01*
X-206830Y116290D02*
X-203830Y116290D01*
X-203830Y117240D02*
X-206830Y117240D01*
X-206830Y118190D02*
X-203830Y118190D01*
X-203830Y119140D02*
X-206830Y119140D01*
X-206830Y120090D02*
X-203830Y120090D01*
X-203830Y121040D02*
X-206830Y121040D01*
X-206830Y121990D02*
X-203830Y121990D01*
X-203830Y122940D02*
X-206830Y122940D01*
X-206830Y123890D02*
X-203830Y123890D01*
X-203830Y124840D02*
X-206830Y124840D01*
X-206830Y125790D02*
X-203830Y125790D01*
X-203830Y126740D02*
X-206830Y126740D01*
X-203830Y170090D02*
X-203830Y184690D01*
X-203830Y170090D02*
X-206830Y170090D01*
X-206830Y184690D01*
X-203830Y184690D01*
X-203830Y171040D02*
X-206830Y171040D01*
X-206830Y171990D02*
X-203830Y171990D01*
X-203830Y172940D02*
X-206830Y172940D01*
X-206830Y173890D02*
X-203830Y173890D01*
X-203830Y174840D02*
X-206830Y174840D01*
X-206830Y175790D02*
X-203830Y175790D01*
X-203830Y176740D02*
X-206830Y176740D01*
X-206830Y177690D02*
X-203830Y177690D01*
X-203830Y178640D02*
X-206830Y178640D01*
X-206830Y179590D02*
X-203830Y179590D01*
X-203830Y180540D02*
X-206830Y180540D01*
X-206830Y181490D02*
X-203830Y181490D01*
X-203830Y182440D02*
X-206830Y182440D01*
X-206830Y183390D02*
X-203830Y183390D01*
X-203830Y184340D02*
X-206830Y184340D01*
X-197330Y184690D02*
X-197330Y170090D01*
X-200330Y170090D01*
X-200330Y184690D01*
X-197330Y184690D01*
X-197330Y171040D02*
X-200330Y171040D01*
X-200330Y171990D02*
X-197330Y171990D01*
X-197330Y172940D02*
X-200330Y172940D01*
X-200330Y173890D02*
X-197330Y173890D01*
X-197330Y174840D02*
X-200330Y174840D01*
X-200330Y175790D02*
X-197330Y175790D01*
X-197330Y176740D02*
X-200330Y176740D01*
X-200330Y177690D02*
X-197330Y177690D01*
X-197330Y178640D02*
X-200330Y178640D01*
X-200330Y179590D02*
X-197330Y179590D01*
X-197330Y180540D02*
X-200330Y180540D01*
X-200330Y181490D02*
X-197330Y181490D01*
X-197330Y182440D02*
X-200330Y182440D01*
X-200330Y183390D02*
X-197330Y183390D01*
X-197330Y184340D02*
X-200330Y184340D01*
X-190830Y184690D02*
X-190830Y170090D01*
X-193830Y170090D01*
X-193830Y184690D01*
X-190830Y184690D01*
X-190830Y171040D02*
X-193830Y171040D01*
X-193830Y171990D02*
X-190830Y171990D01*
X-190830Y172940D02*
X-193830Y172940D01*
X-193830Y173890D02*
X-190830Y173890D01*
X-190830Y174840D02*
X-193830Y174840D01*
X-193830Y175790D02*
X-190830Y175790D01*
X-190830Y176740D02*
X-193830Y176740D01*
X-193830Y177690D02*
X-190830Y177690D01*
X-190830Y178640D02*
X-193830Y178640D01*
X-193830Y179590D02*
X-190830Y179590D01*
X-190830Y180540D02*
X-193830Y180540D01*
X-193830Y181490D02*
X-190830Y181490D01*
X-190830Y182440D02*
X-193830Y182440D01*
X-193830Y183390D02*
X-190830Y183390D01*
X-190830Y184340D02*
X-193830Y184340D01*
X-184330Y184690D02*
X-184330Y170090D01*
X-187330Y170090D01*
X-187330Y184690D01*
X-184330Y184690D01*
X-184330Y171040D02*
X-187330Y171040D01*
X-187330Y171990D02*
X-184330Y171990D01*
X-184330Y172940D02*
X-187330Y172940D01*
X-187330Y173890D02*
X-184330Y173890D01*
X-184330Y174840D02*
X-187330Y174840D01*
X-187330Y175790D02*
X-184330Y175790D01*
X-184330Y176740D02*
X-187330Y176740D01*
X-187330Y177690D02*
X-184330Y177690D01*
X-184330Y178640D02*
X-187330Y178640D01*
X-187330Y179590D02*
X-184330Y179590D01*
X-184330Y180540D02*
X-187330Y180540D01*
X-187330Y181490D02*
X-184330Y181490D01*
X-184330Y182440D02*
X-187330Y182440D01*
X-187330Y183390D02*
X-184330Y183390D01*
X-184330Y184340D02*
X-187330Y184340D01*
D12*
X-311540Y52070D03*
X-328540Y52070D03*
X-227720Y175260D03*
X-244720Y175260D03*
D11*
X-240030Y67700D03*
X-240030Y84700D03*
D12*
X-279790Y52070D03*
X-296790Y52070D03*
X44840Y193040D03*
X61840Y193040D03*
X-274710Y158750D03*
X-291710Y158750D03*
D19*
X82980Y193700D03*
X104980Y203200D03*
X82980Y212700D03*
D20*
X-128778Y44958D03*
X-128778Y26162D03*
D21*
X-150622Y35560D03*
D22*
X-304510Y126140D02*
X-304510Y144340D01*
X-300010Y144340D01*
X-300010Y126140D01*
X-304510Y126140D01*
X-304510Y127565D02*
X-300010Y127565D01*
X-300010Y128990D02*
X-304510Y128990D01*
X-304510Y130415D02*
X-300010Y130415D01*
X-300010Y131840D02*
X-304510Y131840D01*
X-304510Y133265D02*
X-300010Y133265D01*
X-300010Y134690D02*
X-304510Y134690D01*
X-304510Y136115D02*
X-300010Y136115D01*
X-300010Y137540D02*
X-304510Y137540D01*
X-304510Y138965D02*
X-300010Y138965D01*
X-300010Y140390D02*
X-304510Y140390D01*
X-304510Y141815D02*
X-300010Y141815D01*
X-300010Y143240D02*
X-304510Y143240D01*
X-291810Y144340D02*
X-291810Y126140D01*
X-291810Y144340D02*
X-287310Y144340D01*
X-287310Y126140D01*
X-291810Y126140D01*
X-291810Y127565D02*
X-287310Y127565D01*
X-287310Y128990D02*
X-291810Y128990D01*
X-291810Y130415D02*
X-287310Y130415D01*
X-287310Y131840D02*
X-291810Y131840D01*
X-291810Y133265D02*
X-287310Y133265D01*
X-287310Y134690D02*
X-291810Y134690D01*
X-291810Y136115D02*
X-287310Y136115D01*
X-287310Y137540D02*
X-291810Y137540D01*
X-291810Y138965D02*
X-287310Y138965D01*
X-287310Y140390D02*
X-291810Y140390D01*
X-291810Y141815D02*
X-287310Y141815D01*
X-287310Y143240D02*
X-291810Y143240D01*
X-279110Y144340D02*
X-279110Y126140D01*
X-279110Y144340D02*
X-274610Y144340D01*
X-274610Y126140D01*
X-279110Y126140D01*
X-279110Y127565D02*
X-274610Y127565D01*
X-274610Y128990D02*
X-279110Y128990D01*
X-279110Y130415D02*
X-274610Y130415D01*
X-274610Y131840D02*
X-279110Y131840D01*
X-279110Y133265D02*
X-274610Y133265D01*
X-274610Y134690D02*
X-279110Y134690D01*
X-279110Y136115D02*
X-274610Y136115D01*
X-274610Y137540D02*
X-279110Y137540D01*
X-279110Y138965D02*
X-274610Y138965D01*
X-274610Y140390D02*
X-279110Y140390D01*
X-279110Y141815D02*
X-274610Y141815D01*
X-274610Y143240D02*
X-279110Y143240D01*
X-266410Y144340D02*
X-266410Y126140D01*
X-266410Y144340D02*
X-261910Y144340D01*
X-261910Y126140D01*
X-266410Y126140D01*
X-266410Y127565D02*
X-261910Y127565D01*
X-261910Y128990D02*
X-266410Y128990D01*
X-266410Y130415D02*
X-261910Y130415D01*
X-261910Y131840D02*
X-266410Y131840D01*
X-266410Y133265D02*
X-261910Y133265D01*
X-261910Y134690D02*
X-266410Y134690D01*
X-266410Y136115D02*
X-261910Y136115D01*
X-261910Y137540D02*
X-266410Y137540D01*
X-266410Y138965D02*
X-261910Y138965D01*
X-261910Y140390D02*
X-266410Y140390D01*
X-266410Y141815D02*
X-261910Y141815D01*
X-261910Y143240D02*
X-266410Y143240D01*
X-266410Y94840D02*
X-266410Y76640D01*
X-266410Y94840D02*
X-261910Y94840D01*
X-261910Y76640D01*
X-266410Y76640D01*
X-266410Y78065D02*
X-261910Y78065D01*
X-261910Y79490D02*
X-266410Y79490D01*
X-266410Y80915D02*
X-261910Y80915D01*
X-261910Y82340D02*
X-266410Y82340D01*
X-266410Y83765D02*
X-261910Y83765D01*
X-261910Y85190D02*
X-266410Y85190D01*
X-266410Y86615D02*
X-261910Y86615D01*
X-261910Y88040D02*
X-266410Y88040D01*
X-266410Y89465D02*
X-261910Y89465D01*
X-261910Y90890D02*
X-266410Y90890D01*
X-266410Y92315D02*
X-261910Y92315D01*
X-261910Y93740D02*
X-266410Y93740D01*
X-279110Y94840D02*
X-279110Y76640D01*
X-279110Y94840D02*
X-274610Y94840D01*
X-274610Y76640D01*
X-279110Y76640D01*
X-279110Y78065D02*
X-274610Y78065D01*
X-274610Y79490D02*
X-279110Y79490D01*
X-279110Y80915D02*
X-274610Y80915D01*
X-274610Y82340D02*
X-279110Y82340D01*
X-279110Y83765D02*
X-274610Y83765D01*
X-274610Y85190D02*
X-279110Y85190D01*
X-279110Y86615D02*
X-274610Y86615D01*
X-274610Y88040D02*
X-279110Y88040D01*
X-279110Y89465D02*
X-274610Y89465D01*
X-274610Y90890D02*
X-279110Y90890D01*
X-279110Y92315D02*
X-274610Y92315D01*
X-274610Y93740D02*
X-279110Y93740D01*
X-291810Y94840D02*
X-291810Y76640D01*
X-291810Y94840D02*
X-287310Y94840D01*
X-287310Y76640D01*
X-291810Y76640D01*
X-291810Y78065D02*
X-287310Y78065D01*
X-287310Y79490D02*
X-291810Y79490D01*
X-291810Y80915D02*
X-287310Y80915D01*
X-287310Y82340D02*
X-291810Y82340D01*
X-291810Y83765D02*
X-287310Y83765D01*
X-287310Y85190D02*
X-291810Y85190D01*
X-291810Y86615D02*
X-287310Y86615D01*
X-287310Y88040D02*
X-291810Y88040D01*
X-291810Y89465D02*
X-287310Y89465D01*
X-287310Y90890D02*
X-291810Y90890D01*
X-291810Y92315D02*
X-287310Y92315D01*
X-287310Y93740D02*
X-291810Y93740D01*
X-304510Y94840D02*
X-304510Y76640D01*
X-304510Y94840D02*
X-300010Y94840D01*
X-300010Y76640D01*
X-304510Y76640D01*
X-304510Y78065D02*
X-300010Y78065D01*
X-300010Y79490D02*
X-304510Y79490D01*
X-304510Y80915D02*
X-300010Y80915D01*
X-300010Y82340D02*
X-304510Y82340D01*
X-304510Y83765D02*
X-300010Y83765D01*
X-300010Y85190D02*
X-304510Y85190D01*
X-304510Y86615D02*
X-300010Y86615D01*
X-300010Y88040D02*
X-304510Y88040D01*
X-304510Y89465D02*
X-300010Y89465D01*
X-300010Y90890D02*
X-304510Y90890D01*
X-304510Y92315D02*
X-300010Y92315D01*
X-300010Y93740D02*
X-304510Y93740D01*
D23*
X-283210Y110490D03*
D17*
X318770Y66040D03*
X318770Y104140D03*
D24*
X-192330Y177390D02*
X-198830Y177390D01*
X-198830Y119790D02*
X-192330Y119790D01*
D25*
X-267970Y21590D03*
D24*
X-267970Y17780D01*
X-271094Y14656D01*
D25*
X-324066Y14656D03*
D24*
X-271094Y14656D01*
X-267970Y17780D02*
X-264160Y13970D01*
X-243601Y13970D02*
X-243584Y13953D01*
D25*
X-243584Y13953D03*
D24*
X-243601Y13970D02*
X-264160Y13970D01*
D25*
X-21590Y87630D03*
X152880Y90170D03*
X76200Y120650D03*
X-134620Y148590D03*
X-5080Y316230D03*
X-2540Y351790D03*
X-254256Y101967D03*
D26*
X-192330Y177390D02*
X-192321Y177399D01*
X-192321Y208826D01*
X-192550Y208826D01*
D25*
X-192550Y208826D03*
X-228783Y236807D03*
X-217970Y236738D03*
X-207294Y236761D03*
X-196459Y236807D03*
X-185212Y236830D03*
X-173325Y236921D03*
X-160774Y236875D03*
X-147859Y236807D03*
X-135834Y236830D03*
X-122598Y236830D03*
X-109774Y236898D03*
X-97269Y236807D03*
X-40005Y276195D03*
X-39936Y286413D03*
X-39845Y296769D03*
X-40005Y307513D03*
X-40439Y331447D03*
X-40554Y341163D03*
X-324635Y144681D03*
X-324749Y133914D03*
X-324909Y123147D03*
X-332156Y112951D03*
X-339700Y103350D03*
X-346763Y92492D03*
X-371544Y14356D03*
X-360136Y14470D03*
X-348341Y14585D03*
X-336042Y14608D03*
X-274503Y175153D03*
X-217056Y208872D03*
X-205146Y208940D03*
X98367Y14242D03*
X84193Y14768D03*
X70706Y14425D03*
X57927Y14768D03*
X287693Y14928D03*
X301729Y14996D03*
X314919Y14836D03*
X328544Y14722D03*
X342603Y14630D03*
X356822Y14676D03*
X317823Y150487D03*
X325184Y140200D03*
X332110Y130531D03*
X339471Y121478D03*
X347038Y111603D03*
X355222Y100470D03*
X361942Y89108D03*
X370355Y79233D03*
X206014Y208986D03*
X217239Y208780D03*
X228189Y208506D03*
X240259Y208323D03*
X252443Y208323D03*
X56716Y156202D03*
X67117Y156294D03*
X77313Y156362D03*
X68991Y343197D03*
X80673Y338602D03*
X92286Y333733D03*
D26*
X-274710Y174946D02*
X-274710Y158750D01*
X-274710Y174946D02*
X-274503Y175153D01*
D25*
X50800Y219710D03*
X-25672Y196939D03*
D24*
X-106308Y26162D02*
X-128778Y26162D01*
X-106308Y26162D02*
X-105410Y27060D01*
X-128778Y26162D02*
X-137668Y26162D01*
X-147320Y16510D01*
X-231140Y16510D01*
X-243840Y29210D01*
X-250190Y29210D01*
D25*
X-250190Y29210D03*
D24*
X-105410Y27060D02*
X-80890Y27060D01*
X-71120Y36830D02*
X-71120Y97790D01*
X-64943Y103967D01*
X-11603Y103967D02*
X-10160Y105410D01*
D25*
X-10160Y115570D03*
D24*
X-71120Y36830D02*
X-80890Y27060D01*
X-64943Y103967D02*
X-11603Y103967D01*
X-10160Y105410D02*
X-10160Y115570D01*
D25*
X-49129Y126662D03*
D24*
X-51669Y126662D01*
X-72390Y147384D01*
D25*
X-72390Y184150D03*
D24*
X-72390Y147384D01*
X-72390Y184150D02*
X-81280Y193040D01*
D25*
X-81280Y202720D03*
D24*
X-81280Y193040D01*
D26*
X110490Y248920D02*
X118820Y240590D01*
D25*
X88900Y248920D03*
D26*
X110490Y248920D01*
D25*
X10160Y299720D03*
D26*
X-6350Y299720D01*
X-11430Y294640D01*
D25*
X-134620Y220980D03*
D26*
X-11430Y234950D02*
X-11430Y294640D01*
X-11430Y234950D02*
X-25400Y220980D01*
X-134620Y220980D01*
D25*
X-82550Y228600D03*
D26*
X-30480Y228600D01*
X-20320Y238760D01*
X-20320Y303530D01*
D25*
X24130Y299720D03*
D26*
X24130Y304800D01*
X21110Y307820D01*
X-16030Y307820D01*
X-20320Y303530D01*
D25*
X-22860Y115570D03*
D26*
X-22860Y121730D02*
X-22860Y124460D01*
X-22860Y121730D02*
X-22860Y115570D01*
D25*
X3909Y267970D03*
D26*
X3909Y159037D01*
X-22860Y132268D02*
X-22860Y124460D01*
X-22860Y132268D02*
X3909Y159037D01*
D25*
X-35560Y115570D03*
X15476Y267828D03*
D26*
X15476Y273611D01*
X11453Y277635D02*
X297Y277635D01*
X-4618Y272720D01*
X11453Y277635D02*
X15476Y273611D01*
X-4618Y272720D02*
X-4618Y164318D01*
X-35560Y133375D01*
X-35560Y115570D01*
D25*
X7620Y83820D03*
D27*
X3810Y87630D01*
X-11430Y87630D01*
D25*
X-11430Y87630D03*
X-83820Y102870D03*
D26*
X6350Y95250D02*
X17780Y106680D01*
X6350Y95250D02*
X-60960Y95250D01*
D25*
X-60960Y95250D03*
X-60960Y114300D03*
D26*
X-78740Y114300D01*
X-83820Y109220D01*
X-83820Y102870D01*
D25*
X17780Y175260D03*
D27*
X17780Y106680D01*
D25*
X-134783Y209969D03*
D26*
X-53401Y209969D01*
X-53332Y210038D01*
X-53298Y210003D01*
D25*
X-53298Y210003D03*
D24*
X-281940Y34170D02*
X-282060Y34290D01*
X-264160Y182880D02*
X-269240Y187960D01*
X-289560Y187960D01*
X-314960Y91440D02*
X-308610Y85090D01*
X-302910Y85090D01*
X-302260Y85740D01*
X-314960Y91440D02*
X-314960Y162560D01*
X-289560Y187960D01*
X-281940Y34170D02*
X-281940Y26670D01*
X-284480Y24130D02*
X-308610Y24130D01*
X-284480Y24130D02*
X-281940Y26670D01*
X-308610Y85090D02*
X-314960Y85090D01*
X-321310Y85090D01*
X-339090Y85090D01*
X-344170Y80010D01*
X-344170Y27940D01*
X-340360Y24130D01*
X-308610Y24130D01*
X-314960Y85090D02*
X-314960Y91440D01*
X-321310Y85090D01*
X-282060Y34290D02*
X-279520Y31750D01*
X-265430Y31750D01*
X-259080Y38100D01*
X-236220Y38100D02*
X-229870Y31750D01*
D25*
X-222250Y31750D03*
D24*
X-236220Y38100D02*
X-259080Y38100D01*
X-229870Y31750D02*
X-222250Y31750D01*
X-264160Y135240D02*
X-264160Y182880D01*
X-312540Y28060D02*
X-308610Y24130D01*
X-312540Y28060D02*
X-312540Y34290D01*
D25*
X44450Y208280D03*
D26*
X44840Y207890D01*
X44840Y193040D01*
X61840Y193040D02*
X82320Y193040D01*
X82980Y193700D01*
X70560Y240590D02*
X48820Y240590D01*
X86360Y224790D02*
X99060Y224790D01*
X104980Y218870D01*
X104980Y203200D01*
X86360Y224790D02*
X70560Y240590D01*
D25*
X274320Y68580D03*
D27*
X270510Y72390D01*
X232410Y72390D02*
X204470Y100330D01*
D25*
X204470Y100330D03*
D27*
X232410Y72390D02*
X270510Y72390D01*
D25*
X232410Y105410D03*
D26*
X227330Y110490D01*
X227330Y162560D01*
X223520Y166370D01*
D25*
X218440Y166370D03*
D26*
X223520Y166370D01*
D25*
X276860Y127000D03*
D24*
X312420Y127000D01*
X318770Y120650D02*
X318770Y104140D01*
X318770Y120650D02*
X312420Y127000D01*
D25*
X275590Y83820D03*
D24*
X314960Y83820D01*
X318770Y80010D01*
X318770Y66040D01*
D25*
X205740Y58420D03*
D26*
X154940Y58420D01*
X146050Y67310D01*
D25*
X146050Y207010D03*
D26*
X146050Y67310D01*
D25*
X181610Y207010D03*
D26*
X184150Y207010D01*
X187960Y203200D01*
X187960Y166370D02*
X184150Y162560D01*
D25*
X184150Y162560D03*
D26*
X187960Y166370D02*
X187960Y203200D01*
D25*
X-21590Y170180D03*
D26*
X-57150Y170180D02*
X-63099Y176129D01*
X-57150Y170180D02*
X-21590Y170180D01*
X-63099Y176129D02*
X-63099Y202966D01*
X-62934Y203132D01*
D25*
X-62934Y203132D03*
D24*
X-276860Y85740D02*
X-276860Y55000D01*
X-279790Y52070D01*
X-327540Y34290D02*
X-328540Y35290D01*
X-328540Y52070D01*
X-297060Y34290D02*
X-296790Y34560D01*
X-296790Y52070D01*
X-311540Y52070D02*
X-311540Y61840D01*
X-307340Y66040D02*
X-298450Y66040D01*
X-307340Y66040D02*
X-311540Y61840D01*
X-289560Y74930D02*
X-289560Y85740D01*
X-289560Y74930D02*
X-298450Y66040D01*
X-255270Y71120D02*
X-255270Y81280D01*
X-255270Y71120D02*
X-251850Y67700D01*
X-248920Y67700D01*
X-240030Y67700D01*
X-218440Y67700D01*
X-204080Y67700D01*
X-193017Y78763D01*
X-190251Y81529D01*
X-188902Y82878D01*
X-185793Y85987D01*
X-184433Y87347D01*
X-182570Y89210D01*
X-177800Y93980D01*
X-248920Y67700D02*
X-248920Y53340D01*
X-242570Y46990D01*
X-240030Y46990D01*
D25*
X-240030Y46990D03*
D24*
X-204470Y93980D02*
X-197122Y93980D01*
D25*
X-210820Y100330D03*
D24*
X-197122Y93980D02*
X-192938Y93980D01*
X-187886Y93980D01*
X-185303Y93980D01*
X-177800Y93980D01*
X-204470Y93980D02*
X-210820Y100330D01*
X-255270Y81280D02*
X-259730Y85740D01*
X-264160Y85740D01*
D26*
X-146418Y94348D02*
X-146050Y93980D01*
X-146418Y107899D02*
X-146487Y107968D01*
D25*
X-146487Y107968D03*
D26*
X-146418Y107899D02*
X-146418Y94348D01*
D24*
X-146050Y93980D02*
X-177800Y93980D01*
X-146050Y93980D02*
X-140106Y93980D01*
X-139492Y94595D01*
X-145435Y94595D01*
X-146050Y93980D01*
X-182570Y91247D02*
X-185303Y93980D01*
X-182570Y91247D02*
X-182570Y89210D01*
X-184433Y90527D02*
X-187886Y93980D01*
X-184433Y90527D02*
X-184433Y87347D01*
X-188902Y89944D02*
X-190251Y91293D01*
X-188902Y89944D02*
X-185793Y86835D01*
X-185793Y85987D01*
X-188902Y82878D02*
X-188902Y89944D01*
X-190251Y91293D02*
X-192938Y93980D01*
X-190251Y91293D02*
X-190251Y81529D01*
X-193017Y93901D02*
X-192938Y93980D01*
X-193017Y93901D02*
X-193017Y89875D01*
X-193017Y89268D02*
X-193017Y78763D01*
X-193017Y89875D02*
X-197122Y93980D01*
X-193017Y89875D02*
X-193017Y89268D01*
X-289560Y135240D02*
X-289560Y156600D01*
X-291710Y158750D01*
X-251760Y155240D02*
X-245720Y155240D01*
X-256540Y186690D02*
X-251460Y191770D01*
X-209550Y191770D01*
X-205330Y187550D02*
X-205330Y177390D01*
X-251760Y155240D02*
X-256540Y160020D01*
X-256540Y186690D01*
X-209550Y191770D02*
X-205330Y187550D01*
X-205330Y138020D02*
X-205330Y119790D01*
X-222550Y155240D02*
X-226720Y155240D01*
X-222550Y155240D02*
X-205330Y138020D01*
X-236220Y166760D02*
X-244720Y175260D01*
X-236220Y166760D02*
X-236220Y155240D01*
X-243450Y88120D02*
X-240030Y84700D01*
X-243450Y88120D02*
X-243450Y106680D01*
X-236220Y113910D01*
X-236220Y129240D01*
X-171450Y44060D02*
X-154550Y44060D01*
X-150622Y40132D02*
X-150622Y35560D01*
X-150622Y40132D02*
X-154550Y44060D01*
X-171450Y44060D02*
X-171450Y58420D01*
X-176530Y63500D01*
D25*
X-191770Y63500D03*
D24*
X-176530Y63500D01*
M02*
