G04 EAGLE Gerber RS-274X export*
G75*
%MOMM*%
%FSLAX34Y34*%
%LPD*%
%INSolderpaste Top*%
%IPPOS*%
%AMOC8*
5,1,8,0,0,1.08239X$1,22.5*%
G01*
%ADD10R,1.000000X1.100000*%
%ADD11R,1.100000X1.000000*%
%ADD12R,0.520000X1.110000*%
%ADD13R,0.730000X1.210000*%
%ADD14R,1.500000X1.800000*%
%ADD15R,0.600000X1.150000*%
%ADD16R,0.300000X1.150000*%
%ADD17R,1.400000X1.000000*%
%ADD18R,1.400000X0.950000*%
%ADD19R,0.500000X0.250000*%
%ADD20R,0.250000X0.500000*%
%ADD21R,0.790000X0.260000*%
%ADD22R,0.260000X0.790000*%
%ADD23C,0.155000*%
%ADD24R,1.500000X0.900000*%
%ADD25R,0.650000X1.050000*%
%ADD26R,1.739000X1.739000*%
%ADD27R,0.785000X0.242000*%
%ADD28C,0.242000*%
%ADD29R,5.500000X5.500000*%
%ADD30R,0.800000X0.800000*%

G36*
X175191Y112527D02*
X175191Y112527D01*
X175240Y112542D01*
X175330Y112559D01*
X176404Y112934D01*
X176448Y112959D01*
X176532Y112996D01*
X177495Y113601D01*
X177532Y113635D01*
X177606Y113690D01*
X178410Y114494D01*
X178439Y114536D01*
X178499Y114605D01*
X179104Y115568D01*
X179123Y115615D01*
X179166Y115696D01*
X179541Y116770D01*
X179549Y116820D01*
X179573Y116909D01*
X179700Y118039D01*
X179697Y118089D01*
X179700Y118181D01*
X179573Y119311D01*
X179558Y119360D01*
X179541Y119450D01*
X179166Y120524D01*
X179141Y120568D01*
X179104Y120652D01*
X178499Y121615D01*
X178465Y121652D01*
X178410Y121726D01*
X177606Y122530D01*
X177564Y122559D01*
X177495Y122619D01*
X176532Y123224D01*
X176485Y123243D01*
X176404Y123286D01*
X175330Y123661D01*
X175280Y123669D01*
X175191Y123693D01*
X174061Y123820D01*
X174011Y123817D01*
X173919Y123820D01*
X172789Y123693D01*
X172740Y123678D01*
X172650Y123661D01*
X171576Y123286D01*
X171532Y123261D01*
X171448Y123224D01*
X170485Y122619D01*
X170448Y122585D01*
X170374Y122530D01*
X169570Y121726D01*
X169541Y121684D01*
X169481Y121615D01*
X168876Y120652D01*
X168857Y120605D01*
X168814Y120524D01*
X168439Y119450D01*
X168431Y119400D01*
X168407Y119311D01*
X168280Y118181D01*
X168283Y118131D01*
X168280Y118039D01*
X168407Y116909D01*
X168422Y116860D01*
X168439Y116770D01*
X168814Y115696D01*
X168839Y115652D01*
X168876Y115568D01*
X169481Y114605D01*
X169515Y114568D01*
X169570Y114494D01*
X170374Y113690D01*
X170416Y113661D01*
X170485Y113601D01*
X171448Y112996D01*
X171495Y112977D01*
X171576Y112934D01*
X172650Y112559D01*
X172700Y112551D01*
X172789Y112527D01*
X173919Y112400D01*
X173969Y112403D01*
X174061Y112400D01*
X175191Y112527D01*
G37*
D10*
X214630Y135010D03*
X214630Y152010D03*
X182880Y175650D03*
X182880Y192650D03*
X123190Y199000D03*
X123190Y182000D03*
X105410Y96130D03*
X105410Y79130D03*
X146050Y56760D03*
X146050Y39760D03*
X50800Y248530D03*
X50800Y231530D03*
X72390Y248530D03*
X72390Y231530D03*
X-72390Y169790D03*
X-72390Y152790D03*
X-134620Y178680D03*
X-134620Y161680D03*
X-25400Y281060D03*
X-25400Y298060D03*
X-267970Y50410D03*
X-267970Y33410D03*
D11*
X-281550Y128270D03*
X-264550Y128270D03*
D10*
X-289560Y50410D03*
X-289560Y33410D03*
X-252730Y67700D03*
X-252730Y84700D03*
D11*
X262500Y62230D03*
X245500Y62230D03*
D10*
X205740Y175650D03*
X205740Y192650D03*
D12*
X-68910Y25350D03*
X-68910Y48650D03*
D13*
X-176530Y49820D03*
X-176530Y16220D03*
D14*
G36*
X-106644Y330074D02*
X-93654Y337574D01*
X-84654Y321986D01*
X-97644Y314486D01*
X-106644Y330074D01*
G37*
G36*
X-184586Y285074D02*
X-171596Y292574D01*
X-162596Y276986D01*
X-175586Y269486D01*
X-184586Y285074D01*
G37*
D15*
X-35810Y70410D03*
X28190Y70410D03*
X-27810Y70410D03*
X20190Y70410D03*
D16*
X-1310Y70410D03*
X-6310Y70410D03*
X3690Y70410D03*
X8690Y70410D03*
X13690Y70410D03*
X-11310Y70410D03*
X-16310Y70410D03*
X-21310Y70410D03*
D17*
X-203630Y34950D03*
X-203630Y53950D03*
X-225630Y44450D03*
D11*
X-311150Y33410D03*
X-311150Y50410D03*
X-331470Y58810D03*
X-331470Y75810D03*
D10*
X-179460Y90170D03*
X-196460Y90170D03*
X-196460Y114300D03*
X-179460Y114300D03*
X-220590Y15240D03*
X-203590Y15240D03*
X245500Y40640D03*
X262500Y40640D03*
X242180Y189230D03*
X225180Y189230D03*
X245500Y19050D03*
X262500Y19050D03*
X245500Y83820D03*
X262500Y83820D03*
X245500Y148590D03*
X262500Y148590D03*
X245500Y127000D03*
X262500Y127000D03*
X163440Y189230D03*
X146440Y189230D03*
X187080Y74930D03*
X204080Y74930D03*
X163440Y165100D03*
X146440Y165100D03*
X131690Y148590D03*
X114690Y148590D03*
X91830Y114300D03*
X108830Y114300D03*
D11*
X127000Y117720D03*
X127000Y100720D03*
X167640Y56760D03*
X167640Y39760D03*
D10*
X171060Y74930D03*
X154060Y74930D03*
X245500Y105410D03*
X262500Y105410D03*
X41520Y284480D03*
X24520Y284480D03*
X-7230Y284480D03*
X9770Y284480D03*
X-113910Y214630D03*
X-96910Y214630D03*
X-89290Y46990D03*
X-106290Y46990D03*
X-144390Y81280D03*
X-127390Y81280D03*
D11*
X53340Y314080D03*
X53340Y331080D03*
D18*
X-105410Y194740D03*
X-105410Y153240D03*
D17*
X-124890Y38760D03*
X-146890Y48260D03*
X-124890Y57760D03*
X-106250Y89510D03*
X-84250Y80010D03*
X-106250Y70510D03*
D19*
X192490Y108110D03*
X192490Y113110D03*
X192490Y118110D03*
X192490Y123110D03*
X192490Y128110D03*
D20*
X183990Y136610D03*
X178990Y136610D03*
X173990Y136610D03*
X168990Y136610D03*
X163990Y136610D03*
D19*
X155490Y128110D03*
X155490Y123110D03*
X155490Y118110D03*
X155490Y113110D03*
X155490Y108110D03*
D20*
X163990Y99610D03*
X168990Y99610D03*
X173990Y99610D03*
X178990Y99610D03*
X183990Y99610D03*
D21*
X-310530Y100130D03*
X-310530Y95130D03*
X-310530Y90130D03*
X-310530Y85130D03*
X-310530Y80130D03*
X-310530Y75130D03*
D22*
X-303330Y67930D03*
X-298330Y67930D03*
X-293330Y67930D03*
X-288330Y67930D03*
X-283330Y67930D03*
X-278330Y67930D03*
D21*
X-271130Y75130D03*
X-271130Y80130D03*
X-271130Y85130D03*
X-271130Y90130D03*
X-271130Y95130D03*
X-271130Y100130D03*
D22*
X-278330Y107330D03*
X-283330Y107330D03*
X-288330Y107330D03*
X-293330Y107330D03*
X-298330Y107330D03*
X-303330Y107330D03*
D23*
X-45935Y107815D02*
X-45935Y96265D01*
X-50585Y96265D01*
X-50585Y107815D01*
X-45935Y107815D01*
X-45935Y97737D02*
X-50585Y97737D01*
X-50585Y99209D02*
X-45935Y99209D01*
X-45935Y100681D02*
X-50585Y100681D01*
X-50585Y102153D02*
X-45935Y102153D01*
X-45935Y103625D02*
X-50585Y103625D01*
X-50585Y105097D02*
X-45935Y105097D01*
X-45935Y106569D02*
X-50585Y106569D01*
X-33235Y107815D02*
X-33235Y96265D01*
X-37885Y96265D01*
X-37885Y107815D01*
X-33235Y107815D01*
X-33235Y97737D02*
X-37885Y97737D01*
X-37885Y99209D02*
X-33235Y99209D01*
X-33235Y100681D02*
X-37885Y100681D01*
X-37885Y102153D02*
X-33235Y102153D01*
X-33235Y103625D02*
X-37885Y103625D01*
X-37885Y105097D02*
X-33235Y105097D01*
X-33235Y106569D02*
X-37885Y106569D01*
X-20535Y107815D02*
X-20535Y96265D01*
X-25185Y96265D01*
X-25185Y107815D01*
X-20535Y107815D01*
X-20535Y97737D02*
X-25185Y97737D01*
X-25185Y99209D02*
X-20535Y99209D01*
X-20535Y100681D02*
X-25185Y100681D01*
X-25185Y102153D02*
X-20535Y102153D01*
X-20535Y103625D02*
X-25185Y103625D01*
X-25185Y105097D02*
X-20535Y105097D01*
X-20535Y106569D02*
X-25185Y106569D01*
X-7835Y107815D02*
X-7835Y96265D01*
X-12485Y96265D01*
X-12485Y107815D01*
X-7835Y107815D01*
X-7835Y97737D02*
X-12485Y97737D01*
X-12485Y99209D02*
X-7835Y99209D01*
X-7835Y100681D02*
X-12485Y100681D01*
X-12485Y102153D02*
X-7835Y102153D01*
X-7835Y103625D02*
X-12485Y103625D01*
X-12485Y105097D02*
X-7835Y105097D01*
X-7835Y106569D02*
X-12485Y106569D01*
X4865Y107815D02*
X4865Y96265D01*
X215Y96265D01*
X215Y107815D01*
X4865Y107815D01*
X4865Y97737D02*
X215Y97737D01*
X215Y99209D02*
X4865Y99209D01*
X4865Y100681D02*
X215Y100681D01*
X215Y102153D02*
X4865Y102153D01*
X4865Y103625D02*
X215Y103625D01*
X215Y105097D02*
X4865Y105097D01*
X4865Y106569D02*
X215Y106569D01*
X17565Y107815D02*
X17565Y96265D01*
X12915Y96265D01*
X12915Y107815D01*
X17565Y107815D01*
X17565Y97737D02*
X12915Y97737D01*
X12915Y99209D02*
X17565Y99209D01*
X17565Y100681D02*
X12915Y100681D01*
X12915Y102153D02*
X17565Y102153D01*
X17565Y103625D02*
X12915Y103625D01*
X12915Y105097D02*
X17565Y105097D01*
X17565Y106569D02*
X12915Y106569D01*
X30265Y107815D02*
X30265Y96265D01*
X25615Y96265D01*
X25615Y107815D01*
X30265Y107815D01*
X30265Y97737D02*
X25615Y97737D01*
X25615Y99209D02*
X30265Y99209D01*
X30265Y100681D02*
X25615Y100681D01*
X25615Y102153D02*
X30265Y102153D01*
X30265Y103625D02*
X25615Y103625D01*
X25615Y105097D02*
X30265Y105097D01*
X30265Y106569D02*
X25615Y106569D01*
X42965Y107815D02*
X42965Y96265D01*
X38315Y96265D01*
X38315Y107815D01*
X42965Y107815D01*
X42965Y97737D02*
X38315Y97737D01*
X38315Y99209D02*
X42965Y99209D01*
X42965Y100681D02*
X38315Y100681D01*
X38315Y102153D02*
X42965Y102153D01*
X42965Y103625D02*
X38315Y103625D01*
X38315Y105097D02*
X42965Y105097D01*
X42965Y106569D02*
X38315Y106569D01*
X42965Y151265D02*
X42965Y162815D01*
X42965Y151265D02*
X38315Y151265D01*
X38315Y162815D01*
X42965Y162815D01*
X42965Y152737D02*
X38315Y152737D01*
X38315Y154209D02*
X42965Y154209D01*
X42965Y155681D02*
X38315Y155681D01*
X38315Y157153D02*
X42965Y157153D01*
X42965Y158625D02*
X38315Y158625D01*
X38315Y160097D02*
X42965Y160097D01*
X42965Y161569D02*
X38315Y161569D01*
X30265Y162815D02*
X30265Y151265D01*
X25615Y151265D01*
X25615Y162815D01*
X30265Y162815D01*
X30265Y152737D02*
X25615Y152737D01*
X25615Y154209D02*
X30265Y154209D01*
X30265Y155681D02*
X25615Y155681D01*
X25615Y157153D02*
X30265Y157153D01*
X30265Y158625D02*
X25615Y158625D01*
X25615Y160097D02*
X30265Y160097D01*
X30265Y161569D02*
X25615Y161569D01*
X17565Y162815D02*
X17565Y151265D01*
X12915Y151265D01*
X12915Y162815D01*
X17565Y162815D01*
X17565Y152737D02*
X12915Y152737D01*
X12915Y154209D02*
X17565Y154209D01*
X17565Y155681D02*
X12915Y155681D01*
X12915Y157153D02*
X17565Y157153D01*
X17565Y158625D02*
X12915Y158625D01*
X12915Y160097D02*
X17565Y160097D01*
X17565Y161569D02*
X12915Y161569D01*
X4865Y162815D02*
X4865Y151265D01*
X215Y151265D01*
X215Y162815D01*
X4865Y162815D01*
X4865Y152737D02*
X215Y152737D01*
X215Y154209D02*
X4865Y154209D01*
X4865Y155681D02*
X215Y155681D01*
X215Y157153D02*
X4865Y157153D01*
X4865Y158625D02*
X215Y158625D01*
X215Y160097D02*
X4865Y160097D01*
X4865Y161569D02*
X215Y161569D01*
X-7835Y162815D02*
X-7835Y151265D01*
X-12485Y151265D01*
X-12485Y162815D01*
X-7835Y162815D01*
X-7835Y152737D02*
X-12485Y152737D01*
X-12485Y154209D02*
X-7835Y154209D01*
X-7835Y155681D02*
X-12485Y155681D01*
X-12485Y157153D02*
X-7835Y157153D01*
X-7835Y158625D02*
X-12485Y158625D01*
X-12485Y160097D02*
X-7835Y160097D01*
X-7835Y161569D02*
X-12485Y161569D01*
X-20535Y162815D02*
X-20535Y151265D01*
X-25185Y151265D01*
X-25185Y162815D01*
X-20535Y162815D01*
X-20535Y152737D02*
X-25185Y152737D01*
X-25185Y154209D02*
X-20535Y154209D01*
X-20535Y155681D02*
X-25185Y155681D01*
X-25185Y157153D02*
X-20535Y157153D01*
X-20535Y158625D02*
X-25185Y158625D01*
X-25185Y160097D02*
X-20535Y160097D01*
X-20535Y161569D02*
X-25185Y161569D01*
X-33235Y162815D02*
X-33235Y151265D01*
X-37885Y151265D01*
X-37885Y162815D01*
X-33235Y162815D01*
X-33235Y152737D02*
X-37885Y152737D01*
X-37885Y154209D02*
X-33235Y154209D01*
X-33235Y155681D02*
X-37885Y155681D01*
X-37885Y157153D02*
X-33235Y157153D01*
X-33235Y158625D02*
X-37885Y158625D01*
X-37885Y160097D02*
X-33235Y160097D01*
X-33235Y161569D02*
X-37885Y161569D01*
X-45935Y162815D02*
X-45935Y151265D01*
X-50585Y151265D01*
X-50585Y162815D01*
X-45935Y162815D01*
X-45935Y152737D02*
X-50585Y152737D01*
X-50585Y154209D02*
X-45935Y154209D01*
X-45935Y155681D02*
X-50585Y155681D01*
X-50585Y157153D02*
X-45935Y157153D01*
X-45935Y158625D02*
X-50585Y158625D01*
X-50585Y160097D02*
X-45935Y160097D01*
X-45935Y161569D02*
X-50585Y161569D01*
D24*
X21960Y318780D03*
X21960Y351780D03*
X-27040Y351780D03*
X-27040Y318780D03*
D25*
X109299Y315873D03*
X109299Y274373D03*
X87799Y315873D03*
X87799Y274373D03*
D26*
X-18534Y230058D03*
X5596Y230058D03*
X-18534Y205928D03*
X5596Y205928D03*
D27*
X-40099Y245493D03*
D28*
X-42814Y240493D02*
X-37384Y240493D01*
X-37384Y235493D02*
X-42814Y235493D01*
X-42814Y230493D02*
X-37384Y230493D01*
X-37384Y225493D02*
X-42814Y225493D01*
X-42814Y220493D02*
X-37384Y220493D01*
X-37384Y215493D02*
X-42814Y215493D01*
X-42814Y210493D02*
X-37384Y210493D01*
X-37384Y205493D02*
X-42814Y205493D01*
X-42814Y200493D02*
X-37384Y200493D01*
X-37384Y195493D02*
X-42814Y195493D01*
X-42814Y190493D02*
X-37384Y190493D01*
X24446Y190493D02*
X29876Y190493D01*
X29876Y195493D02*
X24446Y195493D01*
X24446Y200493D02*
X29876Y200493D01*
X29876Y205493D02*
X24446Y205493D01*
X24446Y210493D02*
X29876Y210493D01*
X29876Y215493D02*
X24446Y215493D01*
X24446Y220493D02*
X29876Y220493D01*
X29876Y225493D02*
X24446Y225493D01*
X24446Y230493D02*
X29876Y230493D01*
X29876Y235493D02*
X24446Y235493D01*
X24446Y240493D02*
X29876Y240493D01*
X29876Y245493D02*
X24446Y245493D01*
X-33969Y187078D02*
X-33969Y181648D01*
X-28969Y181648D02*
X-28969Y187078D01*
X-23969Y187078D02*
X-23969Y181648D01*
X-18969Y181648D02*
X-18969Y187078D01*
X-13969Y187078D02*
X-13969Y181648D01*
X-8969Y181648D02*
X-8969Y187078D01*
X-3969Y187078D02*
X-3969Y181648D01*
X1031Y181648D02*
X1031Y187078D01*
X6031Y187078D02*
X6031Y181648D01*
X11031Y181648D02*
X11031Y187078D01*
X16031Y187078D02*
X16031Y181648D01*
X21031Y181648D02*
X21031Y187078D01*
X21031Y248908D02*
X21031Y254338D01*
X16031Y254338D02*
X16031Y248908D01*
X11031Y248908D02*
X11031Y254338D01*
X6031Y254338D02*
X6031Y248908D01*
X1031Y248908D02*
X1031Y254338D01*
X-3969Y254338D02*
X-3969Y248908D01*
X-8969Y248908D02*
X-8969Y254338D01*
X-13969Y254338D02*
X-13969Y248908D01*
X-18969Y248908D02*
X-18969Y254338D01*
X-23969Y254338D02*
X-23969Y248908D01*
X-28969Y248908D02*
X-28969Y254338D01*
X-33969Y254338D02*
X-33969Y248908D01*
D29*
X-6469Y217993D03*
D30*
X-107991Y29697D03*
X-107991Y14697D03*
D10*
X-148403Y22197D03*
X-131403Y22197D03*
M02*
