G04 EAGLE Gerber RS-274X export*
G75*
%MOMM*%
%FSLAX34Y34*%
%LPD*%
%INSoldermask Top*%
%IPPOS*%
%AMOC8*
5,1,8,0,0,1.08239X$1,22.5*%
G01*
%ADD10C,3.203200*%
%ADD11R,1.203200X1.303200*%
%ADD12R,1.303200X1.203200*%
%ADD13R,0.723200X1.313200*%
%ADD14R,0.933200X1.413200*%
%ADD15R,1.703200X2.003200*%
%ADD16C,1.311200*%
%ADD17C,0.853200*%
%ADD18R,0.803200X1.353200*%
%ADD19R,0.503200X1.353200*%
%ADD20R,1.603200X1.203200*%
%ADD21R,1.603200X1.153200*%
%ADD22R,0.703200X0.453200*%
%ADD23R,0.453200X0.703200*%
%ADD24C,0.459544*%
%ADD25R,0.993200X0.463200*%
%ADD26R,0.463200X0.993200*%
%ADD27C,0.362206*%
%ADD28R,1.703200X1.103200*%
%ADD29C,1.473200*%
%ADD30R,0.853200X1.253200*%
%ADD31R,0.988200X0.445200*%
%ADD32C,0.445200*%
%ADD33R,5.703200X5.703200*%
%ADD34R,1.003200X1.003200*%


D10*
X-400201Y27035D03*
X205000Y255000D03*
D11*
X214630Y135010D03*
X214630Y152010D03*
X182880Y175650D03*
X182880Y192650D03*
X123190Y199000D03*
X123190Y182000D03*
X105410Y96130D03*
X105410Y79130D03*
X146050Y56760D03*
X146050Y39760D03*
X50800Y248530D03*
X50800Y231530D03*
X72390Y248530D03*
X72390Y231530D03*
X-72390Y169790D03*
X-72390Y152790D03*
X-134620Y178680D03*
X-134620Y161680D03*
X-25400Y281060D03*
X-25400Y298060D03*
X-267970Y50410D03*
X-267970Y33410D03*
D12*
X-281550Y128270D03*
X-264550Y128270D03*
D11*
X-289560Y50410D03*
X-289560Y33410D03*
X-252730Y67700D03*
X-252730Y84700D03*
D12*
X262500Y62230D03*
X245500Y62230D03*
D11*
X205740Y175650D03*
X205740Y192650D03*
D13*
X-68910Y25350D03*
X-68910Y48650D03*
D14*
X-176530Y49820D03*
X-176530Y16220D03*
D15*
G36*
X-108032Y330446D02*
X-93282Y338962D01*
X-83266Y321614D01*
X-98016Y313098D01*
X-108032Y330446D01*
G37*
G36*
X-185974Y285446D02*
X-171224Y293962D01*
X-161208Y276614D01*
X-175958Y268098D01*
X-185974Y285446D01*
G37*
D16*
X-47010Y28400D02*
X-47010Y17320D01*
X39390Y17320D02*
X39390Y28400D01*
X-47010Y59120D02*
X-47010Y70200D01*
X39390Y70200D02*
X39390Y59120D01*
D17*
X25090Y59660D03*
X-32710Y59660D03*
D18*
X-35810Y70410D03*
X28190Y70410D03*
X-27810Y70410D03*
X20190Y70410D03*
D19*
X-1310Y70410D03*
X-6310Y70410D03*
X3690Y70410D03*
X8690Y70410D03*
X13690Y70410D03*
X-11310Y70410D03*
X-16310Y70410D03*
X-21310Y70410D03*
D20*
X-203630Y34950D03*
X-203630Y53950D03*
X-225630Y44450D03*
D12*
X-311150Y33410D03*
X-311150Y50410D03*
X-331470Y58810D03*
X-331470Y75810D03*
D11*
X-179460Y90170D03*
X-196460Y90170D03*
X-196460Y114300D03*
X-179460Y114300D03*
X-220590Y15240D03*
X-203590Y15240D03*
X245500Y40640D03*
X262500Y40640D03*
X242180Y189230D03*
X225180Y189230D03*
X245500Y19050D03*
X262500Y19050D03*
X245500Y83820D03*
X262500Y83820D03*
X245500Y148590D03*
X262500Y148590D03*
X245500Y127000D03*
X262500Y127000D03*
X163440Y189230D03*
X146440Y189230D03*
X187080Y74930D03*
X204080Y74930D03*
X163440Y165100D03*
X146440Y165100D03*
X131690Y148590D03*
X114690Y148590D03*
X91830Y114300D03*
X108830Y114300D03*
D12*
X127000Y117720D03*
X127000Y100720D03*
X167640Y56760D03*
X167640Y39760D03*
D11*
X171060Y74930D03*
X154060Y74930D03*
X245500Y105410D03*
X262500Y105410D03*
X41520Y284480D03*
X24520Y284480D03*
X-7230Y284480D03*
X9770Y284480D03*
X-113910Y214630D03*
X-96910Y214630D03*
X-89290Y46990D03*
X-106290Y46990D03*
X-144390Y81280D03*
X-127390Y81280D03*
D12*
X53340Y314080D03*
X53340Y331080D03*
D21*
X-105410Y194740D03*
X-105410Y153240D03*
D20*
X-124890Y38760D03*
X-146890Y48260D03*
X-124890Y57760D03*
X-106250Y89510D03*
X-84250Y80010D03*
X-106250Y70510D03*
D22*
X192490Y108110D03*
X192490Y113110D03*
X192490Y118110D03*
X192490Y123110D03*
X192490Y128110D03*
D23*
X183990Y136610D03*
X178990Y136610D03*
X173990Y136610D03*
X168990Y136610D03*
X163990Y136610D03*
D22*
X155490Y128110D03*
X155490Y123110D03*
X155490Y118110D03*
X155490Y113110D03*
X155490Y108110D03*
D23*
X163990Y99610D03*
X168990Y99610D03*
X173990Y99610D03*
X178990Y99610D03*
X183990Y99610D03*
D24*
X185209Y129329D02*
X162771Y129329D01*
X185209Y129329D02*
X185209Y106891D01*
X162771Y106891D01*
X162771Y129329D01*
X162771Y111256D02*
X185209Y111256D01*
X185209Y115621D02*
X162771Y115621D01*
X162771Y119986D02*
X185209Y119986D01*
X185209Y124351D02*
X162771Y124351D01*
X162771Y128716D02*
X185209Y128716D01*
D25*
X-310530Y100130D03*
X-310530Y95130D03*
X-310530Y90130D03*
X-310530Y85130D03*
X-310530Y80130D03*
X-310530Y75130D03*
D26*
X-303330Y67930D03*
X-298330Y67930D03*
X-293330Y67930D03*
X-288330Y67930D03*
X-283330Y67930D03*
X-278330Y67930D03*
D25*
X-271130Y75130D03*
X-271130Y80130D03*
X-271130Y85130D03*
X-271130Y90130D03*
X-271130Y95130D03*
X-271130Y100130D03*
D26*
X-278330Y107330D03*
X-283330Y107330D03*
X-288330Y107330D03*
X-293330Y107330D03*
X-298330Y107330D03*
X-303330Y107330D03*
D27*
X-45955Y107795D02*
X-45955Y96285D01*
X-50565Y96285D01*
X-50565Y107795D01*
X-45955Y107795D01*
X-45955Y99726D02*
X-50565Y99726D01*
X-50565Y103167D02*
X-45955Y103167D01*
X-45955Y106608D02*
X-50565Y106608D01*
X-33255Y107795D02*
X-33255Y96285D01*
X-37865Y96285D01*
X-37865Y107795D01*
X-33255Y107795D01*
X-33255Y99726D02*
X-37865Y99726D01*
X-37865Y103167D02*
X-33255Y103167D01*
X-33255Y106608D02*
X-37865Y106608D01*
X-20555Y107795D02*
X-20555Y96285D01*
X-25165Y96285D01*
X-25165Y107795D01*
X-20555Y107795D01*
X-20555Y99726D02*
X-25165Y99726D01*
X-25165Y103167D02*
X-20555Y103167D01*
X-20555Y106608D02*
X-25165Y106608D01*
X-7855Y107795D02*
X-7855Y96285D01*
X-12465Y96285D01*
X-12465Y107795D01*
X-7855Y107795D01*
X-7855Y99726D02*
X-12465Y99726D01*
X-12465Y103167D02*
X-7855Y103167D01*
X-7855Y106608D02*
X-12465Y106608D01*
X4845Y107795D02*
X4845Y96285D01*
X235Y96285D01*
X235Y107795D01*
X4845Y107795D01*
X4845Y99726D02*
X235Y99726D01*
X235Y103167D02*
X4845Y103167D01*
X4845Y106608D02*
X235Y106608D01*
X17545Y107795D02*
X17545Y96285D01*
X12935Y96285D01*
X12935Y107795D01*
X17545Y107795D01*
X17545Y99726D02*
X12935Y99726D01*
X12935Y103167D02*
X17545Y103167D01*
X17545Y106608D02*
X12935Y106608D01*
X30245Y107795D02*
X30245Y96285D01*
X25635Y96285D01*
X25635Y107795D01*
X30245Y107795D01*
X30245Y99726D02*
X25635Y99726D01*
X25635Y103167D02*
X30245Y103167D01*
X30245Y106608D02*
X25635Y106608D01*
X42945Y107795D02*
X42945Y96285D01*
X38335Y96285D01*
X38335Y107795D01*
X42945Y107795D01*
X42945Y99726D02*
X38335Y99726D01*
X38335Y103167D02*
X42945Y103167D01*
X42945Y106608D02*
X38335Y106608D01*
X42945Y151285D02*
X42945Y162795D01*
X42945Y151285D02*
X38335Y151285D01*
X38335Y162795D01*
X42945Y162795D01*
X42945Y154726D02*
X38335Y154726D01*
X38335Y158167D02*
X42945Y158167D01*
X42945Y161608D02*
X38335Y161608D01*
X30245Y162795D02*
X30245Y151285D01*
X25635Y151285D01*
X25635Y162795D01*
X30245Y162795D01*
X30245Y154726D02*
X25635Y154726D01*
X25635Y158167D02*
X30245Y158167D01*
X30245Y161608D02*
X25635Y161608D01*
X17545Y162795D02*
X17545Y151285D01*
X12935Y151285D01*
X12935Y162795D01*
X17545Y162795D01*
X17545Y154726D02*
X12935Y154726D01*
X12935Y158167D02*
X17545Y158167D01*
X17545Y161608D02*
X12935Y161608D01*
X4845Y162795D02*
X4845Y151285D01*
X235Y151285D01*
X235Y162795D01*
X4845Y162795D01*
X4845Y154726D02*
X235Y154726D01*
X235Y158167D02*
X4845Y158167D01*
X4845Y161608D02*
X235Y161608D01*
X-7855Y162795D02*
X-7855Y151285D01*
X-12465Y151285D01*
X-12465Y162795D01*
X-7855Y162795D01*
X-7855Y154726D02*
X-12465Y154726D01*
X-12465Y158167D02*
X-7855Y158167D01*
X-7855Y161608D02*
X-12465Y161608D01*
X-20555Y162795D02*
X-20555Y151285D01*
X-25165Y151285D01*
X-25165Y162795D01*
X-20555Y162795D01*
X-20555Y154726D02*
X-25165Y154726D01*
X-25165Y158167D02*
X-20555Y158167D01*
X-20555Y161608D02*
X-25165Y161608D01*
X-33255Y162795D02*
X-33255Y151285D01*
X-37865Y151285D01*
X-37865Y162795D01*
X-33255Y162795D01*
X-33255Y154726D02*
X-37865Y154726D01*
X-37865Y158167D02*
X-33255Y158167D01*
X-33255Y161608D02*
X-37865Y161608D01*
X-45955Y162795D02*
X-45955Y151285D01*
X-50565Y151285D01*
X-50565Y162795D01*
X-45955Y162795D01*
X-45955Y154726D02*
X-50565Y154726D01*
X-50565Y158167D02*
X-45955Y158167D01*
X-45955Y161608D02*
X-50565Y161608D01*
D28*
X21960Y318780D03*
X21960Y351780D03*
X-27040Y351780D03*
X-27040Y318780D03*
D29*
X-120106Y112334D03*
X-120084Y130576D03*
D30*
X109299Y315873D03*
X109299Y274373D03*
X87799Y315873D03*
X87799Y274373D03*
D31*
X-40099Y245493D03*
D32*
X-42814Y240493D02*
X-37384Y240493D01*
X-37384Y235493D02*
X-42814Y235493D01*
X-42814Y230493D02*
X-37384Y230493D01*
X-37384Y225493D02*
X-42814Y225493D01*
X-42814Y220493D02*
X-37384Y220493D01*
X-37384Y215493D02*
X-42814Y215493D01*
X-42814Y210493D02*
X-37384Y210493D01*
X-37384Y205493D02*
X-42814Y205493D01*
X-42814Y200493D02*
X-37384Y200493D01*
X-37384Y195493D02*
X-42814Y195493D01*
X-42814Y190493D02*
X-37384Y190493D01*
X24446Y190493D02*
X29876Y190493D01*
X29876Y195493D02*
X24446Y195493D01*
X24446Y200493D02*
X29876Y200493D01*
X29876Y205493D02*
X24446Y205493D01*
X24446Y210493D02*
X29876Y210493D01*
X29876Y215493D02*
X24446Y215493D01*
X24446Y220493D02*
X29876Y220493D01*
X29876Y225493D02*
X24446Y225493D01*
X24446Y230493D02*
X29876Y230493D01*
X29876Y235493D02*
X24446Y235493D01*
X24446Y240493D02*
X29876Y240493D01*
X29876Y245493D02*
X24446Y245493D01*
X-33969Y187078D02*
X-33969Y181648D01*
X-28969Y181648D02*
X-28969Y187078D01*
X-23969Y187078D02*
X-23969Y181648D01*
X-18969Y181648D02*
X-18969Y187078D01*
X-13969Y187078D02*
X-13969Y181648D01*
X-8969Y181648D02*
X-8969Y187078D01*
X-3969Y187078D02*
X-3969Y181648D01*
X1031Y181648D02*
X1031Y187078D01*
X6031Y187078D02*
X6031Y181648D01*
X11031Y181648D02*
X11031Y187078D01*
X16031Y187078D02*
X16031Y181648D01*
X21031Y181648D02*
X21031Y187078D01*
X21031Y248908D02*
X21031Y254338D01*
X16031Y254338D02*
X16031Y248908D01*
X11031Y248908D02*
X11031Y254338D01*
X6031Y254338D02*
X6031Y248908D01*
X1031Y248908D02*
X1031Y254338D01*
X-3969Y254338D02*
X-3969Y248908D01*
X-8969Y248908D02*
X-8969Y254338D01*
X-13969Y254338D02*
X-13969Y248908D01*
X-18969Y248908D02*
X-18969Y254338D01*
X-23969Y254338D02*
X-23969Y248908D01*
X-28969Y248908D02*
X-28969Y254338D01*
X-33969Y254338D02*
X-33969Y248908D01*
D33*
X-6469Y217993D03*
D34*
X-107991Y29697D03*
X-107991Y14697D03*
D11*
X-148403Y22197D03*
X-131403Y22197D03*
M02*
