G04 EAGLE Gerber RS-274X export*
G75*
%MOMM*%
%FSLAX34Y34*%
%LPD*%
%INSolderpaste Bottom*%
%IPPOS*%
%AMOC8*
5,1,8,0,0,1.08239X$1,22.5*%
G01*
%ADD10R,1.100000X1.000000*%
%ADD11R,1.000000X1.100000*%
%ADD12R,0.550000X1.200000*%
%ADD13R,0.800000X0.800000*%
%ADD14R,2.500000X2.500000*%
%ADD15R,2.540000X1.270000*%
%ADD16C,0.100000*%
%ADD17R,1.400000X1.000000*%
%ADD18R,1.320800X0.558800*%
%ADD19R,1.320800X0.508000*%
%ADD20R,1.640000X1.290000*%
%ADD21C,0.150000*%


D10*
X-243450Y106680D03*
X-226450Y106680D03*
D11*
X-218440Y67700D03*
X-218440Y84700D03*
X-105410Y27060D03*
X-105410Y44060D03*
X-171450Y44060D03*
X-171450Y27060D03*
D12*
X-245720Y155240D03*
X-236220Y155240D03*
X-226720Y155240D03*
X-226720Y129240D03*
X-245720Y129240D03*
X-236220Y129240D03*
D13*
X-327540Y34290D03*
X-312540Y34290D03*
X-297060Y34290D03*
X-282060Y34290D03*
D14*
X118820Y240590D03*
X48820Y240590D03*
X118820Y310590D03*
X48820Y310590D03*
D15*
X-146050Y121920D03*
X-146050Y93980D03*
D16*
X-184330Y112490D02*
X-184330Y127090D01*
X-184330Y112490D02*
X-187330Y112490D01*
X-187330Y127090D01*
X-184330Y127090D01*
X-184330Y113440D02*
X-187330Y113440D01*
X-187330Y114390D02*
X-184330Y114390D01*
X-184330Y115340D02*
X-187330Y115340D01*
X-187330Y116290D02*
X-184330Y116290D01*
X-184330Y117240D02*
X-187330Y117240D01*
X-187330Y118190D02*
X-184330Y118190D01*
X-184330Y119140D02*
X-187330Y119140D01*
X-187330Y120090D02*
X-184330Y120090D01*
X-184330Y121040D02*
X-187330Y121040D01*
X-187330Y121990D02*
X-184330Y121990D01*
X-184330Y122940D02*
X-187330Y122940D01*
X-187330Y123890D02*
X-184330Y123890D01*
X-184330Y124840D02*
X-187330Y124840D01*
X-187330Y125790D02*
X-184330Y125790D01*
X-184330Y126740D02*
X-187330Y126740D01*
X-190830Y127090D02*
X-190830Y112490D01*
X-193830Y112490D01*
X-193830Y127090D01*
X-190830Y127090D01*
X-190830Y113440D02*
X-193830Y113440D01*
X-193830Y114390D02*
X-190830Y114390D01*
X-190830Y115340D02*
X-193830Y115340D01*
X-193830Y116290D02*
X-190830Y116290D01*
X-190830Y117240D02*
X-193830Y117240D01*
X-193830Y118190D02*
X-190830Y118190D01*
X-190830Y119140D02*
X-193830Y119140D01*
X-193830Y120090D02*
X-190830Y120090D01*
X-190830Y121040D02*
X-193830Y121040D01*
X-193830Y121990D02*
X-190830Y121990D01*
X-190830Y122940D02*
X-193830Y122940D01*
X-193830Y123890D02*
X-190830Y123890D01*
X-190830Y124840D02*
X-193830Y124840D01*
X-193830Y125790D02*
X-190830Y125790D01*
X-190830Y126740D02*
X-193830Y126740D01*
X-197330Y127090D02*
X-197330Y112490D01*
X-200330Y112490D01*
X-200330Y127090D01*
X-197330Y127090D01*
X-197330Y113440D02*
X-200330Y113440D01*
X-200330Y114390D02*
X-197330Y114390D01*
X-197330Y115340D02*
X-200330Y115340D01*
X-200330Y116290D02*
X-197330Y116290D01*
X-197330Y117240D02*
X-200330Y117240D01*
X-200330Y118190D02*
X-197330Y118190D01*
X-197330Y119140D02*
X-200330Y119140D01*
X-200330Y120090D02*
X-197330Y120090D01*
X-197330Y121040D02*
X-200330Y121040D01*
X-200330Y121990D02*
X-197330Y121990D01*
X-197330Y122940D02*
X-200330Y122940D01*
X-200330Y123890D02*
X-197330Y123890D01*
X-197330Y124840D02*
X-200330Y124840D01*
X-200330Y125790D02*
X-197330Y125790D01*
X-197330Y126740D02*
X-200330Y126740D01*
X-203830Y127090D02*
X-203830Y112490D01*
X-206830Y112490D01*
X-206830Y127090D01*
X-203830Y127090D01*
X-203830Y113440D02*
X-206830Y113440D01*
X-206830Y114390D02*
X-203830Y114390D01*
X-203830Y115340D02*
X-206830Y115340D01*
X-206830Y116290D02*
X-203830Y116290D01*
X-203830Y117240D02*
X-206830Y117240D01*
X-206830Y118190D02*
X-203830Y118190D01*
X-203830Y119140D02*
X-206830Y119140D01*
X-206830Y120090D02*
X-203830Y120090D01*
X-203830Y121040D02*
X-206830Y121040D01*
X-206830Y121990D02*
X-203830Y121990D01*
X-203830Y122940D02*
X-206830Y122940D01*
X-206830Y123890D02*
X-203830Y123890D01*
X-203830Y124840D02*
X-206830Y124840D01*
X-206830Y125790D02*
X-203830Y125790D01*
X-203830Y126740D02*
X-206830Y126740D01*
X-203830Y170090D02*
X-203830Y184690D01*
X-203830Y170090D02*
X-206830Y170090D01*
X-206830Y184690D01*
X-203830Y184690D01*
X-203830Y171040D02*
X-206830Y171040D01*
X-206830Y171990D02*
X-203830Y171990D01*
X-203830Y172940D02*
X-206830Y172940D01*
X-206830Y173890D02*
X-203830Y173890D01*
X-203830Y174840D02*
X-206830Y174840D01*
X-206830Y175790D02*
X-203830Y175790D01*
X-203830Y176740D02*
X-206830Y176740D01*
X-206830Y177690D02*
X-203830Y177690D01*
X-203830Y178640D02*
X-206830Y178640D01*
X-206830Y179590D02*
X-203830Y179590D01*
X-203830Y180540D02*
X-206830Y180540D01*
X-206830Y181490D02*
X-203830Y181490D01*
X-203830Y182440D02*
X-206830Y182440D01*
X-206830Y183390D02*
X-203830Y183390D01*
X-203830Y184340D02*
X-206830Y184340D01*
X-197330Y184690D02*
X-197330Y170090D01*
X-200330Y170090D01*
X-200330Y184690D01*
X-197330Y184690D01*
X-197330Y171040D02*
X-200330Y171040D01*
X-200330Y171990D02*
X-197330Y171990D01*
X-197330Y172940D02*
X-200330Y172940D01*
X-200330Y173890D02*
X-197330Y173890D01*
X-197330Y174840D02*
X-200330Y174840D01*
X-200330Y175790D02*
X-197330Y175790D01*
X-197330Y176740D02*
X-200330Y176740D01*
X-200330Y177690D02*
X-197330Y177690D01*
X-197330Y178640D02*
X-200330Y178640D01*
X-200330Y179590D02*
X-197330Y179590D01*
X-197330Y180540D02*
X-200330Y180540D01*
X-200330Y181490D02*
X-197330Y181490D01*
X-197330Y182440D02*
X-200330Y182440D01*
X-200330Y183390D02*
X-197330Y183390D01*
X-197330Y184340D02*
X-200330Y184340D01*
X-190830Y184690D02*
X-190830Y170090D01*
X-193830Y170090D01*
X-193830Y184690D01*
X-190830Y184690D01*
X-190830Y171040D02*
X-193830Y171040D01*
X-193830Y171990D02*
X-190830Y171990D01*
X-190830Y172940D02*
X-193830Y172940D01*
X-193830Y173890D02*
X-190830Y173890D01*
X-190830Y174840D02*
X-193830Y174840D01*
X-193830Y175790D02*
X-190830Y175790D01*
X-190830Y176740D02*
X-193830Y176740D01*
X-193830Y177690D02*
X-190830Y177690D01*
X-190830Y178640D02*
X-193830Y178640D01*
X-193830Y179590D02*
X-190830Y179590D01*
X-190830Y180540D02*
X-193830Y180540D01*
X-193830Y181490D02*
X-190830Y181490D01*
X-190830Y182440D02*
X-193830Y182440D01*
X-193830Y183390D02*
X-190830Y183390D01*
X-190830Y184340D02*
X-193830Y184340D01*
X-184330Y184690D02*
X-184330Y170090D01*
X-187330Y170090D01*
X-187330Y184690D01*
X-184330Y184690D01*
X-184330Y171040D02*
X-187330Y171040D01*
X-187330Y171990D02*
X-184330Y171990D01*
X-184330Y172940D02*
X-187330Y172940D01*
X-187330Y173890D02*
X-184330Y173890D01*
X-184330Y174840D02*
X-187330Y174840D01*
X-187330Y175790D02*
X-184330Y175790D01*
X-184330Y176740D02*
X-187330Y176740D01*
X-187330Y177690D02*
X-184330Y177690D01*
X-184330Y178640D02*
X-187330Y178640D01*
X-187330Y179590D02*
X-184330Y179590D01*
X-184330Y180540D02*
X-187330Y180540D01*
X-187330Y181490D02*
X-184330Y181490D01*
X-184330Y182440D02*
X-187330Y182440D01*
X-187330Y183390D02*
X-184330Y183390D01*
X-184330Y184340D02*
X-187330Y184340D01*
D11*
X-311540Y52070D03*
X-328540Y52070D03*
X-227720Y175260D03*
X-244720Y175260D03*
D10*
X-240030Y67700D03*
X-240030Y84700D03*
D11*
X-279790Y52070D03*
X-296790Y52070D03*
X44840Y193040D03*
X61840Y193040D03*
X-274710Y158750D03*
X-291710Y158750D03*
D17*
X82980Y193700D03*
X104980Y203200D03*
X82980Y212700D03*
D18*
X-128778Y44958D03*
X-128778Y26162D03*
D19*
X-150622Y35560D03*
D20*
X-283210Y110490D03*
D21*
X-304510Y126140D02*
X-304510Y144340D01*
X-300010Y144340D01*
X-300010Y126140D01*
X-304510Y126140D01*
X-304510Y127565D02*
X-300010Y127565D01*
X-300010Y128990D02*
X-304510Y128990D01*
X-304510Y130415D02*
X-300010Y130415D01*
X-300010Y131840D02*
X-304510Y131840D01*
X-304510Y133265D02*
X-300010Y133265D01*
X-300010Y134690D02*
X-304510Y134690D01*
X-304510Y136115D02*
X-300010Y136115D01*
X-300010Y137540D02*
X-304510Y137540D01*
X-304510Y138965D02*
X-300010Y138965D01*
X-300010Y140390D02*
X-304510Y140390D01*
X-304510Y141815D02*
X-300010Y141815D01*
X-300010Y143240D02*
X-304510Y143240D01*
X-291810Y144340D02*
X-291810Y126140D01*
X-291810Y144340D02*
X-287310Y144340D01*
X-287310Y126140D01*
X-291810Y126140D01*
X-291810Y127565D02*
X-287310Y127565D01*
X-287310Y128990D02*
X-291810Y128990D01*
X-291810Y130415D02*
X-287310Y130415D01*
X-287310Y131840D02*
X-291810Y131840D01*
X-291810Y133265D02*
X-287310Y133265D01*
X-287310Y134690D02*
X-291810Y134690D01*
X-291810Y136115D02*
X-287310Y136115D01*
X-287310Y137540D02*
X-291810Y137540D01*
X-291810Y138965D02*
X-287310Y138965D01*
X-287310Y140390D02*
X-291810Y140390D01*
X-291810Y141815D02*
X-287310Y141815D01*
X-287310Y143240D02*
X-291810Y143240D01*
X-279110Y144340D02*
X-279110Y126140D01*
X-279110Y144340D02*
X-274610Y144340D01*
X-274610Y126140D01*
X-279110Y126140D01*
X-279110Y127565D02*
X-274610Y127565D01*
X-274610Y128990D02*
X-279110Y128990D01*
X-279110Y130415D02*
X-274610Y130415D01*
X-274610Y131840D02*
X-279110Y131840D01*
X-279110Y133265D02*
X-274610Y133265D01*
X-274610Y134690D02*
X-279110Y134690D01*
X-279110Y136115D02*
X-274610Y136115D01*
X-274610Y137540D02*
X-279110Y137540D01*
X-279110Y138965D02*
X-274610Y138965D01*
X-274610Y140390D02*
X-279110Y140390D01*
X-279110Y141815D02*
X-274610Y141815D01*
X-274610Y143240D02*
X-279110Y143240D01*
X-266410Y144340D02*
X-266410Y126140D01*
X-266410Y144340D02*
X-261910Y144340D01*
X-261910Y126140D01*
X-266410Y126140D01*
X-266410Y127565D02*
X-261910Y127565D01*
X-261910Y128990D02*
X-266410Y128990D01*
X-266410Y130415D02*
X-261910Y130415D01*
X-261910Y131840D02*
X-266410Y131840D01*
X-266410Y133265D02*
X-261910Y133265D01*
X-261910Y134690D02*
X-266410Y134690D01*
X-266410Y136115D02*
X-261910Y136115D01*
X-261910Y137540D02*
X-266410Y137540D01*
X-266410Y138965D02*
X-261910Y138965D01*
X-261910Y140390D02*
X-266410Y140390D01*
X-266410Y141815D02*
X-261910Y141815D01*
X-261910Y143240D02*
X-266410Y143240D01*
X-266410Y94840D02*
X-266410Y76640D01*
X-266410Y94840D02*
X-261910Y94840D01*
X-261910Y76640D01*
X-266410Y76640D01*
X-266410Y78065D02*
X-261910Y78065D01*
X-261910Y79490D02*
X-266410Y79490D01*
X-266410Y80915D02*
X-261910Y80915D01*
X-261910Y82340D02*
X-266410Y82340D01*
X-266410Y83765D02*
X-261910Y83765D01*
X-261910Y85190D02*
X-266410Y85190D01*
X-266410Y86615D02*
X-261910Y86615D01*
X-261910Y88040D02*
X-266410Y88040D01*
X-266410Y89465D02*
X-261910Y89465D01*
X-261910Y90890D02*
X-266410Y90890D01*
X-266410Y92315D02*
X-261910Y92315D01*
X-261910Y93740D02*
X-266410Y93740D01*
X-279110Y94840D02*
X-279110Y76640D01*
X-279110Y94840D02*
X-274610Y94840D01*
X-274610Y76640D01*
X-279110Y76640D01*
X-279110Y78065D02*
X-274610Y78065D01*
X-274610Y79490D02*
X-279110Y79490D01*
X-279110Y80915D02*
X-274610Y80915D01*
X-274610Y82340D02*
X-279110Y82340D01*
X-279110Y83765D02*
X-274610Y83765D01*
X-274610Y85190D02*
X-279110Y85190D01*
X-279110Y86615D02*
X-274610Y86615D01*
X-274610Y88040D02*
X-279110Y88040D01*
X-279110Y89465D02*
X-274610Y89465D01*
X-274610Y90890D02*
X-279110Y90890D01*
X-279110Y92315D02*
X-274610Y92315D01*
X-274610Y93740D02*
X-279110Y93740D01*
X-291810Y94840D02*
X-291810Y76640D01*
X-291810Y94840D02*
X-287310Y94840D01*
X-287310Y76640D01*
X-291810Y76640D01*
X-291810Y78065D02*
X-287310Y78065D01*
X-287310Y79490D02*
X-291810Y79490D01*
X-291810Y80915D02*
X-287310Y80915D01*
X-287310Y82340D02*
X-291810Y82340D01*
X-291810Y83765D02*
X-287310Y83765D01*
X-287310Y85190D02*
X-291810Y85190D01*
X-291810Y86615D02*
X-287310Y86615D01*
X-287310Y88040D02*
X-291810Y88040D01*
X-291810Y89465D02*
X-287310Y89465D01*
X-287310Y90890D02*
X-291810Y90890D01*
X-291810Y92315D02*
X-287310Y92315D01*
X-287310Y93740D02*
X-291810Y93740D01*
X-304510Y94840D02*
X-304510Y76640D01*
X-304510Y94840D02*
X-300010Y94840D01*
X-300010Y76640D01*
X-304510Y76640D01*
X-304510Y78065D02*
X-300010Y78065D01*
X-300010Y79490D02*
X-304510Y79490D01*
X-304510Y80915D02*
X-300010Y80915D01*
X-300010Y82340D02*
X-304510Y82340D01*
X-304510Y83765D02*
X-300010Y83765D01*
X-300010Y85190D02*
X-304510Y85190D01*
X-304510Y86615D02*
X-300010Y86615D01*
X-300010Y88040D02*
X-304510Y88040D01*
X-304510Y89465D02*
X-300010Y89465D01*
X-300010Y90890D02*
X-304510Y90890D01*
X-304510Y92315D02*
X-300010Y92315D01*
X-300010Y93740D02*
X-304510Y93740D01*
D15*
X318770Y66040D03*
X318770Y104140D03*
M02*
